<?xml version="1.0" encoding="utf-8"?>
<!-- Generator: Adobe Illustrator 25.2.3, SVG Export Plug-In . SVG Version: 6.00 Build 0)  -->
<svg version="1.1" xmlns="http://www.w3.org/2000/svg" xmlns:xlink="http://www.w3.org/1999/xlink" x="0px" y="0px"
	 viewBox="0 0 750 500" enable-background="new 0 0 750 500" xml:space="preserve">
<g id="BACKGROUND">
	<rect fill="#FFFFFF" width="750" height="500"/>
	<g>
		<path fill="#EAF3FA" d="M76,386c0,0-51.4-99.1-1.2-144.5c21.5-19.4,41.5-41.5,53.7-68.1c13.8-30.1,10.4-62.9,20.4-93.9
			c7.1-21.7,20.7-42.5,41.4-52.2c24.9-11.7,54.2-5.5,80.5,2.3c31.4,9.3,61.2,16,93.9,9.8c22.5-4.2,43-14.8,65.6-18.7
			c34.9-5.9,72.1-1,104.6,12.9c22.6,9.7,40.5,23.7,53.4,44.6c12.3,20.1,20.5,42.9,36.2,60.9c15.5,17.7,36.9,28.4,53.2,45.1
			c17.9,18.2,26.4,46.7,31.6,71.1c4.9,23.2,6.5,47.7,1.3,71c-2.5,11.3-6.7,22.3-12.8,32.2c-3.5,5.6-16.1,25-23.5,25
			C674.3,383.6,76,386,76,386z"/>
		<g>
			<path fill="#E0EBFF" d="M324.6,65.8c-18.8-6.7-39.4,3.1-46.1,21.9c-6.7,18.8,3.1,39.4,21.9,46.1c18.8,6.7,39.4-3.1,46.1-21.9
				S343.4,72.5,324.6,65.8z M305.5,119.4c-10.8-3.9-16.5-15.7-12.6-26.5c3.9-10.8,15.7-16.5,26.5-12.6c10.8,3.9,16.5,15.7,12.6,26.5
				C328.2,117.6,316.4,123.3,305.5,119.4z"/>
			<polygon fill="#E0EBFF" points="333.8,77.9 309.9,69.4 318.5,49.2 339.9,56.9 			"/>
			<polygon fill="#E0EBFF" points="304.3,69.9 284.9,86.4 271.7,68.8 289.1,54.1 			"/>
			<polygon fill="#E0EBFF" points="282.5,91.4 287.1,116.5 265.3,119.1 261.2,96.7 			"/>
			<polygon fill="#E0EBFF" points="290.3,121.1 314.3,129.6 305.7,149.8 284.2,142.1 			"/>
			<polygon fill="#E0EBFF" points="319.9,129.3 339.1,112.6 352.4,130 335.3,145 			"/>
			<polygon fill="#E0EBFF" points="341.6,107.6 337,82.5 358.8,79.9 362.9,102.3 			"/>
		</g>
		<g opacity="0.5">
			
				<rect x="452" y="47.8" transform="matrix(0.9854 0.17 -0.17 0.9854 24.0004 -83.8062)" fill="#E0EBFF" width="98.8" height="101"/>
			<path fill="#FFFFFF" d="M528,86.7c-0.9,5.4-3.5,10-7.2,13.5c-5.4,5.1-13,7.7-20.8,6.3c-7.9-1.4-14.2-6.4-17.6-13
				c-2.3-4.5-3.1-9.7-2.2-15c2.3-13.2,14.8-22.1,28-19.8C521.5,61,530.3,73.5,528,86.7z"/>
			<path fill="#E0EBFF" d="M520.8,100.2c-5.4,5.1-13,7.7-20.8,6.3c-7.9-1.4-14.2-6.4-17.6-13c5.4-5.1,13-7.7,20.8-6.3
				C511.2,88.5,517.5,93.6,520.8,100.2z"/>
			
				<ellipse transform="matrix(0.2321 -0.9727 0.9727 0.2321 311.9927 551.2077)" fill="#E0EBFF" cx="505.1" cy="78" rx="7.4" ry="7.4"/>
			
				<rect x="455.5" y="115.7" transform="matrix(0.9854 0.17 -0.17 0.9854 27.3281 -83.1741)" fill="#FFFFFF" width="87.8" height="4.6"/>
			
				<rect x="454.1" y="124" transform="matrix(0.9854 0.17 -0.17 0.9854 28.7123 -82.8115)" fill="#FFFFFF" width="87.8" height="4.6"/>
			
				<rect x="452.5" y="132.9" transform="matrix(0.9854 0.17 -0.17 0.9854 30.2143 -82.418)" fill="#FFFFFF" width="87.8" height="4.6"/>
		</g>
		<g opacity="0.5">
			<g>
				<path fill="#E0EBFF" d="M304.8,117.6L327.3,248l-162.9,28.2l-22.6-130.4c-0.5-2.9,1.5-5.7,4.4-6.3l152.2-26.3
					C301.5,112.7,304.3,114.6,304.8,117.6z"/>
				<path fill="#D5DFEF" d="M304.8,117.6l1.2,7.1l-162.9,28.2l-1.2-7.1c-0.5-2.9,1.5-5.7,4.4-6.3l152.2-26.3
					C301.5,112.7,304.3,114.6,304.8,117.6z"/>
				<g>
					<path fill="#FFFFFF" d="M154.5,145.2c0.3,1.5-0.8,3-2.3,3.3c-1.5,0.3-3-0.8-3.3-2.3c-0.3-1.5,0.8-3,2.3-3.3
						C152.8,142.6,154.3,143.7,154.5,145.2z"/>
					<path fill="#FFFFFF" d="M162.8,143.8c0.3,1.5-0.8,3-2.3,3.3c-1.5,0.3-3-0.8-3.3-2.3c-0.3-1.5,0.8-3,2.3-3.3
						S162.5,142.3,162.8,143.8z"/>
					<path fill="#FFFFFF" d="M171,142.4c0.3,1.5-0.8,3-2.3,3.3c-1.5,0.3-3-0.8-3.3-2.3c-0.3-1.5,0.8-3,2.3-3.3
						C169.3,139.8,170.7,140.8,171,142.4z"/>
				</g>
			</g>
			
				<rect x="151.3" y="146.8" transform="matrix(0.9854 -0.1705 0.1705 0.9854 -22.7049 39.6555)" fill="#FFFFFF" width="136.6" height="10.6"/>
			<g>
				<g>
					<path fill="#FFFFFF" d="M295.7,140.9c-0.6,0.1-1.2,0-1.7-0.4c-0.5-0.4-0.9-0.9-1-1.5c-0.1-0.6,0-1.2,0.4-1.8
						c0.4-0.5,0.9-0.9,1.5-1c0.6-0.1,1.2,0,1.8,0.4c0.5,0.4,0.9,0.9,1,1.5c0.1,0.6,0,1.2-0.4,1.8
						C296.9,140.4,296.4,140.8,295.7,140.9C295.7,140.9,295.7,140.9,295.7,140.9z M295,137c-0.4,0.1-0.8,0.3-1.1,0.7
						c-0.3,0.4-0.3,0.8-0.3,1.3c0.1,0.4,0.3,0.8,0.7,1.1c0.4,0.3,0.8,0.3,1.3,0.3c0.4-0.1,0.8-0.3,1.1-0.7c0.3-0.4,0.3-0.8,0.3-1.3
						c-0.1-0.4-0.3-0.8-0.7-1.1C295.9,137,295.4,136.9,295,137z"/>
				</g>
				<g>
					<path fill="#FFFFFF" d="M300.3,142.1c-0.1,0-0.2,0-0.2-0.1l-3.1-2.1c-0.2-0.1-0.2-0.3-0.1-0.5c0.1-0.2,0.3-0.2,0.5-0.1l3.1,2.1
						c0.2,0.1,0.2,0.3,0.1,0.5C300.4,142.1,300.4,142.1,300.3,142.1z"/>
				</g>
			</g>
			<g>
				
					<rect x="153.8" y="163.8" transform="matrix(0.9854 -0.1705 0.1705 0.9854 -25.0853 41.6459)" fill="#FFFFFF" width="152.4" height="6.3"/>
				
					<rect x="155.6" y="174.1" transform="matrix(0.9854 -0.1705 0.1705 0.9854 -26.8184 42.1014)" fill="#FFFFFF" width="152.4" height="6.3"/>
				
					<rect x="157.4" y="184.4" transform="matrix(0.9854 -0.1705 0.1705 0.9854 -28.5514 42.5566)" fill="#FFFFFF" width="152.4" height="6.3"/>
			</g>
			<g>
				
					<rect x="166.5" y="237.6" transform="matrix(0.9854 -0.1705 0.1705 0.9854 -37.3432 44.8107)" fill="#FFFFFF" width="151.6" height="4.5"/>
				
					<rect x="167.7" y="245" transform="matrix(0.9854 -0.1705 0.1705 0.9854 -38.5741 45.1339)" fill="#FFFFFF" width="151.6" height="4.5"/>
				
					<rect x="169" y="252.3" transform="matrix(0.9854 -0.1705 0.1705 0.9854 -39.8052 45.4575)" fill="#FFFFFF" width="151.6" height="4.5"/>
			</g>
			
				<rect x="163" y="204.7" transform="matrix(0.9854 -0.1705 0.1705 0.9854 -35.4979 34.3348)" fill="#FFFFFF" width="38.5" height="38.5"/>
			
				<rect x="208.2" y="194.8" transform="matrix(0.9854 -0.1705 0.1705 0.9854 -32.9971 43.8536)" fill="#FFFFFF" width="61.5" height="38.5"/>
			
				<rect x="274.7" y="185.3" transform="matrix(0.9854 -0.1705 0.1705 0.9854 -30.5661 53.1057)" fill="#FFFFFF" width="38.5" height="38.5"/>
		</g>
		<g>
			<g>
				<path fill="#D5DFEF" d="M43.2,355.5C43.2,355.5,43.2,355.5,43.2,355.5c0,0-0.2-0.2-0.4-0.4c-4.7-4.4-48.7-46-29-53.8
					C34.4,293.1,43.4,354.1,43.2,355.5z"/>
				<g>
					<path fill="#FFFFFF" d="M43.2,355.5c0,0-0.2-0.2-0.4-0.4c-2.8-8.1-8.7-18.9-13.7-27.6C22,315.4,15,304.9,14.9,304.8l0.2-0.1
						c0.1,0.1,7.1,10.6,14.2,22.8C34.4,336.3,40.4,347.4,43.2,355.5z"/>
				</g>
			</g>
			<g>
				<path fill="#D5DFEF" d="M43.5,350.7C43.5,350.7,43.5,350.7,43.5,350.7c0,0,0.2-0.1,0.4-0.2c4.8-2.8,49.5-29.5,34.5-39.7
					C62.5,299.9,43.5,349.4,43.5,350.7z"/>
				<g>
					<path fill="#FFFFFF" d="M43.5,350.7c0,0,0.2-0.1,0.4-0.2c3.9-6.2,10.8-14.3,16.7-20.6c8.2-8.9,16.1-16.4,16.2-16.5l-0.2-0.2
						c-0.1,0.1-7.9,7.6-16.2,16.5C54.5,336.1,47.3,344.3,43.5,350.7z"/>
				</g>
			</g>
			<g>
				<path fill="#E0EBFF" d="M41.6,353.1C41.6,353.1,41.6,353.1,41.6,353.1c0,0,0.1-0.2,0.3-0.5c3.2-5.3,32.7-55.2,12.6-57.2
					C33.2,293.3,41,351.8,41.6,353.1z"/>
				<g>
					<path fill="#FFFFFF" d="M41.6,353.1c0,0,0.1-0.2,0.3-0.4c0.5-8.2,3-19.7,5.4-29c3.3-13.1,7-24.6,7-24.7l-0.2-0.1
						c0,0.1-3.7,11.6-7,24.7C44.6,333,42,344.8,41.6,353.1z"/>
				</g>
			</g>
			<polygon fill="#E0EBFF" points="62.7,346.2 62.7,346.3 62.5,350.1 60.4,381.5 60.1,386 29.3,386 29,381.5 26.9,350.1 26.7,346.3 
				26.7,346.2 			"/>
			<polygon fill="#D5DFEF" points="60.4,381.5 60.1,386 29.3,386 29,381.5 			"/>
			<polygon fill="#EEF5FF" points="62.7,346.3 62.5,350.1 26.9,350.1 26.7,346.3 			"/>
		</g>
		<g>
			<g>
				<path fill="#D5DFEF" d="M707.6,352.9C707.6,352.9,707.6,352.9,707.6,352.9c0,0-0.2-0.2-0.4-0.4c-4.7-4.4-48.7-46-29-53.8
					C698.9,290.4,707.8,351.5,707.6,352.9z"/>
				<g>
					<path fill="#FFFFFF" d="M707.6,352.9c0,0-0.2-0.2-0.4-0.4c-2.8-8.1-8.7-18.9-13.7-27.6c-7.1-12.2-14.1-22.7-14.2-22.8l0.2-0.1
						c0.1,0.1,7.1,10.6,14.2,22.8C698.8,333.6,704.8,344.7,707.6,352.9z"/>
				</g>
			</g>
			<g>
				<path fill="#D5DFEF" d="M707.9,348C707.9,348,707.9,348,707.9,348c0,0,0.2-0.1,0.4-0.2c4.8-2.8,49.5-29.5,34.5-39.7
					C726.9,297.3,708,346.8,707.9,348z"/>
				<g>
					<path fill="#FFFFFF" d="M707.9,348c0,0,0.2-0.1,0.4-0.2c3.9-6.2,10.8-14.3,16.7-20.6c8.2-8.9,16.1-16.4,16.2-16.5l-0.2-0.2
						c-0.1,0.1-7.9,7.6-16.2,16.5C718.9,333.5,711.8,341.7,707.9,348z"/>
				</g>
			</g>
			<g>
				<path fill="#E0EBFF" d="M706,350.4C706,350.4,706,350.4,706,350.4c0,0,0.1-0.2,0.3-0.5c3.2-5.3,32.7-55.2,12.6-57.2
					C697.6,290.6,705.4,349.2,706,350.4z"/>
				<g>
					<path fill="#FFFFFF" d="M706,350.4c0,0,0.1-0.2,0.3-0.4c0.5-8.2,3-19.7,5.4-29c3.3-13.1,7-24.6,7-24.7l-0.2-0.1
						c0,0.1-3.7,11.6-7,24.7C709,330.4,706.4,342.2,706,350.4z"/>
				</g>
			</g>
			<polygon fill="#E0EBFF" points="727.1,343.6 727.1,343.6 726.9,347.4 724.8,378.9 724.5,383.3 693.7,383.3 693.4,378.9 
				691.3,347.4 691.1,343.6 691.1,343.6 			"/>
			<polygon fill="#D5DFEF" points="724.8,378.9 724.5,383.3 693.7,383.3 693.4,378.9 			"/>
			<polygon fill="#EEF5FF" points="727.1,343.6 726.9,347.4 691.3,347.4 691.1,343.6 			"/>
		</g>
	</g>
</g>
<g id="OBJECTS">
	<g>
		<circle fill="#FFFFFF" cx="485.7" cy="173.3" r="8.8"/>
	</g>
	<g>
		<g>
			<g>
				<path fill="#7C9DE2" d="M419.1,384.9h-98.4c23.3-8.7,26.5-42.9,26.5-42.9c0,1.7,48.1-0.3,48.1-0.3c0,0.4,0,0.8,0,1.3
					c0.3,8.1,2.7,15.1,5.7,21C408.2,377.4,419.1,384.9,419.1,384.9z"/>
				<path opacity="0.6" d="M401.2,364c-13-9.1-54.6-16.4-54.6-16.4l48.9-4.7C395.8,351,398.1,358.1,401.2,364z"/>
			</g>
			<path fill="#7C9DE2" d="M524.8,150.5v188.1c0,5.2-4.2,9.4-9.4,9.4H224.5c-5.2,0-9.4-4.2-9.4-9.4V150.5c0-5.2,4.2-9.4,9.4-9.4
				h290.9C520.6,141.1,524.8,145.3,524.8,150.5z"/>
			<rect x="227.1" y="155.9" fill="#D0E0FA" width="285.7" height="164.3"/>
			<circle opacity="0.6" cx="369.9" cy="333.6" r="8.8"/>
		</g>
		<g>
			<g>
				<polygon opacity="0.6" points="244.1,320.2 237,141 244.1,141.1 				"/>
				<polygon opacity="0.6" points="497.3,320.2 504.4,141 497.3,141.1 				"/>
			</g>
			<g>
				<g>
					<g>
						<path fill="#C0D1FF" d="M497.3,117.5v202.7H244.1V117.5c0-4.6,3.7-8.3,8.3-8.3H489C493.6,109.2,497.3,112.9,497.3,117.5z"/>
						<path fill="#9EB3E8" d="M497.3,117.5v11.1H244.1v-11.1c0-4.6,3.7-8.3,8.3-8.3H489C493.6,109.2,497.3,112.9,497.3,117.5z"/>
						<g>
							<path fill="#FFFFFF" d="M263.3,120c0,2.4-2,4.4-4.4,4.4s-4.4-2-4.4-4.4c0-2.4,2-4.4,4.4-4.4S263.3,117.5,263.3,120z"/>
							<path fill="#FFFFFF" d="M276.1,120c0,2.4-2,4.4-4.4,4.4c-2.4,0-4.4-2-4.4-4.4c0-2.4,2-4.4,4.4-4.4
								C274.1,115.6,276.1,117.5,276.1,120z"/>
							<path fill="#FFFFFF" d="M288.9,120c0,2.4-2,4.4-4.4,4.4s-4.4-2-4.4-4.4c0-2.4,2-4.4,4.4-4.4S288.9,117.5,288.9,120z"/>
						</g>
					</g>
					<g>
						<rect x="255.1" y="139.1" fill="#FFFFFF" width="209.3" height="16.2"/>
						<g>
							<g>
								<path fill="#30376D" d="M477.5,150.3c-0.9,0-1.8-0.4-2.5-1c-0.7-0.7-1.1-1.6-1.1-2.5c0-1,0.3-1.9,1-2.6
									c0.7-0.7,1.6-1.1,2.5-1.1c1,0,1.9,0.3,2.6,1c0.7,0.7,1.1,1.6,1.1,2.5c0,1-0.3,1.9-1,2.6
									C479.4,149.9,478.5,150.3,477.5,150.3C477.6,150.3,477.5,150.3,477.5,150.3z M477.5,144.1c-0.7,0-1.4,0.3-1.9,0.8
									c-0.5,0.5-0.7,1.1-0.7,1.8c0,0.7,0.3,1.3,0.8,1.8c0.5,0.5,1.1,0.7,1.8,0.7c0.7,0,1.3-0.3,1.8-0.8c0.5-0.5,0.7-1.1,0.7-1.8
									c0-0.7-0.3-1.3-0.8-1.8C478.8,144.4,478.1,144.1,477.5,144.1z"/>
							</g>
							<g>
								<path fill="#30376D" d="M484.1,153.4c-0.1,0-0.3,0-0.4-0.1l-4.2-4c-0.2-0.2-0.2-0.5,0-0.7c0.2-0.2,0.5-0.2,0.7,0l4.2,4
									c0.2,0.2,0.2,0.5,0,0.7C484.4,153.3,484.3,153.4,484.1,153.4z"/>
							</g>
						</g>
						<g>
							<rect x="255.1" y="166.4" fill="#2F579F" width="113" height="109.3"/>
							<g>
								<rect x="260.3" y="173.2" fill="#FFFFFF" width="102.8" height="7.8"/>
								<rect x="260.3" y="186.2" fill="#FFFFFF" width="102.8" height="7.8"/>
								<rect x="260.3" y="199.4" fill="#FFFFFF" width="102.8" height="7.8"/>
							</g>
							<g>
								<rect x="318.8" y="217.8" fill="#FFFFFF" width="44.2" height="5"/>
								<rect x="318.8" y="226.3" fill="#FFFFFF" width="44.2" height="5"/>
								<rect x="318.8" y="234.7" fill="#FFFFFF" width="44.2" height="5"/>
								<rect x="318.8" y="243.2" fill="#FFFFFF" width="44.2" height="5"/>
								<rect x="318.8" y="251.6" fill="#FFFFFF" width="44.2" height="5"/>
								<rect x="318.8" y="260" fill="#FFFFFF" width="44.2" height="5"/>
							</g>
							<rect x="260.3" y="212.7" fill="#FFFFFF" width="55.4" height="54.3"/>
						</g>
						<g>
							<rect x="373.8" y="167.6" fill="#FFFFFF" width="114.4" height="9.7"/>
							<rect x="373.8" y="183.6" fill="#FFFFFF" width="114.4" height="9.7"/>
							<rect x="373.8" y="199.7" fill="#FFFFFF" width="114.4" height="9.7"/>
						</g>
						<g>
							<rect x="254.9" y="282.3" fill="#FFFFFF" width="232.3" height="6.9"/>
							<rect x="254.9" y="293.7" fill="#FFFFFF" width="232.3" height="6.9"/>
							<rect x="254.9" y="305.1" fill="#FFFFFF" width="232.3" height="6.9"/>
						</g>
						<g>
							<rect x="372.9" y="223.4" fill="#FFFFFF" width="61.3" height="5"/>
							<rect x="372.9" y="231.8" fill="#FFFFFF" width="61.3" height="5"/>
							<rect x="372.9" y="240.3" fill="#FFFFFF" width="61.3" height="5"/>
							<rect x="372.9" y="248.7" fill="#FFFFFF" width="61.3" height="5"/>
							<rect x="372.9" y="257.2" fill="#FFFFFF" width="61.3" height="5"/>
							<rect x="372.9" y="265.6" fill="#FFFFFF" width="61.3" height="5"/>
						</g>
					</g>
				</g>
			</g>
		</g>
	</g>
	<path opacity="0.5" d="M534.5,267.3c0.9-0.3,1.8-0.6,2.8-0.9l-4.2,15.2c-0.2,0.1-0.5,0.1-0.7,0.2c0,0-2.3,3.6-3.7,2.2
		c-1-1-0.2-2.1,0.3-2.7c-0.5,0.4-1.4,0.8-2.5-0.1c-1.2-0.9,0.1-2,0.9-2.5c-0.7,0.3-2,0.7-2.9-0.5c0,0-1.1-1.8,1.4-2.8
		c-0.2,0-1.9,0.6-2.5-1.1c0,0,0-2.1,3.4-2.7c0,0-5.2,0-4.6-2c0.6-2,4.3-2.3,4.3-2.3S529.1,264.9,534.5,267.3z"/>
	<g>
		<g>
			<g>
				<g>
					
						<rect x="504.4" y="388.9" transform="matrix(0.9987 5.119887e-02 -5.119887e-02 0.9987 20.64 -26.1589)" fill="#162858" width="33" height="1.8"/>
					<g>
						<path fill="#E3B598" d="M523.3,354l-0.8,20.3c0,0,15.5,2.6,15.7,1.9c0.2-0.7,3.1-21.7,3.1-21.7L523.3,354z"/>
						<path fill="#2C4690" d="M521.5,374.1l-0.6,6.5c0,0-16.1-0.8-16.4,7.4l33,1.7l1.6-14.5L521.5,374.1z"/>
						<path fill="none" stroke="#FFFFFF" stroke-linecap="round" stroke-linejoin="round" stroke-miterlimit="10" d="M516.6,380.5
							c1.4,0.9,2.4,2.4,2.6,4.1"/>
						<path fill="none" stroke="#FFFFFF" stroke-linecap="round" stroke-linejoin="round" stroke-miterlimit="10" d="M513.6,380.6
							c1.4,0.9,2.4,2.4,2.6,4.1"/>
						<path fill="none" stroke="#FFFFFF" stroke-linecap="round" stroke-linejoin="round" stroke-miterlimit="10" d="M510.7,381.3
							c1.4,0.9,2.4,2.4,2.6,4.1"/>
					</g>
				</g>
				<path fill="#29458C" d="M585.3,241.8c0,0-13.6,27.6-23.2,61c-0.1,0.3-0.2,0.7-0.3,1c-0.7,2.4-1.4,4.8-2.2,7.1
					c-6.3,19.6-14,34.8-18.2,55.8l-21.3-1.5c0,0-0.6-35.5,4.9-68.1c3.8-22.8,15.6-43.9,21-54.7L585.3,241.8z"/>
			</g>
			<path opacity="0.5" d="M562.1,302.8c-0.1,0.3-0.2,0.7-0.3,1c-0.7,2.4-1.4,4.8-2.2,7.1c-1.9-14.8-3.6-32.1-3.6-32.1L562.1,302.8z"
				/>
			<g>
				<g>
					
						<rect x="569.2" y="393.6" transform="matrix(0.9856 -0.1693 0.1693 0.9856 -58.3157 104.8447)" fill="#162858" width="33" height="1.8"/>
					<g>
						<path fill="#E3B598" d="M580.2,359l3.7,19.9c0,0,15.7-0.9,15.8-1.6c0.1-0.7-1.8-21.9-1.8-21.9L580.2,359z"/>
						<path fill="#2C4690" d="M582.8,379.1l0.8,6.5c0,0-15.9,2.7-14.4,10.8l32.5-5.6l-1.6-14.5L582.8,379.1z"/>
						<path fill="none" stroke="#FFFFFF" stroke-linecap="round" stroke-linejoin="round" stroke-miterlimit="10" d="M579.5,386.3
							c1.6,0.5,2.9,1.8,3.5,3.4"/>
						<path fill="none" stroke="#FFFFFF" stroke-linecap="round" stroke-linejoin="round" stroke-miterlimit="10" d="M576.6,387.1
							c1.6,0.5,2.9,1.8,3.5,3.4"/>
						<path fill="none" stroke="#FFFFFF" stroke-linecap="round" stroke-linejoin="round" stroke-miterlimit="10" d="M573.9,388.4
							c1.6,0.5,2.9,1.8,3.5,3.4"/>
					</g>
				</g>
				<path fill="#2F579F" d="M595.5,241.4c0,0,7.9,74.8,6.6,127.5l-22.4,2.8c0,0-22.4-74-26.8-128.9L595.5,241.4z"/>
			</g>
		</g>
		<g>
			<g>
				<path fill="#E3B598" d="M543.5,187c0,0-32,18.7-48.7,23.8l6.4,13.4c0,0,38.1-16,53.1-29L543.5,187z"/>
				<path fill="#F99746" d="M574.7,185.9c0,0-13.8-12.7-34.2,0.8l10.2,13.9L574.7,185.9z"/>
			</g>
			<path fill="#F99746" d="M597.1,204.7c-2,29.2-1.5,37.2-1.5,37.2l-49.6,0.6l0.1-3.1l0.3-12.8l0.7-32.7c0,0-5.1-19.7,24.6-18.8
				C571.6,175.1,599.2,175.5,597.1,204.7z"/>
			<g opacity="0.5">
				<polygon points="524.8,216.7 524.8,268 519.5,286.9 453,268.4 471.5,201.8 				"/>
			</g>
			<g>
				<polygon fill="#2F579F" points="535.6,216.1 530.7,233.7 526.5,248.9 517.1,282.7 450.6,264.2 469.1,197.6 				"/>
				<polygon fill="#FFFFFF" points="507.4,245 487.7,225 480.2,252 				"/>
				
					<ellipse transform="matrix(0.939 -0.344 0.344 0.939 -52.526 184.2947)" fill="none" stroke="#FFFFFF" stroke-width="2" stroke-miterlimit="10" cx="493.1" cy="240.2" rx="25.7" ry="25.7"/>
			</g>
			<path opacity="0.5" d="M582.3,222.6l-1-1.4c-9.9,6.8-24.6,13.6-35.2,18.1l0.3-12.8c11.4-6,22.9-13.3,27.2-16.1l-1.4-1.9
				l21.3-18.3C593.5,190.3,601.4,207.3,582.3,222.6z"/>
			<g>
				<path fill="#E3B598" d="M532.5,242.4c0,0-2.4,3.2-6.5,4.2c0,0-2.3,3.6-3.7,2.2c-1.4-1.4,0.6-3,0.6-3s-1.2,1.6-2.9,0.3
					s1.4-2.8,1.4-2.8s-2.1,1.5-3.4-0.2c0,0-1.1-1.8,1.4-2.8c0,0-1.9,0.7-2.5-1c0,0,0-2.1,3.4-2.7c0,0-5.2,0-4.6-2.1
					c0.6-2,4.3-2.3,4.3-2.3s2.8-2.5,8.7,0.5L532.5,242.4z"/>
				<g>
					<path fill="#E3B598" d="M575.6,206.8c0,0-30.9,20.5-47.6,25.4l4.5,10.2c0,0,38.7-14.6,53.9-27.4L575.6,206.8z"/>
					<path fill="#F99746" d="M593.7,187.8c0,0,7.9,17.1-11.2,32.3l-10.1-14L593.7,187.8z"/>
				</g>
			</g>
		</g>
		<g>
			<path fill="#30376D" d="M552.3,140.8c-0.8-1.1-1.6-2.2-2-3.5c-0.5-1.3-0.6-2.7,0-3.9c0.6-1.2,1.9-2.1,3.3-1.8
				c-1-1.5-0.8-3.8,0.4-5.1c1.3-1.4,3.5-1.7,5.1-0.8c0.1-1.8,1.5-3.5,3.3-4c1.8-0.4,3.8,0.5,4.7,2.1c1-1.6,3.2-2.5,5-2.1
				s3.4,2.2,3.5,4.2c1.9-1.6,4.9-1.8,6.9-0.4c2.1,1.4,3,4.3,2.1,6.6c2.9-1,6.4,1,7.1,3.9c0.7,3-1.6,6.3-4.7,6.6
				c1.4,0.6,1.9,2.3,1.5,3.8c-0.4,1.4-1.4,2.6-2.4,3.7c-1.4,1.5-2.8,2.9-4.6,3.7c-2,0.9-4.2,1-6.4,0.9c-4.9-0.2-9.7-1.1-14.3-2.7
				c-3-1-7.9-2.9-9.5-5.9C550.5,144.4,550.6,142,552.3,140.8z"/>
			<g>
				<path fill="#E3B598" d="M570.8,183.3L570.8,183.3c-3.6,0-6.6-2.9-6.6-6.6v-12.5h13.1v12.5C577.4,180.4,574.4,183.3,570.8,183.3z
					"/>
				<path fill="#D78B73" d="M577.4,170.8v-6.5h-13.1v10.2C566.3,174.7,573.9,175.2,577.4,170.8z"/>
			</g>
			<path fill="#E3B598" d="M579.5,134c-7.3-8.1-20.9-4.4-23.2,6.3c-1,4.8-1.7,10.8-0.6,16.7c2.4,13.4,11.1,18.9,20.5,14.2
				c9.4-4.7,9.8-23.8,6.5-32.1C582,137.2,580.9,135.5,579.5,134z"/>
			<path fill="#30376D" d="M579.9,149c-1.4-1.2-2.4-2.9-3.3-4.5c-0.7-1.4-1.4-2.8-2.6-3.8c-1.3-1.1-3-1.6-4.7-2.1
				c-2.2-0.6-4.5-1.2-6.7-0.5c-1.7,0.5-3.1,1.7-4.7,2.3c-1.6,0.6-3.9,0.4-4.6-1.2c-0.6-1.2,0-2.6,0.6-3.7c3.2-5.4,9.8-8.1,16-8
				c3.1,0,6.3,0.7,9,2.4c3.3,2.1,5.5,5.6,6.5,9.3c0.7,3,0.7,6.1,0.1,9.1c-0.3,1.3-0.3,2.2-1.7,2.3C582.4,150.6,581,149.8,579.9,149z
				"/>
			<g>
				<path fill="#E3B598" d="M586.4,151.8c-0.2,1.9-1.9,3.3-3.8,3.1c-1.9-0.2-3.3-1.9-3.1-3.8c0.2-1.9,1.9-3.3,3.8-3.1
					C585.2,148.1,586.6,149.8,586.4,151.8z"/>
				<path opacity="0.6" d="M584.8,151.4c0,0.9-0.8,1.7-1.7,1.7c-0.9,0-1.7-0.8-1.7-1.7c0-0.9,0.8-1.7,1.7-1.7
					C584.1,149.7,584.8,150.5,584.8,151.4z"/>
			</g>
		</g>
	</g>
	<g>
		<g>
			<g>
				
					<rect x="258.3" y="469.4" transform="matrix(-0.9305 0.3664 -0.3664 -0.9305 702.4296 807.1429)" fill="#162858" width="32.7" height="1.7"/>
				<g>
					<path fill="#E3B598" d="M261.1,437.4l7.1,18.8c0,0-13.8,7.3-14.2,6.7c-0.4-0.6-9.7-19.4-9.7-19.4L261.1,437.4z"/>
					<path fill="#2C4690" d="M269.2,455.7l2.6,5.9c0,0,14.8-5.8,17.7,1.8l-30.4,12l-6.1-13.1L269.2,455.7z"/>
					<path fill="none" stroke="#FFFFFF" stroke-linecap="round" stroke-linejoin="round" stroke-miterlimit="10" d="M275.8,460.1
						c-1.1,1.3-1.5,3-1.2,4.6"/>
					<path fill="none" stroke="#FFFFFF" stroke-linecap="round" stroke-linejoin="round" stroke-miterlimit="10" d="M278.6,459.3
						c-1.1,1.3-1.5,3-1.2,4.6"/>
					<path fill="none" stroke="#FFFFFF" stroke-linecap="round" stroke-linejoin="round" stroke-miterlimit="10" d="M281.6,459
						c-1.1,1.3-1.5,3-1.2,4.6"/>
				</g>
			</g>
			<path fill="#29458C" d="M205.5,325.2c0,0,13.9,87.6,40.3,128.2l21.3-6.8c0,0-9.8-94.7-22.7-120.8L205.5,325.2z"/>
		</g>
		<path opacity="0.5" d="M234.4,361.9c0,0-4.5,46.3-7,51.6l-3.4-9.9L234.4,361.9z"/>
		<g>
			<g>
				
					<rect x="188.2" y="479" transform="matrix(-0.9856 -0.1693 0.1693 -0.9856 324.9169 987.3915)" fill="#162858" width="32.7" height="1.7"/>
				<g>
					<path fill="#E3B598" d="M210,444.8l-3.6,19.7c0,0-15.5-0.9-15.6-1.6c-0.1-0.7,1.8-21.6,1.8-21.6L210,444.8z"/>
					<path fill="#2C4690" d="M207.4,464.6l-0.8,6.4c0,0,15.7,2.7,14.2,10.7l-32.2-5.5l1.6-14.4L207.4,464.6z"/>
					<path fill="none" stroke="#FFFFFF" stroke-linecap="round" stroke-linejoin="round" stroke-miterlimit="10" d="M210.7,471.8
						c-1.6,0.5-2.9,1.8-3.4,3.4"/>
					<path fill="none" stroke="#FFFFFF" stroke-linecap="round" stroke-linejoin="round" stroke-miterlimit="10" d="M213.6,472.6
						c-1.6,0.5-2.9,1.8-3.4,3.4"/>
					<path fill="none" stroke="#FFFFFF" stroke-linecap="round" stroke-linejoin="round" stroke-miterlimit="10" d="M216.3,473.9
						c-1.6,0.5-2.9,1.8-3.4,3.4"/>
				</g>
			</g>
			<path fill="#2F579F" d="M195.3,324.9c0,0-12.9,75.1-7.8,126.2l25.4,3.4c0,0,23.7-73.4,24.7-128.2L195.3,324.9z"/>
		</g>
		<g>
			<g>
				<path fill="#E3B598" d="M253.9,275.9c0,0,19.5,31.1,31.8,43.2l-11.8,8.8c0,0-26.1-31.5-33.3-49.8L253.9,275.9z"/>
				<path fill="#F99746" d="M227.1,260.7c0,0,18-4.8,29.7,16.4l-15.3,7.5L227.1,260.7z"/>
			</g>
			<path fill="#F99746" d="M219,259.2c0,0-27.3,0.3-25.3,29.3c2,28.9,1.5,36.8,1.5,36.8l49.1,0.6l-1-48
				C243.3,277.8,248.4,258.3,219,259.2z"/>
			<g>
				<g>
					<path fill="#C0D1FF" d="M315.7,334.5l-31.9,59.6l-74.5-39.8l31.9-59.6c0.7-1.3,2.4-1.9,3.7-1.1l69.6,37.2
						C315.9,331.5,316.4,333.1,315.7,334.5z"/>
					<path fill="#9EB3E8" d="M315.7,334.5l-1.7,3.3l-74.5-39.8l1.7-3.3c0.7-1.3,2.4-1.9,3.7-1.1l69.6,37.2
						C315.9,331.5,316.4,333.1,315.7,334.5z"/>
					<g>
						<path fill="#FFFFFF" d="M246.4,298.4c-0.4,0.7-1.3,1-2,0.6c-0.7-0.4-1-1.3-0.6-2c0.4-0.7,1.3-1,2-0.6
							C246.6,296.8,246.8,297.7,246.4,298.4z"/>
						<path fill="#FFFFFF" d="M250.2,300.4c-0.4,0.7-1.3,1-2,0.6c-0.7-0.4-1-1.3-0.6-2c0.4-0.7,1.3-1,2-0.6
							C250.3,298.8,250.6,299.7,250.2,300.4z"/>
						<path fill="#FFFFFF" d="M254,302.5c-0.4,0.7-1.3,1-2,0.6c-0.7-0.4-1-1.3-0.6-2c0.4-0.7,1.3-1,2-0.6
							C254.1,300.9,254.4,301.7,254,302.5z"/>
					</g>
				</g>
				
					<rect x="237.5" y="314" transform="matrix(0.8819 0.4715 -0.4715 0.8819 179.3496 -84.4678)" fill="#FFFFFF" width="41.6" height="3.3"/>
				
					<rect x="234.3" y="319.9" transform="matrix(0.8819 0.4715 -0.4715 0.8819 181.7514 -82.2901)" fill="#FFFFFF" width="41.6" height="3.3"/>
				
					<rect x="230.7" y="326.7" transform="matrix(0.8819 0.4715 -0.4715 0.8819 184.5356 -79.7651)" fill="#FFFFFF" width="41.6" height="3.3"/>
				<g>
					
						<rect x="274" y="331.8" transform="matrix(0.8819 0.4715 -0.4715 0.8819 194.8868 -96.4046)" fill="#FFFFFF" width="31.7" height="17.8"/>
					<polygon fill="#E1EAFF" points="273.6,342.1 286.3,334.1 286.9,346.5 296,341.2 296.9,354.6 					"/>
					
						<ellipse transform="matrix(0.9575 -0.2884 0.2884 0.9575 -85.8458 101.6602)" fill="#E1EAFF" cx="302.1" cy="342.2" rx="2.4" ry="2.4"/>
				</g>
				<g>
					<g>
						
							<rect x="218.4" y="348.9" transform="matrix(0.8819 0.4715 -0.4715 0.8819 192.7118 -69.0106)" fill="#FFFFFF" width="31.4" height="2.2"/>
						
							<rect x="217" y="350" transform="matrix(0.8819 0.4715 -0.4715 0.8819 192.3524 -65.4688)" fill="#FFFFFF" width="19.6" height="2.2"/>
						
							<rect x="215" y="353.8" transform="matrix(0.8819 0.4715 -0.4715 0.8819 193.9188 -64.0486)" fill="#FFFFFF" width="19.6" height="2.2"/>
					</g>
					<g>
						
							<rect x="224.4" y="330.3" transform="matrix(0.8819 0.4715 -0.4715 0.8819 188.3053 -73.197)" fill="#FFFFFF" width="31.7" height="17.8"/>
						<polygon fill="#E1EAFF" points="224,340.6 236.7,332.6 237.4,345 246.5,339.7 247.3,353 						"/>
						<path fill="#EBF5FF" d="M254.7,341.8c-0.6,1.2-2.1,1.6-3.3,1c-1.2-0.6-1.6-2.1-1-3.3c0.6-1.2,2.1-1.6,3.3-1
							C254.9,339.2,255.3,340.7,254.7,341.8z"/>
					</g>
				</g>
				<g>
					<g>
						
							<rect x="257.6" y="369.9" transform="matrix(0.8819 0.4715 -0.4715 0.8819 207.2285 -85.0223)" fill="#FFFFFF" width="31.4" height="2.2"/>
						
							<rect x="256.2" y="371" transform="matrix(0.8819 0.4715 -0.4715 0.8819 206.8702 -81.4806)" fill="#FFFFFF" width="19.6" height="2.2"/>
						
							<rect x="254.2" y="374.8" transform="matrix(0.8819 0.4715 -0.4715 0.8819 208.4366 -80.0604)" fill="#FFFFFF" width="19.6" height="2.2"/>
					</g>
					<g>
						
							<rect x="263.6" y="351.3" transform="matrix(0.8819 0.4715 -0.4715 0.8819 202.8244 -89.209)" fill="#FFFFFF" width="31.7" height="17.8"/>
						<polygon fill="#E1EAFF" points="263.2,361.6 276,353.6 276.6,366 285.7,360.6 286.5,374 						"/>
						
							<ellipse transform="matrix(0.9575 -0.2883 0.2883 0.9575 -91.8847 99.4856)" fill="#E1EAFF" cx="291.8" cy="361.7" rx="2.4" ry="2.4"/>
					</g>
				</g>
			</g>
			<path opacity="0.5" d="M258,336.5c0,0-1.8-3.4-8.7-2.8c-12.4-7.9-31.2-30.1-36.4-36.4l1.9-1.5l-15.3-23.3c0,0-12.2,14.1,1.8,33.8
				l1.3-1c13.1,16.1,39.4,36.8,39.4,36.8l0,0c0.2,0.7,1.5,4.1,4.8,6.4c0,0,0.9,4.4,2.8,3.5c1.4-0.6,1-2,0.7-2.7
				c0.3,0.5,1.1,1.3,2.5,0.9c1.5-0.5,0.6-2,0-2.8c0.6,0.6,1.7,1.4,3.1,0.5c0,0,1.8-1.4-0.3-3.3c0,0,1.6,1.3,2.9-0.1
				c0,0,0.8-2.1-2.3-3.9c0,0,5.1,1.9,5.2-0.3C261.5,338.1,258,336.5,258,336.5z"/>
			<g>
				<g>
					<path fill="#E3B598" d="M211.3,291.4c0,0,23.2,28.9,37.8,38.1l-7.3,8.5c0,0-32.1-25.3-43-41.7L211.3,291.4z"/>
					<path fill="#F99746" d="M199.3,268.4c0,0-12.2,14.1,1.8,33.8l13.4-10.6L199.3,268.4z"/>
				</g>
				<path fill="#E3B598" d="M241.8,337.9c0,0,1.2,4,4.9,6.6c0,0,0.9,4.4,2.8,3.5c1.9-0.9,0.5-3.2,0.5-3.2s0.6,2,2.7,1.3
					c2.1-0.7-0.3-3.3-0.3-3.3s1.4,2.3,3.5,1c0,0,1.8-1.4-0.3-3.3c0,0,1.6,1.3,2.9-0.1c0,0,0.8-2.1-2.3-3.9c0,0,5.1,1.9,5.2-0.3
					c0.1-2.2-3.4-3.8-3.4-3.8s-1.8-3.4-8.7-2.8L241.8,337.9z"/>
			</g>
		</g>
		<g>
			<g>
				<path fill="#E3B598" d="M223.7,265.8L223.7,265.8c3.8,0,6.9-3.1,6.9-6.9v-13.1h-13.7v13.1C216.8,262.7,219.9,265.8,223.7,265.8z
					"/>
				<path fill="#D78B73" d="M216.8,252.7v-6.8h13.7v10.7C228.4,256.8,220.4,257.4,216.8,252.7z"/>
			</g>
			<path fill="#E3B598" d="M214.5,214.1c7.7-8.5,21.8-4.6,24.3,6.6c1.1,5,1.8,11.3,0.6,17.5c-2.5,14.1-11.6,19.8-21.4,14.9
				c-9.9-4.9-10.3-25-6.8-33.7C212,217.5,213.1,215.7,214.5,214.1z"/>
			<path fill="#30376D" d="M209.7,239.2c0,0-2.4-11.4-6.1-16.5c-3.7-5.1,2.2-7.9,6.8-7.7c0,0,5.3-10.6,16.7-9.4
				c11.4,1.2,12.6,3.9,12.9,8.3c0,0,7.7,1.9,0,15.8c0,0,0.2-7.2-3.3-9.5c-3.5-2.3-20.1,5.2-24.5,0.1
				C212.2,220.2,215.4,230.5,209.7,239.2z"/>
			<g>
				<g>
					<g>
						<g>
							<g>
								<g>
									<g>
										<g>
											<g>
												<path fill="#F99746" d="M220.2,236.2c-3-0.7-4.9-3.7-4.2-6.7c0.7-3,3.7-4.9,6.7-4.2c3,0.7,4.9,3.7,4.2,6.7
													C226.2,235,223.2,236.9,220.2,236.2z M222.6,226.1c-2.6-0.6-5.1,1-5.8,3.6c-0.6,2.6,1,5.1,3.6,5.8
													c2.6,0.6,5.1-1,5.8-3.6C226.7,229.3,225.1,226.7,222.6,226.1z"/>
											</g>
										</g>
									</g>
								</g>
							</g>
						</g>
					</g>
				</g>
				<g>
					<g>
						<g>
							<g>
								<g>
									<g>
										<g>
											<g>
												<path fill="#F99746" d="M216.3,230.2c0,0-0.1,0-0.2,0c-3.2-1-5.9,0.5-5.9,0.5c-0.2,0.1-0.4,0-0.6-0.2
													c-0.1-0.2,0-0.4,0.2-0.6c0.1-0.1,3-1.6,6.5-0.5c0.2,0.1,0.3,0.3,0.3,0.5C216.6,230.1,216.5,230.2,216.3,230.2z"/>
											</g>
										</g>
									</g>
								</g>
							</g>
						</g>
					</g>
				</g>
				<g>
					<g>
						<g>
							<g>
								<g>
									<g>
										<g>
											<g>
												<path fill="#F99746" d="M232.7,236c-3-0.7-4.9-3.7-4.2-6.7c0.7-3,3.7-4.9,6.7-4.2c3,0.7,4.9,3.7,4.2,6.7
													C238.7,234.8,235.7,236.7,232.7,236z M235,225.9c-2.6-0.6-5.1,1-5.8,3.6c-0.6,2.6,1,5.1,3.6,5.8c2.6,0.6,5.1-1,5.8-3.6
													C239.2,229,237.6,226.5,235,225.9z"/>
											</g>
										</g>
									</g>
								</g>
							</g>
						</g>
					</g>
				</g>
				<g>
					<g>
						<g>
							<g>
								<g>
									<g>
										<g>
											<g>
												<path fill="#F99746" d="M226.3,229.7c-0.1,0-0.1-0.1-0.2-0.1c-0.1-0.2-0.1-0.4,0.1-0.6c0.1,0,1.3-1,2.8-0.2
													c0.2,0.1,0.3,0.4,0.2,0.6c-0.1,0.2-0.4,0.3-0.6,0.2c-1.1-0.6-1.9,0.1-1.9,0.1C226.6,229.8,226.5,229.8,226.3,229.7z"/>
											</g>
										</g>
									</g>
								</g>
							</g>
						</g>
					</g>
				</g>
			</g>
			<g>
				<path fill="#E3B598" d="M207.3,232.8c0.2,2,2,3.5,4,3.2c2-0.2,3.5-2,3.2-4c-0.2-2-2-3.5-4-3.2
					C208.6,229,207.1,230.8,207.3,232.8z"/>
				<path opacity="0.6" d="M209,232.4c0,1,0.8,1.8,1.8,1.8s1.8-0.8,1.8-1.8s-0.8-1.8-1.8-1.8S209,231.4,209,232.4z"/>
			</g>
		</g>
	</g>
	<g>
		<path fill="#E58741" d="M380.5,386.6V307c0-2.6,2.1-4.6,4.6-4.6h36.4c1.1,0,2.1,0.4,2.9,1l11.6,9.5c0.7,0.6,1.6,0.9,2.4,0.9h44.1
			c2.6,0,4.6,2.1,4.6,4.6v68.4L380.5,386.6z"/>
		<path opacity="0.3" d="M480.9,345.7h-94.1V324c0-3.2,2.6-5.8,5.8-5.8h82.4c3.2,0,5.8,2.6,5.8,5.8V345.7z"/>
		<path fill="#FFFFFF" d="M479.3,345.7h-90.7v-19.9c0-3,2.5-5.5,5.5-5.5h79.7c3,0,5.5,2.5,5.5,5.5V345.7z"/>
		<path fill="#F99746" d="M481.8,392H386c-3.1,0-5.6-2.5-5.6-5.6v-49.9c0-3.1,2.5-5.6,5.6-5.6h95.8c3.1,0,5.6,2.5,5.6,5.6v49.9
			C487.4,389.5,484.9,392,481.8,392z"/>
	</g>
	<g>
		<g>
			<g>
				<g>
					
						<rect x="126.5" y="410.3" transform="matrix(-0.9722 0.2341 -0.2341 -0.9722 373.2972 777.7361)" fill="#162858" width="27.9" height="1.5"/>
					<g>
						<path fill="#E3B598" d="M133,381.6l3.8,16.7c0,0-12.5,4.5-12.8,4c-0.3-0.5-5.9-17.6-5.9-17.6L133,381.6z"/>
						<path fill="#2C4690" d="M137.6,398.1l1.5,5.3c0,0,13.2-3.2,14.8,3.6l-27.2,6.5l-3.6-11.8L137.6,398.1z"/>
						<path fill="none" stroke="#FFFFFF" stroke-linecap="round" stroke-linejoin="round" stroke-miterlimit="10" d="M142.6,402.6
							c-1.1,0.9-1.7,2.4-1.6,3.8"/>
						<path fill="none" stroke="#FFFFFF" stroke-linecap="round" stroke-linejoin="round" stroke-miterlimit="10" d="M145.2,402.3
							c-1.1,0.9-1.7,2.4-1.6,3.8"/>
						<path fill="none" stroke="#FFFFFF" stroke-linecap="round" stroke-linejoin="round" stroke-miterlimit="10" d="M147.7,402.4
							c-1.1,0.9-1.7,2.4-1.6,3.8"/>
					</g>
				</g>
				<path fill="#29458C" d="M137.2,390.3l-19.3,3.7c0,0-17.1-55.6-18.7-61.1c0-0.2-0.1-0.4-0.2-0.7c-1.1-2.7-5-9.8-9.8-18.2
					c-10.1-17.7-24-41.3-24-41.3l46.7,0.8c0,0,14.1,46.3,17.7,57.6C133.1,342.5,137.2,390.3,137.2,390.3z"/>
			</g>
			<path opacity="0.5" d="M107.2,289.4c0,0-2.7,22.7-8.2,42.8c-1.1-2.7-5-9.8-9.8-18.2L107.2,289.4z"/>
		</g>
		<g>
			<g>
				
					<rect x="43.8" y="415.6" transform="matrix(-0.9033 -0.4289 0.4289 -0.9033 -68.6744 817.3094)" fill="#162858" width="27.9" height="1.5"/>
				<g>
					<path fill="#E3B598" d="M70.4,388.8l-7.5,15.4c0,0-12.6-4.3-12.5-4.9c0.1-0.6,6.5-17.4,6.5-17.4L70.4,388.8z"/>
					<path fill="#2C4690" d="M63.6,404.5l-2.2,5.1c0,0,12.3,5.8,9.2,12.1l-25.2-12l4.6-11.5L63.6,404.5z"/>
					<path fill="none" stroke="#FFFFFF" stroke-linecap="round" stroke-linejoin="round" stroke-miterlimit="10" d="M64.7,411.2
						c-1.4,0.1-2.8,0.8-3.6,2"/>
					<path fill="none" stroke="#FFFFFF" stroke-linecap="round" stroke-linejoin="round" stroke-miterlimit="10" d="M66.9,412.5
						c-1.4,0.1-2.8,0.8-3.6,2"/>
					<path fill="none" stroke="#FFFFFF" stroke-linecap="round" stroke-linejoin="round" stroke-miterlimit="10" d="M68.8,414.2
						c-1.4,0.1-2.8,0.8-3.6,2"/>
				</g>
			</g>
			<path fill="#2F579F" d="M65.2,272.8L51,389.6l17.9,8c0,0,39-86.7,41.4-124.3C110.4,271.1,65.2,272.8,65.2,272.8z"/>
		</g>
		<g>
			<path fill="#AEC4FF" d="M65.1,273.1c0,0,0.3-4.3-0.4-18.4c-0.2-4.5-0.6-10-1-16.7c-0.4-6.2,0.5-11,2.3-14.7
				c6.1-13,21.8-13.2,21.8-13.2c28-0.9,23.2,17.7,23.2,17.7l1,45.8L65.1,273.1z"/>
			<g>
				<path fill="#E3B598" d="M118.7,236.4c0,0,0.3,35,5.8,50.4l-7.9,1.6c0,0-11.5-37-10.1-55.7L118.7,236.4z"/>
				<path fill="#AEC4FF" d="M102.1,212c0,0,17.4,3.4,18.5,26.4h-16.3L102.1,212z"/>
				<path fill="#E3B598" d="M116.6,288.4c0,0-0.8,2.7,0.3,5.5c0,0-1.1,2.8,0.3,3c1.4,0.2,1.5-1.6,1.5-1.6s-0.4,1.4,1,1.8s1-2,1-2
					s0,1.8,1.6,1.9c0,0,1.5-0.1,1-2c0,0,0.4,1.3,1.7,1c0,0,1.2-0.9,0.1-3.1c0,0,2.2,3,3.1,1.8c0.9-1.2-0.5-3.4-0.5-3.4
					s0.2-2.6-3.9-4.8L116.6,288.4z"/>
			</g>
			<g>
				<path fill="#F99746" d="M133.5,234l15.7,42.9c1,2.7-0.4,5.8-3.1,6.8L109.7,297c-2.7,1-5.8-0.4-6.8-3.1l-18.1-49.4
					c-1-2.7,0.4-5.8,3.1-6.8l30.1-11l0,0.1L133.5,234z"/>
				<polygon fill="#E2843D" points="118,226.7 122.1,238.2 133.5,234 				"/>
				<polygon opacity="0.2" points="122.1,238.2 134,235.5 133.5,234 				"/>
				<path fill="#E2843D" d="M146.3,268.9l2.9,8c1,2.7-0.4,5.8-3.1,6.8L109.7,297c-2.7,1-5.8-0.4-6.8-3.1l-2.9-8L146.3,268.9z"/>
				<g>
					<path fill="#FFFFFF" d="M122.9,288.9c-0.2,0.3-0.9,0.7-1.8,1c-2.6,1-4.5-0.2-5.3-2.3c-0.9-2.6,0.4-4.6,2.6-5.5
						c0.9-0.3,1.6-0.4,2-0.3l0.1,1.5c-0.4,0-0.9,0-1.5,0.2c-1.3,0.5-2.1,1.7-1.5,3.4c0.6,1.5,1.8,2.1,3.3,1.6c0.5-0.2,1-0.5,1.3-0.8
						L122.9,288.9z"/>
					<path fill="#FFFFFF" d="M123.5,287c0.5,0.1,1.3,0,2.1-0.2c0.8-0.3,1.1-0.8,0.9-1.2c-0.2-0.5-0.6-0.6-1.6-0.6
						c-1.4,0-2.5-0.4-2.9-1.5c-0.5-1.3,0.3-2.6,2-3.3c0.9-0.3,1.5-0.4,2.1-0.3l0.1,1.5c-0.3,0-1,0-1.7,0.2c-0.7,0.3-1,0.7-0.8,1.1
						c0.2,0.5,0.7,0.5,1.8,0.5c1.5,0,2.4,0.5,2.8,1.5c0.5,1.3-0.1,2.7-2.2,3.4c-0.9,0.3-1.8,0.4-2.3,0.3L123.5,287z"/>
					<path fill="#FFFFFF" d="M129.6,284.7c0.5,0.1,1.3,0,2-0.2c0.8-0.3,1.1-0.8,0.9-1.2c-0.2-0.5-0.6-0.6-1.6-0.6
						c-1.4,0-2.5-0.4-2.9-1.5c-0.5-1.3,0.3-2.6,2-3.3c0.9-0.3,1.5-0.4,2.1-0.3l0.1,1.5c-0.3,0-1,0-1.7,0.2c-0.7,0.3-1,0.7-0.8,1.1
						c0.2,0.5,0.7,0.5,1.8,0.5c1.5,0,2.4,0.5,2.8,1.5c0.5,1.3-0.1,2.7-2.2,3.4c-0.9,0.3-1.8,0.4-2.3,0.3L129.6,284.7z"/>
				</g>
				<g>
					<path fill="#FFFFFF" d="M102.7,260.1c1.6-0.7,1.4-1.6,1.2-2.3c-0.2-0.6-0.5-1.2-0.8-1.8c-0.3-0.6-0.6-1.2-0.8-1.8
						c-0.8-2.2,0.2-3.7,2.4-4.5l0.8-0.3l0.7,2l-0.4,0.2c-1,0.4-1.2,1.2-0.8,2.2c0.2,0.4,0.4,0.8,0.6,1.3c0.2,0.5,0.5,1,0.7,1.6
						c0.7,1.8,0.2,2.7-1,3.5l0,0c1.4-0.2,2.4,0.2,3,2c0.2,0.6,0.4,1.2,0.5,1.7c0.1,0.5,0.2,1,0.4,1.4c0.4,1,1,1.5,2.1,1.2l0.4-0.2
						l0.7,2l-0.8,0.3c-2.1,0.8-3.9,0.5-4.7-1.9c-0.2-0.6-0.4-1.2-0.5-1.9c-0.2-0.7-0.3-1.3-0.6-1.9c-0.2-0.7-0.7-1.5-2.4-0.9
						L102.7,260.1z"/>
					<path fill="#FFFFFF" d="M126.1,253.5c-1.6,0.7-1.4,1.6-1.2,2.3c0.2,0.6,0.5,1.2,0.8,1.8c0.3,0.6,0.6,1.2,0.8,1.8
						c0.9,2.3-0.3,3.7-2.4,4.5l-0.8,0.3l-0.7-2l0.4-0.2c1.1-0.4,1.2-1.2,0.8-2.2c-0.1-0.4-0.4-0.8-0.6-1.3c-0.2-0.5-0.5-1-0.7-1.6
						c-0.7-1.8-0.2-2.7,1-3.5l0,0c-1.4,0.2-2.4-0.2-3-2c-0.2-0.6-0.4-1.2-0.5-1.7c-0.1-0.5-0.2-1-0.4-1.4c-0.4-1-1-1.5-2-1.1
						l-0.4,0.2l-0.7-2l0.8-0.3c2.2-0.8,3.9-0.3,4.7,1.9c0.2,0.6,0.4,1.2,0.6,1.9c0.2,0.7,0.3,1.3,0.5,1.9c0.3,0.7,0.7,1.5,2.4,1
						L126.1,253.5z"/>
				</g>
			</g>
			<path opacity="0.5" d="M105,245.3c-1.9,2.4-4.6,3.1-4.6,3.1s-13.8,19.5-28.6,12.4c-3.3-1.6-5.5-3.7-7.1-6c-0.2-4.5-0.6-10-1-16.7
				c-0.4-6.2,0.5-11,2.3-14.7c5.2-6.8,12.1-7.6,12.1-7.6l-1.5,25.1h-0.9c4.5,14.2,17.4,3.9,19.3,2.3c-0.2-4.7,2.2-5.8,2.2-5.8
				s1.2-2.3,2.7-2.2c1.4,0.2,0.2,3.3,0.1,3.5c1.4-2,2.7-1.5,2.7-1.5c0.8,0.9,0.1,1.8,0,1.9c1.4-1.3,2.2-0.1,2.2-0.1
				c0.5,1,0,1.7-0.5,2.1c0.6-0.4,1.6-0.9,1.9,0.1c0.3,1-0.3,1.5-0.7,1.7c0.5-0.2,1.5-0.4,1.9,0.6C107.9,244.8,105,245.3,105,245.3z"
				/>
			<g>
				<path fill="#E3B598" d="M62.5,233.6c0,0-6.1,17.6,8.7,24.8c14.8,7.2,28.6-12.4,28.6-12.4l-5.2-5.4c0,0-16,14.4-20.1-4.3
					L62.5,233.6z"/>
				<path fill="#AEC4FF" d="M78.4,212c0,0-17.4,3.4-18.5,26.4h16.3L78.4,212z"/>
				<path fill="#E3B598" d="M99.9,246c0,0,2.8-0.7,4.6-3.1c0,0,3-0.5,2.5-1.8c-0.5-1.3-2.2-0.5-2.2-0.5s1.4-0.3,1-1.8
					c-0.4-1.4-2.3,0.1-2.3,0.1s1.6-0.9,0.8-2.3c0,0-0.9-1.3-2.3,0.1c0,0,1-1,0-2c0,0-1.4-0.6-2.7,1.5c0,0,1.4-3.4-0.1-3.6
					c-1.5-0.2-2.7,2.2-2.7,2.2s-2.4,1.1-2.2,5.8L99.9,246z"/>
			</g>
			<g>
				<g>
					<g>
						<path fill="#30376D" d="M81.3,160.5c-0.1,0.7-0.3,1.4-0.5,2c-0.9,3.2-2.9,6.3-5.5,8.3c-1.4,1.1-3.6,1.6-5.8,1.6
							c-0.7,0-1.3,0-2-0.1c-1.3-0.1-2.5-0.3-3.5-0.7c-2.8-0.9-5.2-3.2-5.3-6.1c0-3,2.5-5.3,5-6.9c3.3-2.1,7-3.5,10.9-4.2
							c1.9-0.3,4.1-0.4,5.5,1C81.5,156.7,81.6,158.8,81.3,160.5z"/>
					</g>
					<path fill="#F99746" d="M80.8,162.5c-0.9,3.2-2.9,6.3-5.5,8.3c-1.4,1.1-3.6,1.6-5.8,1.6c-0.7,0-1.3,0-2-0.1
						c0.5-2.3,2-4.8,3.4-6.2c2.2-2.2,5.2-3.6,8.4-3.7C79.9,162.5,80.4,162.5,80.8,162.5z"/>
				</g>
				<path fill="#30376D" d="M77.4,189.9c-4.8-0.4-8.7-5-9.1-9.8c-0.4-4.8,2.3-9.6,6.2-12.5c3.9-2.9,8.8-4.1,13.7-4.3
					c5.3-0.2,11.3,1.2,14.1,5.7c3.6,5.8-0.2,14-6.2,17.3c-6,3.4-13.2,3.3-20.1,3.2"/>
				<g>
					<path fill="#E3B598" d="M87.9,217.2L87.9,217.2c3.3,0,5.9-2.6,5.9-5.9V200H82.1v11.2C82.1,214.5,84.7,217.2,87.9,217.2z"/>
					<path fill="#D78B73" d="M82.1,205.9V200h11.8v9.2C92,209.4,85.2,209.9,82.1,205.9z"/>
				</g>
				<path fill="#E3B598" d="M80.1,172.9c6.6-7.3,18.7-3.9,20.8,5.7c0.9,4.3,1.5,9.7,0.5,15c-2.2,12.1-9.9,17-18.4,12.8
					c-8.5-4.2-8.8-21.4-5.8-28.9C77.9,175.8,78.9,174.2,80.1,172.9z"/>
				<path fill="#30376D" d="M93.6,173.6c-2.8,5.7-7.8,10.4-13.7,12.7c-1.6,0.7-3.4,1.1-5.1,0.7c-2.2-0.6-3.9-2.7-4.2-5
					c-0.3-2.3,0.5-4.6,1.9-6.5c1.4-1.8,3.3-3.3,5.3-4.5c3.1-1.9,6.5-3.4,10.1-3.8c3.6-0.4,7.4,0.3,10.3,2.5c1.4,1,2.5,2.4,3.2,3.9
					c0.5,1.1,1.6,3.6,0.8,4.8C100.6,180.7,94.8,174.8,93.6,173.6z"/>
				<g>
					<path fill="#E3B598" d="M74,188.8c0.2,1.7,1.7,3,3.4,2.8c1.7-0.2,3-1.7,2.8-3.4c-0.2-1.7-1.7-3-3.4-2.8
						C75,185.6,73.8,187.1,74,188.8z"/>
					<path opacity="0.6" d="M75.4,188.5c0,0.8,0.7,1.5,1.5,1.5s1.5-0.7,1.5-1.5s-0.7-1.5-1.5-1.5S75.4,187.7,75.4,188.5z"/>
				</g>
			</g>
		</g>
	</g>
	<g>
		<g>
			<path fill="#2F579F" d="M309.8,429v10.4c0,1,0.6,1.8,1.5,2.1c3.8,1.1,14.2,3.7,27.2,3.7c12.8,0,21.5-2.5,24.7-3.6
				c0.9-0.3,1.4-1.1,1.5-2l0.1-10.5H309.8z"/>
			<path fill="#3563A8" d="M364.9,429c0,2.2-12.3,4-27.5,4c-15.2,0-27.5-1.8-27.5-4s12.3-4,27.5-4
				C352.5,424.9,364.9,426.7,364.9,429z"/>
			<path fill="#2F579F" d="M359.1,428.8c0,1.7-9.6,3.1-21.5,3.1s-21.5-1.4-21.5-3.1c0-1.7,9.6-3.1,21.5-3.1S359.1,427.1,359.1,428.8
				z"/>
		</g>
		<path fill="#29458C" d="M359,431.5c-14.3,2.2-28.8,2.2-43.6-0.1v-10.1H359L359,431.5z"/>
		<g>
			<path fill="#2F579F" d="M309.8,410.8v10.4c0,1,0.6,1.8,1.5,2.1c3.8,1.1,14.2,3.7,27.2,3.7c12.8,0,21.5-2.5,24.7-3.6
				c0.9-0.3,1.4-1.1,1.5-2l0.1-10.5H309.8z"/>
			<path fill="#3563A8" d="M364.9,410.8c0,2.2-12.3,4-27.5,4c-15.2,0-27.5-1.8-27.5-4s12.3-4,27.5-4
				C352.5,406.8,364.9,408.6,364.9,410.8z"/>
			<path fill="#2F579F" d="M359.1,410.7c0,1.7-9.6,3.1-21.5,3.1s-21.5-1.4-21.5-3.1c0-1.7,9.6-3.1,21.5-3.1S359.1,408.9,359.1,410.7
				z"/>
		</g>
		<path fill="#29458C" d="M359,413.3c-14.3,2.2-28.8,2.2-43.6-0.1v-10.1H359L359,413.3z"/>
		<g>
			<path fill="#2F579F" d="M309.8,392.6V403c0,1,0.6,1.8,1.5,2.1c3.8,1.1,14.2,3.7,27.2,3.7c12.8,0,21.5-2.5,24.7-3.6
				c0.9-0.3,1.4-1.1,1.5-2l0.1-10.5H309.8z"/>
			<path fill="#3563A8" d="M364.9,392.6c0,2.2-12.3,4-27.5,4c-15.2,0-27.5-1.8-27.5-4s12.3-4,27.5-4
				C352.5,388.6,364.9,390.4,364.9,392.6z"/>
			<path fill="#2F579F" d="M359.1,392.5c0,1.7-9.6,3.1-21.5,3.1s-21.5-1.4-21.5-3.1c0-1.7,9.6-3.1,21.5-3.1S359.1,390.8,359.1,392.5
				z"/>
		</g>
		<path fill="#29458C" d="M359,395.1c-14.3,2.2-28.8,2.2-43.6-0.1V385H359L359,395.1z"/>
		<g>
			<path fill="#2F579F" d="M309.8,375.9v10.4c0,1,0.6,1.8,1.5,2.1c3.8,1.1,14.2,3.7,27.2,3.7c12.8,0,21.5-2.5,24.7-3.6
				c0.9-0.3,1.4-1.1,1.5-2l0.1-10.5H309.8z"/>
			<path fill="#3563A8" d="M364.9,375.9c0,2.2-12.3,4-27.5,4c-15.2,0-27.5-1.8-27.5-4c0-2.2,12.3-4,27.5-4
				C352.5,371.9,364.9,373.7,364.9,375.9z"/>
			<ellipse fill="#2F579F" cx="337.6" cy="375.8" rx="21.5" ry="3.1"/>
		</g>
	</g>
	<g>
		<g>
			<g>
				
					<rect x="684.4" y="457.9" transform="matrix(0.631 -0.7758 0.7758 0.631 -97.439 712.738)" fill="#162858" width="32.1" height="1.7"/>
				<g>
					<path fill="#E3B598" d="M673.8,436.4l15.4,12.2c0,0,10.9-10.7,10.5-11.3c-0.4-0.6-15.3-14.9-15.3-14.9L673.8,436.4z"/>
					<path fill="#2C4690" d="M688.5,449.4l4.8,4.2c0,0-9.9,12.1-3.6,17.1l20.2-24.9l-10.5-9.6L688.5,449.4z"/>
					<path fill="none" stroke="#FFFFFF" stroke-linecap="round" stroke-linejoin="round" stroke-miterlimit="10" d="M690.7,456.8
						c1.5-0.6,3.3-0.5,4.7,0.3"/>
					<path fill="none" stroke="#FFFFFF" stroke-linecap="round" stroke-linejoin="round" stroke-miterlimit="10" d="M689.1,459.3
						c1.5-0.6,3.3-0.5,4.7,0.3"/>
					<path fill="none" stroke="#FFFFFF" stroke-linecap="round" stroke-linejoin="round" stroke-miterlimit="10" d="M687.9,461.9
						c1.5-0.6,3.3-0.5,4.7,0.3"/>
				</g>
			</g>
			<path fill="#29458C" d="M677.3,321.9c0,0-13.4,32.1-15.6,68.3c-0.7,11.7,24.2,25.6,34.7,40.5l-17.1,14.6c0,0-54.2-36.8-51.1-66.7
				c2.4-22.8,5.6-45.3,11-56.1L677.3,321.9z"/>
		</g>
		<g>
			<g>
				
					<rect x="649.6" y="471.4" transform="matrix(0.9999 -1.416145e-02 1.416145e-02 0.9999 -6.6204 9.4738)" fill="#162858" width="32.1" height="1.7"/>
				<g>
					<path fill="#E3B598" d="M665.7,437.4l0.5,19.7c0,0,15.2,1.5,15.4,0.8c0.2-0.7,1.6-21.2,1.6-21.2L665.7,437.4z"/>
					<path fill="#2C4690" d="M665.2,457l-0.2,6.4c0,0-15.6,0.2-15.4,8.2l32.1-0.5l0.6-14.2L665.2,457z"/>
					<path fill="none" stroke="#FFFFFF" stroke-linecap="round" stroke-linejoin="round" stroke-miterlimit="10" d="M660.9,463.5
						c1.4,0.7,2.5,2.2,2.8,3.8"/>
					<path fill="none" stroke="#FFFFFF" stroke-linecap="round" stroke-linejoin="round" stroke-miterlimit="10" d="M657.9,463.8
						c1.4,0.7,2.5,2.2,2.8,3.8"/>
					<path fill="none" stroke="#FFFFFF" stroke-linecap="round" stroke-linejoin="round" stroke-miterlimit="10" d="M655.2,464.6
						c1.4,0.7,2.5,2.2,2.8,3.8"/>
				</g>
			</g>
			<path fill="#2F579F" d="M687.4,321.6c0,0-8.5,32.2-6.4,68.6c1.1,19.3,5.2,39.1,6.2,57h-24.1c0,0-10.2-23.4-16.9-53.8
				c-4.9-22.3,0.2-47.7-0.2-70.5L687.4,321.6z"/>
		</g>
		<g>
			<g>
				<path fill="#E3B598" d="M624.7,269.5c0,0-11.7,33.9-21.3,47.8l9.1,4.9c0,0,21.7-34.1,25.3-53.1L624.7,269.5z"/>
				<path fill="#AEC4FF" d="M647.7,249.8c0,0-18.2-1.3-25.6,21.3l16.2,4.4L647.7,249.8z"/>
			</g>
			<path fill="#AEC4FF" d="M655.2,248.5c0,0,35.6-3.5,34.3,36.2c-0.9,28.4-2.2,36.8-2.2,36.8l-48.3,1l-5.6-47
				C633.5,275.6,625.5,249,655.2,248.5z"/>
			<g>
				<path fill="#F99746" d="M632.3,290.5l23.8,46.7c1.5,3,0.3,6.6-2.6,8.1l-39.7,20.2c-3,1.5-6.6,0.3-8.1-2.7L578.3,309
					c-1.5-3-0.3-6.6,2.7-8.1l32.8-16.7l0.1,0.1L632.3,290.5z"/>
				<polygon fill="#E2843D" points="613.7,284.2 620,296.8 632.3,290.5 				"/>
				<polygon opacity="0.2" points="620,296.8 633.1,292.1 632.3,290.5 				"/>
				<path fill="#E2843D" d="M651.7,328.5l4.4,8.7c1.5,3,0.3,6.6-2.6,8.1l-39.7,20.2c-3,1.5-6.6,0.3-8.1-2.7l-4.4-8.7L651.7,328.5z"
					/>
				<g>
					<path fill="#FFFFFF" d="M615.3,350.6l1.6,3.1l3-1.5l-1.6-3.1l1.8-0.9l4.2,8.2l-1.8,0.9l-1.7-3.4l-3,1.5l1.7,3.4l-1.8,0.9
						l-4.2-8.2L615.3,350.6z"/>
					<path fill="#FFFFFF" d="M624.2,348l-2.2,1.1l-0.8-1.6l6.3-3.2l0.8,1.6l-2.2,1.1l3.4,6.6l-1.8,0.9L624.2,348z"/>
					<path fill="#FFFFFF" d="M637.9,345.4c-0.5-1-1.2-2.1-1.8-3.3l0,0c0.3,1.2,0.5,2.5,0.7,3.6l0.6,3.7l-1.4,0.7l-2.5-2.7
						c-0.8-0.8-1.6-1.9-2.4-2.8l0,0c0.5,1.1,1.1,2.4,1.6,3.4l1.4,3.2l-1.7,0.9l-3.6-8.4l2.5-1.3l2.2,2.3c0.7,0.8,1.5,1.7,2.2,2.6
						l0,0c-0.3-1.1-0.5-2.3-0.7-3.3l-0.5-3.2l2.4-1.2l4.6,7.9l-1.8,0.9L637.9,345.4z"/>
					<path fill="#FFFFFF" d="M638.7,338.7l1.8-0.9l3.4,6.6l3.2-1.7l0.8,1.6l-5.1,2.6L638.7,338.7z"/>
				</g>
				<g>
					<path fill="#FFFFFF" d="M596.8,329l9.4-12l1.4,2.7l-7.2,8.8l0,0.1l11.4-0.7l1.4,2.7l-15.2,0.6L596.8,329z"/>
					<path fill="#FFFFFF" d="M615.5,330.7l-4-21.3l2.6-1.3l4,21.3L615.5,330.7z"/>
					<path fill="#FFFFFF" d="M633.9,313l-9.4,11.9l-1.4-2.7l7.4-8.9l0-0.1l-11.6,0.8l-1.4-2.7l15.2-0.6L633.9,313z"/>
				</g>
			</g>
			<path opacity="0.5" d="M679.9,257.9l-13.5,23.7l1.9,1.3c-4.8,6.3-22,28-33.6,36.5c-6.8-0.7-8.6,2.7-8.6,2.7s-3.5,1.6-3.3,3.8
				c0.1,2.2,5.1,0.3,5.1,0.3c-3,1.8-2.3,3.8-2.3,3.8c1.3,1.4,2.8,0.1,2.8,0.1c-2.1,1.9-0.3,3.3-0.3,3.3c1.4,0.8,2.5,0,3-0.5
				c-0.6,0.8-1.5,2.3,0,2.8c1.4,0.5,2.1-0.3,2.4-0.9c-0.3,0.7-0.6,2.1,0.7,2.7c1.8,0.8,2.8-3.4,2.8-3.4c3.6-2.5,4.8-6.5,4.8-6.5l0,0
				c1.8-1.5,25.5-21.6,37-37.4l1.4,0.9C692.7,270.9,679.9,257.9,679.9,257.9z"/>
			<g>
				<g>
					<path fill="#E3B598" d="M669.1,279.1c0,0-21.3,28.3-34.9,38.2l7,8.3c0,0,30.8-25.8,40.5-42.5L669.1,279.1z"/>
					<path fill="#AEC4FF" d="M679.5,255.8c0,0,12.8,13,0.3,33.2l-13.8-9.5L679.5,255.8z"/>
				</g>
				<path fill="#E3B598" d="M641.3,325.5c0,0-1.2,3.9-4.8,6.5c0,0-0.9,4.3-2.8,3.4c-1.8-0.8-0.5-3.2-0.5-3.2s-0.6,2-2.6,1.3
					c-2.1-0.7,0.3-3.3,0.3-3.3s-1.4,2.2-3.4,1c0,0-1.8-1.3,0.3-3.3c0,0-1.5,1.3-2.8-0.1c0,0-0.7-2,2.3-3.8c0,0-5,1.9-5.1-0.3
					c-0.1-2.2,3.3-3.8,3.3-3.8s1.8-3.4,8.6-2.7L641.3,325.5z"/>
			</g>
		</g>
		<g>
			<g>
				<path fill="#E3B598" d="M655.3,257.3L655.3,257.3c-3.7,0-6.8-3-6.8-6.8v-12.9h13.5v12.9C662.1,254.3,659.1,257.3,655.3,257.3z"
					/>
				<path fill="#D78B73" d="M662.1,244.4v-6.7h-13.5v10.5C650.6,248.5,658.5,249,662.1,244.4z"/>
			</g>
			<path fill="#E3B598" d="M664.3,206.5c-7.5-8.4-21.5-4.5-23.9,6.5c-1.1,4.9-1.7,11.1-0.6,17.2c2.5,13.8,11.4,19.5,21.1,14.7
				c9.7-4.8,10.1-24.6,6.7-33.1C666.8,209.8,665.7,208,664.3,206.5z"/>
			<path fill="#30376D" d="M669.1,231.1c0,0,0.5-9.8,4.1-14.8c3.7-5-0.6-8.9-5.1-8.7c0,0-10.5-18.4-21.7-17.2c-0.1,0-0.2,0-0.3,0
				c-10,1.1-16,11.8-12,21c1.2,2.8,2.9,6.2,5.2,10.3c0,0-0.2-7.1,3.2-9.4c3.4-2.3,19.8,5.1,24.1,0.1
				C666.6,212.5,663.4,222.6,669.1,231.1z"/>
			<g>
				<path fill="#E3B598" d="M671.4,224.8c-0.2,2-2,3.4-3.9,3.2c-2-0.2-3.4-2-3.2-3.9c0.2-2,2-3.4,3.9-3.2
					C670.2,221.1,671.6,222.8,671.4,224.8z"/>
				<path opacity="0.6" d="M669.8,224.4c0,1-0.8,1.7-1.7,1.7c-1,0-1.7-0.8-1.7-1.7c0-1,0.8-1.7,1.7-1.7
					C669,222.7,669.8,223.5,669.8,224.4z"/>
			</g>
		</g>
	</g>
	<g>
		<g>
			<g>
				<path fill="#D2DDF0" d="M554.4,399.1l24.6,44.6l-55.8,30.7l-24.6-44.6c-0.6-1-0.2-2.3,0.8-2.8l52.1-28.7
					C552.6,397.7,553.9,398.1,554.4,399.1z"/>
				<path fill="#C7D1E0" d="M554.4,399.1l1.3,2.4L500,432.2l-1.3-2.4c-0.6-1-0.2-2.3,0.8-2.8l52.1-28.7
					C552.6,397.7,553.9,398.1,554.4,399.1z"/>
				<g>
					<path fill="#FFFFFF" d="M503.2,428c0.3,0.5,0.1,1.2-0.4,1.5c-0.5,0.3-1.2,0.1-1.5-0.4s-0.1-1.2,0.4-1.5S502.9,427.4,503.2,428z
						"/>
					<path fill="#FFFFFF" d="M506,426.4c0.3,0.5,0.1,1.2-0.4,1.5c-0.5,0.3-1.2,0.1-1.5-0.4c-0.3-0.5-0.1-1.2,0.4-1.5
						S505.7,425.9,506,426.4z"/>
					<path fill="#FFFFFF" d="M508.8,424.9c0.3,0.5,0.1,1.2-0.4,1.5c-0.5,0.3-1.2,0.1-1.5-0.4c-0.3-0.5-0.1-1.2,0.4-1.5
						C507.9,424.1,508.6,424.3,508.8,424.9z"/>
				</g>
			</g>
			
				<rect x="501.1" y="418.8" transform="matrix(0.8762 -0.4819 0.4819 0.8762 -137.1575 307.6766)" fill="#FFFFFF" width="58.6" height="4.1"/>
			<g>
				
					<rect x="504.1" y="425.2" transform="matrix(0.8762 -0.4819 0.4819 0.8762 -139.4662 309.8109)" fill="#FFFFFF" width="58.7" height="2.4"/>
				
					<rect x="506" y="428.7" transform="matrix(0.8762 -0.4819 0.4819 0.8762 -140.9283 311.184)" fill="#FFFFFF" width="58.7" height="2.4"/>
				
					<rect x="507.9" y="432.3" transform="matrix(0.8762 -0.4819 0.4819 0.8762 -142.3905 312.5578)" fill="#FFFFFF" width="58.7" height="2.4"/>
			</g>
			<g>
				
					<rect x="517.8" y="450.6" transform="matrix(0.8762 -0.4819 0.4819 0.8762 -149.8381 319.4719)" fill="#FFFFFF" width="58.4" height="1.7"/>
				
					<rect x="519.2" y="453.1" transform="matrix(0.8762 -0.4819 0.4819 0.8762 -150.8766 320.4476)" fill="#FFFFFF" width="58.4" height="1.7"/>
				
					<rect x="520.6" y="455.6" transform="matrix(0.8762 -0.4819 0.4819 0.8762 -151.9153 321.4243)" fill="#FFFFFF" width="58.4" height="1.7"/>
			</g>
			
				<rect x="515.7" y="445.7" transform="matrix(0.8762 -0.4819 0.4819 0.8762 -153.6172 308.1772)" fill="#FFFFFF" width="14.8" height="14.8"/>
			
				<rect x="530.7" y="435.1" transform="matrix(0.8762 -0.4819 0.4819 0.8762 -146.0726 316.2095)" fill="#FFFFFF" width="23.7" height="14.8"/>
			
				<rect x="554" y="424.7" transform="matrix(0.8762 -0.4819 0.4819 0.8762 -138.7387 324.014)" fill="#FFFFFF" width="14.8" height="14.8"/>
		</g>
		<g>
			<g>
				<path fill="#E0EBFF" d="M548.1,399.3l25.3,46L516,476.9l-25.3-46c-0.6-1-0.2-2.3,0.8-2.9l53.7-29.5
					C546.3,397.9,547.6,398.3,548.1,399.3z"/>
				<path fill="#D5DFEF" d="M548.1,399.3l1.4,2.5L492,433.4l-1.4-2.5c-0.6-1-0.2-2.3,0.8-2.9l53.7-29.5
					C546.3,397.9,547.6,398.3,548.1,399.3z"/>
				<g>
					<path fill="#FFFFFF" d="M495.3,429.1c0.3,0.5,0.1,1.2-0.4,1.5c-0.5,0.3-1.2,0.1-1.5-0.4c-0.3-0.5-0.1-1.2,0.4-1.5
						C494.3,428.3,495,428.5,495.3,429.1z"/>
					<path fill="#FFFFFF" d="M498.2,427.5c0.3,0.5,0.1,1.2-0.4,1.5c-0.5,0.3-1.2,0.1-1.5-0.4c-0.3-0.5-0.1-1.2,0.4-1.5
						C497.2,426.7,497.9,426.9,498.2,427.5z"/>
					<path fill="#FFFFFF" d="M501.1,425.9c0.3,0.5,0.1,1.2-0.4,1.5c-0.5,0.3-1.2,0.1-1.5-0.4c-0.3-0.5-0.1-1.2,0.4-1.5
						C500.2,425.1,500.8,425.3,501.1,425.9z"/>
				</g>
			</g>
			
				<rect x="493.1" y="419.6" transform="matrix(0.8762 -0.4819 0.4819 0.8762 -138.4537 304.3924)" fill="#FFFFFF" width="60.4" height="4.2"/>
			<g>
				
					<rect x="496.2" y="426.2" transform="matrix(0.8762 -0.4819 0.4819 0.8762 -140.8331 306.5922)" fill="#FFFFFF" width="60.5" height="2.5"/>
				
					<rect x="498.2" y="429.9" transform="matrix(0.8762 -0.4819 0.4819 0.8762 -142.3397 308.0064)" fill="#FFFFFF" width="60.5" height="2.5"/>
				
					<rect x="500.2" y="433.5" transform="matrix(0.8762 -0.4819 0.4819 0.8762 -143.8468 309.4231)" fill="#FFFFFF" width="60.5" height="2.5"/>
			</g>
			<g>
				
					<rect x="510.4" y="452.4" transform="matrix(0.8762 -0.4819 0.4819 0.8762 -151.5223 316.5495)" fill="#FFFFFF" width="60.2" height="1.8"/>
				
					<rect x="511.8" y="454.9" transform="matrix(0.8762 -0.4819 0.4819 0.8762 -152.5923 317.5535)" fill="#FFFFFF" width="60.2" height="1.8"/>
				
					<rect x="513.2" y="457.5" transform="matrix(0.8762 -0.4819 0.4819 0.8762 -153.6626 318.559)" fill="#FFFFFF" width="60.2" height="1.8"/>
			</g>
			
				<rect x="508.2" y="447.4" transform="matrix(0.8762 -0.4819 0.4819 0.8762 -155.4171 304.9091)" fill="#FFFFFF" width="15.3" height="15.3"/>
			
				<rect x="523.7" y="436.4" transform="matrix(0.8762 -0.4819 0.4819 0.8762 -147.6418 313.188)" fill="#FFFFFF" width="24.4" height="15.3"/>
			
				<rect x="547.7" y="425.7" transform="matrix(0.8762 -0.4819 0.4819 0.8762 -140.0834 321.2306)" fill="#FFFFFF" width="15.3" height="15.3"/>
		</g>
		<g>
			<rect x="507.4" y="433.7" fill="#F99746" width="70" height="50.6"/>
			<rect x="487.7" y="433.7" fill="#E58741" width="20.2" height="50.6"/>
			<polygon fill="#FFA664" points="507.9,433.7 512.5,450.4 583.8,450.4 577.4,433.7 			"/>
			<polygon fill="#F99746" points="507.9,433.7 502.6,450.3 481.9,450.3 487.8,433.7 			"/>
		</g>
	</g>
</g>
</svg>
