<?xml version="1.0" encoding="utf-8"?>
<!-- Generator: Adobe Illustrator 25.2.3, SVG Export Plug-In . SVG Version: 6.00 Build 0)  -->
<svg version="1.1" id="illustration" xmlns="http://www.w3.org/2000/svg" xmlns:xlink="http://www.w3.org/1999/xlink" x="0px"
	 y="0px" viewBox="0 0 600 400" enable-background="new 0 0 600 400" xml:space="preserve">
<g>
	<defs>
		<rect id="SVGID_1_" width="600" height="400"/>
	</defs>
	<clipPath id="SVGID_2_">
		<use xlink:href="#SVGID_1_"  overflow="visible"/>
	</clipPath>
	<rect clip-path="url(#SVGID_2_)" fill="#FFFFFF" width="600" height="400"/>
	<g clip-path="url(#SVGID_2_)">
		<path fill="#F1F1F4" d="M148.2,196.1c0-0.2,0.1-0.4,0.4-0.4l6.7,0.2c0.7,0,1.2,0.1,1.7,0.3c0.5,0.2,0.8,0.4,1.1,0.7
			s0.5,0.7,0.6,1.1c0.1,0.4,0.2,0.9,0.2,1.5l-0.1,1.8c0,0.5-0.1,1-0.2,1.5c-0.1,0.4-0.4,0.8-0.7,1.1c-0.3,0.3-0.7,0.5-1.2,0.7
			c-0.5,0.2-1,0.2-1.7,0.2l-3.6-0.1l-0.7-2.1l-0.1,0l-0.1,2.1l-2.5-0.1L148.2,196.1z M150.6,202.4l4.3,0.1c0.5,0,0.8-0.1,1-0.3
			c0.2-0.2,0.3-0.6,0.3-1.1l0-1.5c0-0.6-0.1-0.9-0.3-1.1c-0.2-0.2-0.5-0.3-1-0.3l-4.1-0.1c-0.1,0-0.1,0-0.1,0.1c0,0-0.1,0.1-0.1,0.1
			L150.6,202.4z"/>
		<path fill="#F1F1F4" d="M162.4,199.9L162.4,199.9l-0.2,2.7c0,0.1,0.1,0.2,0.2,0.2l7.5,0.2l-0.1,2.3L160,205
			c-0.2,0-0.4-0.1-0.3-0.4l0.2-8.2c0-0.2,0.1-0.4,0.4-0.4l9.6,0.3c0.2,0,0.4,0.1,0.4,0.4l-0.1,2.3l-2.4,0.8l-0.1,0l0-1.2
			c0-0.1,0-0.1-0.1-0.1l-5.1-0.2c-0.1,0-0.1,0-0.1,0.1c0,0,0,0.1,0,0.1l0,1.1l4.2,0.1l-0.1,1.8l-3.5-0.1L162.4,199.9z"/>
		<path fill="#F1F1F4" d="M179.2,199.8L179.2,199.8l-0.1-1c0-0.1,0-0.1-0.1-0.2l-4.7-0.1c-0.2,0-0.3,0-0.4,0.1
			c-0.1,0.1-0.1,0.2-0.1,0.3l0,0.2c0,0.2,0,0.3,0.1,0.3c0.1,0.1,0.2,0.1,0.3,0.1l5.5,0.9c0.4,0.1,0.6,0.1,0.9,0.3
			c0.2,0.1,0.4,0.3,0.6,0.4c0.2,0.2,0.3,0.4,0.3,0.6c0.1,0.2,0.1,0.5,0.1,0.9l0,0.7c0,0.4-0.1,0.7-0.2,1c-0.1,0.3-0.3,0.5-0.5,0.7
			c-0.2,0.2-0.5,0.3-0.8,0.4c-0.3,0.1-0.8,0.1-1.2,0.1l-8-0.2l0.1-2.3l7.1,0.2c0.2,0,0.4,0,0.4-0.1c0.1-0.1,0.1-0.2,0.1-0.4l0-0.2
			c0-0.2,0-0.3-0.1-0.3c-0.1-0.1-0.2-0.1-0.3-0.1l-5.3-0.8c-0.4-0.1-0.7-0.1-0.9-0.2c-0.3-0.1-0.5-0.2-0.6-0.4
			c-0.2-0.2-0.3-0.4-0.3-0.6c-0.1-0.2-0.1-0.5-0.1-0.9l0-0.6c0-0.6,0.2-1.1,0.6-1.5c0.4-0.3,0.9-0.5,1.7-0.5l7.9,0.2
			c0.3,0,0.4,0.1,0.4,0.4l-0.1,1.8L179.2,199.8z"/>
		<path fill="#F1F1F4" d="M182.6,205.7l0.3-8.9l2.5,0.1l-0.3,8.9L182.6,205.7z"/>
		<path fill="#F1F1F4" d="M194.5,202.2c0-0.1,0-0.3,0-0.4c0-0.1,0-0.3,0-0.4l0-0.1l2.5,0.1l-0.1,4.4c0,0.2-0.1,0.3-0.3,0.3l-6.7-0.2
			c-0.7,0-1.2-0.1-1.7-0.3c-0.5-0.2-0.8-0.4-1.1-0.7c-0.3-0.3-0.5-0.7-0.6-1.1c-0.1-0.4-0.2-0.9-0.2-1.5l0.1-1.8
			c0-0.5,0.1-1,0.2-1.5c0.1-0.4,0.4-0.8,0.7-1.1c0.3-0.3,0.7-0.5,1.2-0.7c0.5-0.2,1-0.2,1.7-0.2l6.7,0.2c0.2,0,0.4,0.1,0.3,0.4
			l-0.1,1.9l-2.4,0.8l-0.1,0l0-0.9c0-0.1,0-0.1-0.1-0.1l-4.3-0.1c-0.2,0-0.5,0-0.6,0c-0.2,0-0.3,0.1-0.4,0.2
			c-0.1,0.1-0.2,0.3-0.2,0.4c-0.1,0.2-0.1,0.4-0.1,0.7l0,1.6c0,0.5,0.1,0.9,0.3,1.1c0.2,0.2,0.5,0.3,1,0.4l4.2,0.1
			c0.1,0,0.1,0,0.1-0.1L194.5,202.2z"/>
		<path fill="#F1F1F4" d="M202.3,197.4c0.2,0,0.3,0,0.4,0.1c0.1,0.1,0.1,0.2,0.2,0.3l3.2,6.5c0.1,0.1,0.1,0.2,0.2,0.2l0.1,0
			c0.1,0,0.2-0.1,0.2-0.2l0.2-6.7l2.3,0.1l-0.3,8.6c0,0.2-0.1,0.4-0.4,0.3l-3.6-0.1c-0.2,0-0.3,0-0.4-0.1c-0.1-0.1-0.2-0.1-0.2-0.3
			l-3.3-6.5c0-0.1-0.1-0.2-0.2-0.2l-0.1,0c-0.1,0-0.2,0.1-0.2,0.2l-0.2,6.7l-2.3-0.1l0.3-8.6c0-0.2,0.1-0.4,0.4-0.4L202.3,197.4z"/>
	</g>
	
		<ellipse transform="matrix(0.7071 -0.7071 0.7071 0.7071 -59.4577 247.5165)" clip-path="url(#SVGID_2_)" fill="#E0F3FF" cx="269" cy="195.5" rx="155" ry="155"/>
	<g clip-path="url(#SVGID_2_)">
		
			<linearGradient id="SVGID_3_" gradientUnits="userSpaceOnUse" x1="139.8369" y1="275.2009" x2="139.8369" y2="204.0119" gradientTransform="matrix(0.906 -0.4233 0.4233 0.906 -75.0515 53.7421)">
			<stop  offset="0" style="stop-color:#DBCCFF"/>
			<stop  offset="1" style="stop-color:#D1BBFF"/>
		</linearGradient>
		<path fill="url(#SVGID_3_)" d="M155.1,185.6c-3.8-6.6-10.6-9.3-10.6-9.3l-2.4,1.1l5.3,9.6c-0.7,3.7-3.2,5.7-3.2,5.7l0,0
			c0,0-3.2,0.6-6.5-1.2l-4-10.2l-2.4,1.1c0,0-2.3,6.9,0.3,14c0,0,1,2.3,1.2,2.5c0.9,1.1,3.4,2.3,8.1,2.1l16.2,30.9
			c-1.3,2.3-1.6,5.2-0.4,7.8c2,4.2,7,6.1,11.3,4.1c4.2-2,6.1-7,4.1-11.3c-1.2-2.6-3.6-4.3-6.2-4.8l-13.3-32.2c3.2-3.3,3.8-6,3.6-7.5
			C156.2,187.8,155.1,185.6,155.1,185.6z M168.4,238.9l-4.3,2l-3.9-2.7l0.4-4.7l4.3-2l3.9,2.7L168.4,238.9z"/>
		
			<linearGradient id="SVGID_4_" gradientUnits="userSpaceOnUse" x1="139.8327" y1="277.9781" x2="139.8327" y2="206.7891" gradientTransform="matrix(0.906 -0.4233 0.4233 0.906 -75.0515 53.7421)">
			<stop  offset="0" style="stop-color:#B5A6E7"/>
			<stop  offset="1" style="stop-color:#7760BF"/>
		</linearGradient>
		<path fill="url(#SVGID_4_)" d="M156.3,188.1c-3.8-6.6-10.6-9.3-10.6-9.3l-2.4,1.1l5.3,9.6c-0.7,3.7-3.2,5.7-3.2,5.7l0,0
			c0,0-3.2,0.6-6.5-1.2l-4-10.2l-2.4,1.1c0,0-2.3,6.9,0.3,14c0,0,3.7,4.9,9.2,4.6l16.2,30.9c-1.3,2.3-1.6,5.2-0.4,7.8
			c2,4.2,7,6.1,11.3,4.1c4.2-2,6.1-7,4.1-11.3c-1.2-2.6-3.6-4.3-6.2-4.8l-13.3-32.2C157.7,194.1,156.3,188.1,156.3,188.1z
			 M169.6,241.4l-4.3,2l-3.9-2.7l0.4-4.7l4.3-2l3.9,2.7L169.6,241.4z"/>
		
			<rect x="131.9" y="181.8" transform="matrix(0.906 -0.4233 0.4233 0.906 -65.0028 73.6072)" fill="#E5E2FF" width="2.6" height="2.8"/>
		
			<rect x="142.7" y="176.8" transform="matrix(0.906 -0.4233 0.4233 0.906 -61.8791 77.6858)" fill="#E5E2FF" width="2.6" height="2.8"/>
		
			<rect x="164.5" y="239.8" transform="matrix(0.906 -0.4233 0.4233 0.906 -86.4027 93.3051)" fill="#E5E2FF" width="4.7" height="2.8"/>
		<g>
			
				<linearGradient id="SVGID_5_" gradientUnits="userSpaceOnUse" x1="139.8326" y1="260.2796" x2="139.8326" y2="230.2723" gradientTransform="matrix(0.906 -0.4233 0.4233 0.906 -75.0515 53.7421)">
				<stop  offset="0" style="stop-color:#B5A6E7"/>
				<stop  offset="1" style="stop-color:#7760BF"/>
			</linearGradient>
			<path fill="url(#SVGID_5_)" d="M145.7,205.9l13.1,25.2c3.4,0.2,5.3-2.5,5.3-2.5l-10.7-26.3C148.6,202.1,145.7,205.9,145.7,205.9z
				 M163,228.7c-0.4,0.3-1,0.8-1.7,1.1c-0.6,0.3-1.2,0.5-1.8,0.5l-13.1-24.6c0.6-0.6,1.7-1.4,3.2-2.1c1.1-0.5,2.1-0.8,3.2-1
				L163,228.7z"/>
			<path fill="#E5E2FF" d="M163,228.7l1-0.2c0,0-1.5,2.7-5.3,2.5l0.8-0.6C159.5,230.4,161.4,230.2,163,228.7z"/>
			
				<linearGradient id="SVGID_6_" gradientUnits="userSpaceOnUse" x1="135.5743" y1="230.8728" x2="144.091" y2="230.8728" gradientTransform="matrix(0.906 -0.4233 0.4233 0.906 -75.0515 53.7421)">
				<stop  offset="0" style="stop-color:#8B8BE0"/>
				<stop  offset="1" style="stop-color:#A177B7"/>
			</linearGradient>
			<path opacity="0.62" fill="url(#SVGID_6_)" d="M145.7,205.9l0.8-0.1c0,0,2.2-2.3,6.4-3l0.6-0.5c0,0-1.7-0.3-4.3,0.9
				C146.5,204.4,145.7,205.9,145.7,205.9z"/>
		</g>
		
			<linearGradient id="SVGID_7_" gradientUnits="userSpaceOnUse" x1="139.8327" y1="232.8499" x2="139.8327" y2="227.6944" gradientTransform="matrix(0.906 -0.4233 0.4233 0.906 -75.0515 53.7421)">
			<stop  offset="0" style="stop-color:#FFFFFF"/>
			<stop  offset="1" style="stop-color:#A177B7"/>
		</linearGradient>
		<path opacity="0.62" fill="url(#SVGID_7_)" d="M142.2,203.6c0,0,6.3-1.1,11.7-5.4l1.7,4.1c0,0-1.9-1.9-6.2-0.2c-5,2-4.7,6-4.7,6
			L142.2,203.6z"/>
		
			<linearGradient id="SVGID_8_" gradientUnits="userSpaceOnUse" x1="144.337" y1="263.3428" x2="144.337" y2="230.2624" gradientTransform="matrix(0.906 -0.4233 0.4233 0.906 -75.0515 53.7421)">
			<stop  offset="0" style="stop-color:#000000"/>
			<stop  offset="1" style="stop-color:#FFFFFF"/>
		</linearGradient>
		<path opacity="0.5" fill="url(#SVGID_8_)" d="M155.6,202.3c-1.2-0.9-2.6-0.9-2.6-0.9l12.7,30.6l1.5-1.6L155.6,202.3z"/>
		<path fill="#FFFFFF" d="M155.6,202.3c0,0-1.3,4.1,2.5,6L155.6,202.3z"/>
	</g>
	<g clip-path="url(#SVGID_2_)">
		<g>
			<linearGradient id="SVGID_9_" gradientUnits="userSpaceOnUse" x1="280.2997" y1="400" x2="280.2997" y2="310.79">
				<stop  offset="0" style="stop-color:#6456C0"/>
				<stop  offset="1" style="stop-color:#5F2C95"/>
			</linearGradient>
			<path fill="url(#SVGID_9_)" d="M346.2,400h-47c-4.9-27.3-16.4-62.9-16.4-62.9c-2.8-1.6-8.2,0.4-8.2,0.4L257.5,400h-42.9
				c-2.3-38.6,18.8-82.3,18.8-82.3l0,0c-0.1-0.1-0.7-1.5-0.6-2.4c0.1-0.4,0.8-1.1,1.6-1.9c1.2-1.1,2.5-2.1,2.5-2.1l80.1-0.5
				c0,0,0.8,0.4,1.8,1h0c1.8,1.1,4.1,2.7,4.1,3.9c0,1.6-0.7,2.7-0.8,3l0,0.1C339.3,351.1,346.2,400,346.2,400z"/>
			
				<radialGradient id="SVGID_10_" cx="232.4988" cy="368.6501" r="27.0277" gradientTransform="matrix(0.6462 0.1491 -0.3852 1.6696 228.6228 -282.2475)" gradientUnits="userSpaceOnUse">
				<stop  offset="0" style="stop-color:#4B474B"/>
				<stop  offset="1" style="stop-color:#000000"/>
			</radialGradient>
			<path opacity="0.5" fill="url(#SVGID_10_)" d="M254.3,371.9c-5.7,24.9-18.2,43.3-27.9,41.1s-12.8-24.2-7.1-49.2
				c5.7-24.9,18.2-43.3,27.9-41.1C256.9,325,260.1,347,254.3,371.9z"/>
			
				<radialGradient id="SVGID_11_" cx="351.3293" cy="352.8094" r="27.0272" gradientTransform="matrix(0.6386 -0.179 0.4623 1.6499 -67.4027 -151.7454)" gradientUnits="userSpaceOnUse">
				<stop  offset="0" style="stop-color:#4B474B"/>
				<stop  offset="1" style="stop-color:#000000"/>
			</radialGradient>
			<path opacity="0.5" fill="url(#SVGID_11_)" d="M337.3,362.6c6.9,24.6,4.8,46.8-4.8,49.4c-9.5,2.7-22.9-15.1-29.8-39.8
				c-6.9-24.6-4.8-46.8,4.8-49.4C317.1,320.2,330.4,338,337.3,362.6z"/>
			<g>
				<linearGradient id="SVGID_12_" gradientUnits="userSpaceOnUse" x1="251.4272" y1="368.6816" x2="274.8247" y2="368.6816">
					<stop  offset="0" style="stop-color:#9E8CEF"/>
					<stop  offset="1" style="stop-color:#CAAFEE"/>
				</linearGradient>
				<path fill="url(#SVGID_12_)" d="M251.9,400l-0.5-0.1c5.5-32.2,19.3-59.2,19.5-59.5l0.1-0.1l3.5-3.1l0.3,0.4l-3.5,3.1
					C270.7,342,257.3,368.5,251.9,400z"/>
			</g>
			<g>
				
					<linearGradient id="SVGID_13_" gradientUnits="userSpaceOnUse" x1="341.5261" y1="368.6826" x2="364.9255" y2="368.6826" gradientTransform="matrix(-1 0 0 1 647.6286 0)">
					<stop  offset="0" style="stop-color:#9E8CEF"/>
					<stop  offset="1" style="stop-color:#CAAFEE"/>
				</linearGradient>
				<path fill="url(#SVGID_13_)" d="M305.6,400c-5.4-31.6-19.2-58.3-19.8-59.5l-3.1-2.8l0.3-0.4l3.2,2.9
					c0.1,0.3,14.4,27.5,19.8,59.7L305.6,400z"/>
			</g>
			<linearGradient id="SVGID_14_" gradientUnits="userSpaceOnUse" x1="277.16" y1="400" x2="277.16" y2="310.79">
				<stop  offset="0" style="stop-color:#CCCCFF"/>
				<stop  offset="1" style="stop-color:#755CBB"/>
			</linearGradient>
			<path opacity="0.76" fill="url(#SVGID_14_)" d="M323,315.7c0,1.6-0.7,2.7-0.8,3l0,0.1c-16.7,3.8-29.4,19.3-29.4,19.3
				C301.9,355.5,317,400,317,400h-17.8c-4.9-27.3-16.4-62.9-16.4-62.9c-2.8-1.6-8.2,0.4-8.2,0.4L257.5,400h-11.1
				c4-26.2,15.7-58.1,15.7-58.1c-11.6-13.4-28.7-24.2-28.7-24.2l0,0l-2-1.3l1.5-1.1c7.4,7.1,31.4,16.4,32.1,16.7l-30.5-18.6
				c1.2-1.1,2.5-2.1,2.5-2.1l80.1-0.5c0,0,0.8,0.4,1.8,1l-21.9,12L323,315.7z"/>
			<linearGradient id="SVGID_15_" gradientUnits="userSpaceOnUse" x1="287.5455" y1="355.395" x2="287.5455" y2="331.0632">
				<stop  offset="0" style="stop-color:#CCCCFF"/>
				<stop  offset="1" style="stop-color:#755CBB"/>
			</linearGradient>
			<polygon opacity="0.76" fill="url(#SVGID_15_)" points="282.9,337.1 292.2,331.1 290,337.1 288.4,355.4 			"/>
			<linearGradient id="SVGID_16_" gradientUnits="userSpaceOnUse" x1="259.3632" y1="346.4476" x2="259.3632" y2="322.6091">
				<stop  offset="0" style="stop-color:#CCCCFF"/>
				<stop  offset="1" style="stop-color:#755CBB"/>
			</linearGradient>
			<polygon opacity="0.76" fill="url(#SVGID_16_)" points="274.7,337.5 264.9,332 244.1,322.6 270.6,340.2 272.2,346.4 			"/>
		</g>
		<path fill="#FE9083" d="M301.5,149.6c0.1,0.4,0.1,0.7,0.1,0.7c-0.5,2-1.1,3.9-1.7,5.7c-2,5.6-4.4,9.6-6.2,12.1
			c-1.6,2.2-2.7,3.2-2.7,3.2c-14.6-4.6-21.8-18.9-24.5-25.9c0,0,0-0.1,0-0.1c-0.5-1.3-0.9-2.4-1.1-3.1c0,0,0,0,0,0
			c-0.2-0.6-0.2-0.9-0.2-0.9c0.1-0.1,0.1-0.2,0.2-0.4l0-0.1c0.2-0.5,0.5-1,0.7-1.5c1.9-4.2,3.2-8.1,4-11.2c0.7-2.6,1.1-4.6,1.3-5.7
			c0.1-0.6,0.1-0.9,0.1-0.9l6.8,3.6l23.4,12.4c-0.4,2.1-0.5,4.2-0.5,5.9c0,1.2,0,2.4,0.1,3.3c0.1,1.2,0.2,2.1,0.3,2.7v0
			C301.4,149.6,301.5,149.6,301.5,149.6z"/>
		<linearGradient id="SVGID_17_" gradientUnits="userSpaceOnUse" x1="283.5421" y1="176.45" x2="283.5421" y2="140.84">
			<stop  offset="0" style="stop-color:#D5CDF8"/>
			<stop  offset="1" style="stop-color:#F3EDFB"/>
		</linearGradient>
		<path fill="url(#SVGID_17_)" d="M295,172.8c-1.4,1.3-2.9,2.5-4.8,3.5c0,0-0.1,0-0.1,0.1c0,0,0,0-0.1-0.1l0,0
			c-0.5-0.3-2.2-1.4-4.6-3.1c-6.1-4.6-16.3-13.9-19.3-26.5c0,0,0,0,0-0.1c-0.3-1.5-0.6-3-0.7-4.6c0,0,0,0,0,0c0-0.4-0.1-0.8-0.1-1.2
			c0,0,2,4.8,5.6,9.9c4.1,6.1,10.3,12.7,17.8,12.7c6.4,0,9.7-4.4,11.4-8.4c0.7-1.7,1.1-3.4,1.4-4.6c0,0,0,0,0,0
			c0.1-0.4,0.1-0.7,0.2-0.9v0c0-0.1,0-0.3,0-0.4c0.1-0.4,0.1-0.7,0.1-0.7S304,163.8,295,172.8z"/>
		<linearGradient id="SVGID_18_" gradientUnits="userSpaceOnUse" x1="265.21" y1="158.61" x2="301.8742" y2="158.61">
			<stop  offset="0" style="stop-color:#CCCCFF"/>
			<stop  offset="1" style="stop-color:#755CBB"/>
		</linearGradient>
		<path opacity="0.5" fill="url(#SVGID_18_)" d="M295,172.8c-1.4,1.3-2.9,2.5-4.8,3.5H290l-0.1,0l0,0c-0.5-0.3-2.2-1.4-4.6-3.1
			c-6.1-4.6-16.3-13.9-19.3-26.5c0,0,0,0,0-0.1c-0.3-1.5-0.6-3-0.7-4.6c0,0,0,0,0,0c0-0.4-0.1-0.8-0.1-1.2c0,0,2,4.8,5.6,9.9
			c0,0,4,11.1,12.8,16.6c4.4,2.8,7.7,2.4,10.1,0.7c2.4-1.6,4-4.4,5-6.5c0.9-2.1,1.2-4.1,1.3-5.6c0-0.3,0-0.6,0-0.9
			c0.7-1.7,1.1-3.4,1.4-4.6c0,0,0,0,0,0c0.1-0.4,0.1-0.7,0.2-0.9v0c0-0.1,0-0.3,0-0.4c0.1-0.4,0.1-0.7,0.1-0.7S304,163.8,295,172.8z
			"/>
		<linearGradient id="SVGID_19_" gradientUnits="userSpaceOnUse" x1="273.0582" y1="318.7292" x2="273.0582" y2="139.29">
			<stop  offset="0" style="stop-color:#9E8CEF"/>
			<stop  offset="1" style="stop-color:#CAAFEE"/>
		</linearGradient>
		<path fill="url(#SVGID_19_)" d="M351.1,263.5c-0.1,0-0.2,0.1-0.2,0.1c-0.8,0.1-3.4-0.5-6.7-3.3l0,0c0,0,0,0,0,0c0,0,0,0,0,0
			c-2.8-2.4-6.2-6.5-9.5-13.2c-6.7-13.4-8.6-22.3-8.9-23.9l0-0.2l-3.9,6.2c-2.6,8-7.7,40.9-7.6,42.4c0.1,1.4,4.4,8.3,4.4,9.2
			c0,0,0,0,0,0c-0.1,0.9-2.1,2.8-2.6,4.8c-0.4,1.4,2.3,5.7,4.1,8.9v0c1,1.7,1.7,3.1,1.7,3.6c0,1.5-4.7,8.9-4.7,8.9v4l-0.1,0.1
			l-0.2,0.2l-0.2,0.1c-1.8,1.4-9.4,6.1-33.3,7.4c-28.2,1.5-47.1-7.6-47.1-7.6l1.4-3.9c0,0-1.3-1.1-1.4-1.7c-0.1-0.6,1-1.9,1-1.9
			s-2.8-1.5-2.8-3.4c0-1.9,5.7-7.8,5.5-12.8c-0.2-5-4.5-9.5-5.1-12.3c-0.6-2.8,7.4-9.9,7.4-9.9c-6.8-21.6-8.1-50.6-8.1-50.6
			l-1.3-1.5c0,0-8.1,18.6-15.5,27.7c-0.9,1.1-1.8,2.2-2.8,3.2c-2.1,2.2-4.2,4.3-6.4,6.1c-5.1,4.5-9.8,7.4-10.9,7.2
			c-1.9-0.4-9.5-15.4-9.1-30.7c0.2-7.3,4.6-15.5,9.1-22c0.5-0.7,1-1.4,1.5-2.1c3.2-4.4,6.4-7.9,7.8-9.4c0.6-0.6,0.9-0.9,0.9-0.9
			s-1-3.4-1.8-6.3c0-0.1,0-0.1-0.1-0.2c0,0,0-0.1,0-0.1c0-0.1,0-0.1,0-0.1c-0.4-1.8-0.7-3.3-0.4-3.7c0.6-1,4.3-2.2,4.9-2.9
			c0.6-0.8,3.3-13.5,5.3-14.9c1.9-1.3,5.4-2.3,16.7-6.8c0.6-0.2,1.1-0.4,1.7-0.7c12.8-5,25.3-11.2,25.3-11.2l4.8-5.9h2.1l-0.7,1.5
			l0,0.1c0.3,1.5,0.7,3,1.2,4.4c0,0,0,0.1,0,0.1c6.6,20.8,23.6,27.5,23.6,27.5c11.8-8.7,11.6-22.5,11.6-22.5v-1.9l2.2,0.7l1.5,3.6
			c0,0,2.6,4,12.7,8.4c1.8,0.8,3.6,1.7,5.6,2.9c9.3,5.3,19.6,13.4,20.4,15.1c0.1,0.2,0.2,0.5,0.3,0.9v0c1.1,4.3,3.3,20.3,5.4,26
			c1.3,3.6,3.4,5.5,4.9,6.6c0,0,0,0,0,0c1.1,0.8,1.9,1,1.9,1c0.2,0.9,0.3,1.8,0.4,2.6C361.2,243.6,353,262.2,351.1,263.5z"/>
		<linearGradient id="SVGID_20_" gradientUnits="userSpaceOnUse" x1="198.59" y1="206.915" x2="242.29" y2="206.915">
			<stop  offset="0" style="stop-color:#CCCCFF"/>
			<stop  offset="1" style="stop-color:#755CBB"/>
		</linearGradient>
		<path opacity="0.5" fill="url(#SVGID_20_)" d="M242.3,211.8l-8.2,2.8l-1.3-1.5c0,0-8.1,18.6-15.5,27.7c-0.9,1.1-1.8,2.2-2.8,3.2
			c-2.1,2.2-4.2,4.3-6.4,6.1l-6.3-27.1l-3.2-20.6c3.2-4.4,6.4-7.9,7.8-9.4c0.6-0.6,0.9-0.9,0.9-0.9s-1-3.4-1.8-6.3
			c0-0.1,0-0.1-0.1-0.2c0,0,0-0.1,0-0.1c0-0.1,0-0.1,0-0.1c-0.4-1.8-0.7-3.3-0.4-3.7c0.6-1,4.3-2.2,4.9-2.9
			c0.6-0.8,3.3-13.5,5.3-14.9c0,0-1.3,12.2,5.7,27.8l3.4,4.8l10,8C234.4,204.4,238.2,209.5,242.3,211.8z"/>
		<linearGradient id="SVGID_21_" gradientUnits="userSpaceOnUse" x1="197.2384" y1="257.17" x2="197.2384" y2="173.26">
			<stop  offset="0" style="stop-color:#9E8CEF"/>
			<stop  offset="1" style="stop-color:#DAC7F3"/>
		</linearGradient>
		<path fill="url(#SVGID_21_)" d="M218.4,233.9c-1.8,13.1-21.3,23.2-21.3,23.2c-4.4,0-9.2-7.6-13.6-16.9c-4.4-9.4-4.7-36.2-4.9-37.9
			c-0.2-1.7-2.7-5-2.8-6.4c-0.1-1.4,4-4.4,4-4.4l0-0.1l0-0.1c-0.4-0.9-2.9-6.1-2.7-7.1c0.2-1,4.8-3.3,4.8-3.3l0.3,5.1
			c0,0,10.8-2,14.4-10.4l0.6-2.6l1.8,1.2v11c0,0,0.4,1.7,0.9,1.7c0.6,0,4.8-2.1,5.6-1.8c0.9,0.3,1.8,6.2,2.9,6.9
			c1.2,0.8,4.3,2.9,4.8,4c0.2,0.5,0.2,2.2,0.2,4.1c0,2.4,0,5.3,0.4,6.9C214.5,210.3,220.2,220.8,218.4,233.9z"/>
		<linearGradient id="SVGID_22_" gradientUnits="userSpaceOnUse" x1="341.5302" y1="232.9861" x2="397.8355" y2="232.9861">
			<stop  offset="0" style="stop-color:#A999F1"/>
			<stop  offset="1" style="stop-color:#DAC7F3"/>
		</linearGradient>
		<path fill="url(#SVGID_22_)" d="M397.4,222.7c-0.9,1.4-5.3,4.3-6.4,5.4c-1.1,1.1,0,4.9,0,4.9c-18.6,19.7-37.9,29.6-39.9,30.5
			c-0.1,0-0.2,0.1-0.2,0.1c-11.7-7.8-10.7-20.7-6.8-31.6c3.7-10.4,10-19,10.3-19.4l0,0c0,0,0,0,0,0c0.2-0.1,3.5-1.5,5.9-1.6
			c0.8-0.1,1.5,0.2,2.2,0.7c1.4,0.9,2.6,2.3,3.8,1.7c1.7-0.9,5.5-9.9,8.1-10.1c1.8-0.2,4.3,1.7,6,2.7c0.7,0.5,1.3,0.8,1.6,0.7
			c1-0.2,4.2-4.1,4.4-4.2c0.2-0.1,1.7,1,1.7,1l-1,1.3c1.6,9.1,6.8,15.2,6.8,15.2l3.5-5.1C397.4,214.8,398.3,221.3,397.4,222.7z"/>
		<path fill="#CB4D7A" d="M301.5,149.3c0,0.1,0,0.3-0.1,0.4c0,0.3-0.1,0.5-0.2,0.8c0,0,0,0,0,0c-1.2,4.4-6,8.9-12.1,6.8
			c-6.6-2.4-19.2-29.1-19.2-29.1l1.3-5.7l30,24.4l0.3,2.3L301.5,149.3z"/>
		<g>
			<path fill="#EE8183" d="M201.8,144.4c0,0-1.8-10.1-1-17.6c0.8-7.5-0.2-15.9-0.2-15.9s-1.8-0.8-3.1,0c-1.3,0.8-4.4,8.5-3,14.7
				c1.4,6.2,0.3,21,0.3,21h-2.1l-4.5-6.3l-2.2-0.6c0,0-12.7,12-12.5,19.1l1.7,6.3l15.7-0.5l10.2-11.7L201.8,144.4z"/>
			<linearGradient id="SVGID_23_" gradientUnits="userSpaceOnUse" x1="178.9231" y1="161.8185" x2="178.9231" y2="139.694">
				<stop  offset="1.598750e-02" style="stop-color:#FFC2A9"/>
				<stop  offset="1" style="stop-color:#FF9595"/>
			</linearGradient>
			<path fill="url(#SVGID_23_)" d="M185.9,139.7c0,0,0.3,8,2.1,14.8c0,0-0.3,2.8-3.6,3l-0.8-0.9c0,0-0.6,3.2-3.5,3.4l-2.7-2.7
				l0.7,2.3c0,0-1,2.4-3.6,2.3c0,0-4.4-3.4-4.6-7.9l4.3-3.6v-2.8l5.1-3.6l0.1-2C179.4,141.9,182.4,139.6,185.9,139.7z"/>
			<linearGradient id="SVGID_24_" gradientUnits="userSpaceOnUse" x1="192.855" y1="161.2947" x2="192.855" y2="124.6715">
				<stop  offset="0" style="stop-color:#FFEADB"/>
				<stop  offset="0.9944" style="stop-color:#C27CB6"/>
			</linearGradient>
			<path opacity="0.6" fill="url(#SVGID_24_)" d="M201,124.7c0,0-0.8,1.9-1.9,2.7c-1.1,0.8-4.2,1.3-4.2,1.3l-0.1,17.9h-2.1l-4.5-6.3
				c0,0,2.3,3.6,2.4,6.3l-1.8,0.9l-1.6-5.4l-0.7,3.9l0.7,4.8c0,0,2.7-2.3,7.6-2.4l0.7,1.3c0,0-8.8,7.3-10.9,11.6
				c0,0,4.4-5.5,14.3-11.7l0.9-2.9l1.3-7C201.1,139.7,199.9,129.6,201,124.7z"/>
			<linearGradient id="SVGID_25_" gradientUnits="userSpaceOnUse" x1="191.6668" y1="186.21" x2="191.6668" y2="129.75">
				<stop  offset="1.598750e-02" style="stop-color:#FFC2A9"/>
				<stop  offset="1" style="stop-color:#FF9595"/>
			</linearGradient>
			<path fill="url(#SVGID_25_)" d="M208.4,155.8c-0.8,2.5-9.4,12.7-10.4,14.9c-1,2.2-1.5,5.1-1.5,5.1c-4.2,9.1-14.4,10.4-14.4,10.4
				l-0.5-8.2c0,0-5.5-3.2-6.4-4.9l0,0l-0.1-0.3c-0.3-1.6,0-7.6,0-7.6l9.6-3.9c4.2-5.4,14.3-11.6,14.3-11.6l0.5-2.8
				c-7.3-3.6-6.1-14.4-4.8-15.7c1.2-1.3,3.5-1.3,3.5-1.3s2.7,8.7,4.4,12.8C204.1,146.6,209.2,153.3,208.4,155.8z"/>
			<path fill="#E28183" d="M179.4,141.9c0,0,1.1,9.9,4.2,14.7c0,0-4-5-4.3-12.6L179.4,141.9z"/>
			<path fill="#E28183" d="M174.2,147.5c0,0,1,8,6,12.5c0,0-4.4-2.2-6-9.7V147.5z"/>
			<linearGradient id="SVGID_26_" gradientUnits="userSpaceOnUse" x1="181.57" y1="177.3993" x2="199.322" y2="177.3993">
				<stop  offset="1.598750e-02" style="stop-color:#D1A1D6"/>
				<stop  offset="0.9944" style="stop-color:#BD89C4"/>
			</linearGradient>
			<path opacity="0.91" fill="url(#SVGID_26_)" d="M199.3,168.6c0,0-10.8,10.5-17.8,9.4l0.5,8.2c0,0,11.4-1,15.1-13
				C197.1,173.3,198.4,169.8,199.3,168.6z"/>
		</g>
		<g>
			<linearGradient id="SVGID_27_" gradientUnits="userSpaceOnUse" x1="398.9961" y1="220.6" x2="398.9961" y2="145.0987">
				<stop  offset="1.598750e-02" style="stop-color:#FFC2A9"/>
				<stop  offset="1" style="stop-color:#FF9595"/>
			</linearGradient>
			<path fill="url(#SVGID_27_)" d="M428.4,182.9c0,0-9.9,18.2-21.6,23.8h-4l-9.2,13.9c0,0-5.9-3.7-6.4-16c0,0,2.1-2.2,2.6-4.6
				c0,0-3.3-2.6-4.2-4.5c-0.9-1.9-1.2-7.6-1.8-9.9c-0.6-2.3-6-7.2-7.2-7.8c-1.2-0.6-6.6-0.9-6.6-0.9s-0.8-2,0-2.9
				c0.8-0.9,9.2-4.2,13.8-1.1c0,0,0.3,2.4,0.8,3.7c0.5,1.3,4.6,5.7,5.2,5.7c0.6,0,3.4-2.3,4.6-4c1.1-1.7,7.3-14.9,8.7-19.3
				c0,0,0-0.1,0-0.1c0-0.1,0-0.1,0.1-0.2c0-0.1,0-0.1,0-0.1c0,0,0,0,0-0.1c1.1-3.9,7.8-11.2,11.3-13.3c0,0,1.5-0.4,2.3,1.5
				c0,0-2.8,8.1-5.8,12.9c-0.5,0.8-1,1.8-1.6,2.8c0,0,0,0,0,0c-2.5,4.7-5.4,10.7-5.8,11.6l0,0.1l1.6,0.8l4.3-4.1l4.4-4.1l10.1,10.6
				l-1,1.3l-3.1,4l1.6,0.3l3.7-4.1L428.4,182.9z"/>
			<linearGradient id="SVGID_28_" gradientUnits="userSpaceOnUse" x1="407.9158" y1="196.41" x2="407.9158" y2="158.9">
				<stop  offset="0" style="stop-color:#FFEADB"/>
				<stop  offset="0.9944" style="stop-color:#C27CB6"/>
			</linearGradient>
			<path opacity="0.6" fill="url(#SVGID_28_)" d="M426,186.8l-3.2,4.7c0,0-17.5-13.5-21.2-14.6c-3.8-1.1-5.2-0.4-5.2-0.4l-3.9,5
				c0,0,7.2,6.4,7.8,15c0,0-2.4-10.9-10.6-14.2c0.6,0,3.4-2.3,4.6-4c1.1-1.7,7.3-14.9,8.7-19.3c-0.2,0.8-0.5,2.2,0.2,3.4
				c0.9,1.6,5.9,0.1,6.2,0c0,0,0,0,0,0l-5.8,11.6l0,0.1l1.6,0.8l4.3-4.1l-2.1,5l15.6,2.8l-3.1,4l1.6,0.3L426,186.8z"/>
			<linearGradient id="SVGID_29_" gradientUnits="userSpaceOnUse" x1="415.3158" y1="183.4632" x2="415.3158" y2="166.6482">
				<stop  offset="0" style="stop-color:#FFB0B0"/>
				<stop  offset="0.984" style="stop-color:#FFC2A9"/>
			</linearGradient>
			<path fill="url(#SVGID_29_)" d="M413.9,166.7c0,0,3-0.4,5,3.5l-0.4,1.3c0,0,3,0.6,5.8,5.4c0,0-2.5,4.6-8.8,6.7
				c0,0-2.9-0.8-3.4-3.3l0.6-1.6l-2.3,1.7c0,0-2.7,0.8-3.9-3.2L413.9,166.7z"/>
			<linearGradient id="SVGID_30_" gradientUnits="userSpaceOnUse" x1="425.0686" y1="186.0526" x2="425.0686" y2="176.8316">
				<stop  offset="0" style="stop-color:#FFB0B0"/>
				<stop  offset="0.984" style="stop-color:#FFC2A9"/>
			</linearGradient>
			<path fill="url(#SVGID_30_)" d="M429.3,181.6c0,0,0.6-2.9-2.5-4.8l-6,6.6c0,0,0.2,2.1,2.8,2.6
				C423.6,186.1,427.7,184.7,429.3,181.6z"/>
			<linearGradient id="SVGID_31_" gradientUnits="userSpaceOnUse" x1="385.63" y1="204.4312" x2="402.78" y2="204.4312">
				<stop  offset="1.598750e-02" style="stop-color:#D1A1D6"/>
				<stop  offset="0.9944" style="stop-color:#BD89C4"/>
			</linearGradient>
			<path opacity="0.91" fill="url(#SVGID_31_)" d="M385.6,195.5c0,0,7,7.8,17.1,11.1l-4.4,6.7l-9.2-11.6l0.6-1.7
				C389.8,200,386.1,197.2,385.6,195.5z"/>
			<path fill="#E28183" d="M418.4,171.4c0,0-2.9,4.8-5.8,7.2l-0.6,1.6c0,0,5.6-3.8,7.7-8.2C419.7,172,419.1,171.5,418.4,171.4z"/>
		</g>
		<linearGradient id="SVGID_32_" gradientUnits="userSpaceOnUse" x1="361.7628" y1="263.6212" x2="361.7628" y2="179.11">
			<stop  offset="0" style="stop-color:#CCCCFF"/>
			<stop  offset="1" style="stop-color:#755CBB"/>
		</linearGradient>
		<path opacity="0.5" fill="url(#SVGID_32_)" d="M397.4,222.7c-0.9,1.4-5.3,4.3-6.4,5.4c-1.1,1.1,0,4.9,0,4.9
			c-18.6,19.7-37.9,29.6-39.9,30.5c-0.1,0-0.2,0.1-0.2,0.1c-1.5,0.2-8.9-1.9-16.3-16.7c-6.7-13.4-8.6-22.3-8.9-23.9l0-0.2l1.6-2.2
			l2.4-27.3l1.7,5.5c6.4-7.8,12.5-19.7,12.5-19.7l0.3,0.9v0c1.1,4.3,3.3,20.3,5.4,26c1.3,3.6,3.4,5.5,4.9,6.6l0,0l0,0
			c-5.9,5.4-8.9,13.2-10.3,19.4c-1.3,5.7-1.4,10-1.4,10s1.6-7.7,6.8-17c1.9-3.4,4.6-6.4,7.3-8.9c2-1.9,4.1-3.4,5.7-4.6
			c1.4,0.9,2.6,2.3,3.8,1.7c-7.8,11.7-7.6,34.9-0.3,30.5c7.3-4.4,9-13.8,9-13.8c-1.7-11.4-1.2-24.3,0.2-26.8
			c1.7,0.1,6.5,3.5,6.8,3.4C381.6,220,388,229,388,229l4.2-6.4c-6.1-10.2-5.6-20.2-5.6-20.2c0.2-0.1,1.7,1,1.7,1l-1,1.3
			c1.6,9.1,6.8,15.2,6.8,15.2l3.5-5.1C397.4,214.8,398.3,221.3,397.4,222.7z"/>
		<linearGradient id="SVGID_33_" gradientUnits="userSpaceOnUse" x1="175.69" y1="246.5946" x2="317.04" y2="246.5946">
			<stop  offset="0" style="stop-color:#CCCCFF"/>
			<stop  offset="1" style="stop-color:#755CBB"/>
		</linearGradient>
		<path opacity="0.5" fill="url(#SVGID_33_)" d="M317,306.8v4l-0.1,0.1l-0.2,0.2l-0.2,0.1c-1.8,1.4-9.4,6.1-33.3,7.4
			c-28.2,1.5-47.1-7.6-47.1-7.6l1.4-3.9c0,0-1.3-1.1-1.4-1.7c-0.1-0.6,1-1.9,1-1.9s-2.8-1.5-2.8-3.4c0-1.7,4.6-6.7,5.4-11.3
			c0.1-0.5,0.1-1,0.1-1.5c-0.2-5-4.5-9.4-5.1-12.3c0,0,0,0,0,0c-0.6-2.8,7.4-9.9,7.4-9.9c-6.8-21.6-8.1-50.6-8.1-50.6l-1.3-1.5
			c0,0-8.1,18.6-15.5,27.7c-7.4,9.1-18.2,16.9-20.1,16.5c-4.4,0-9.2-7.6-13.6-16.9c-4.4-9.4-4.7-36.2-4.9-37.9
			c-0.2-1.7-2.7-5-2.8-6.4c4.7,8.1,12.3,5.8,12.3,5.8c-5.5,0.1-8.3-10.1-8.3-10.1l0-0.1l0-0.1l-2.7-7.1c0.3,0.3,6.6,7.3,12.6,3
			c6.2-4.4,9.4-13,9.4-13v11c0,0,0.4,1.7,0.9,1.7c-0.4,5.1-1.4,11.2-2.7,17.3c-2.8,13.1-6.7,25.8-6.7,25.8s10.4-5.7,14.1-20.1
			c1.8-6.9,2-12.9,1.9-17.2c-0.1-3.7-0.6-6.3-0.8-7.2c0-0.1,0-0.1-0.1-0.2c0,0,0-0.1,0-0.1c0,0,0,0,0-0.1l1,2.1l1.9,4.8
			c2.2,18.5-2.4,46.3-2.4,46.3c6.7-8.3,8.1-26.8,7.8-31.3c-0.1-2.1-0.3-4.8-0.4-6.9c-0.2-2.4-0.2-4.1-0.2-4.1l13.7,8.2l-2.5-8l10,8
			c0,0,9,10.8,18.2,12.1c9.2,1.3,43.1,0.5,43.1,0.5s-29.4,1.9-38,4.4c-8.6,2.5-10.2,5.4-10.2,5.4c6.2,31.6,40.6,42.2,41.6,42.6
			c-31.2-4.7-45.7-31.2-45.7-31.2s-0.5,14.9,1.9,20.6c2.4,5.7,16.6,19.6,34.7,22.5c1.5,0.2,3,0.4,4.5,0.5c15.3,0.7,28-7.1,29.3-8
			c0.1-0.1,0.1-0.1,0.1-0.1s0,0,0,0c-0.5,0.8-6.8,9.6-32.2,10.6c-1.5,0.1-3,0.1-4.5,0c0,0,0,0,0,0c-23.5-1-35.5-16.7-35.5-16.7
			s-8.7,4.7-3.2,11.6c0.1,0.1,0.1,0.2,0.2,0.2c1.6,1.9,5.2,4.2,9.5,6.6c0.1,0.1,0.2,0.1,0.3,0.2c5.2,2.9,11.2,5.8,15.9,8.2
			c0,0,0,0,0.1,0c2.9,1.5,5.2,2.8,6.5,3.7c0,0,0,0,0,0c1.3,1,1.6,1.6,0.3,1.7c-6.6,0.8-31.5-4.7-32.5-3.2c-1,1.5,1.2,5.4,1.2,5.4
			c22.8,11.3,71.7,5.7,73.2,5.6C272.5,318.3,239,305,239,305l1.1,3.9c0,0,18.2,6.3,39.7,6.8c21.5,0.5,34.9-5,34.9-5L317,306.8z"/>
		<linearGradient id="SVGID_34_" gradientUnits="userSpaceOnUse" x1="300.3053" y1="222.9415" x2="327.3233" y2="222.9415">
			<stop  offset="0" style="stop-color:#CCEDFF"/>
			<stop  offset="1" style="stop-color:#755CBB"/>
		</linearGradient>
		<path opacity="0.5" fill="url(#SVGID_34_)" d="M300.3,216.9c0,0,16.3,0.9,27,3.7l-5.5,8.4C321.8,229,313.4,221.7,300.3,216.9z"/>
		<linearGradient id="SVGID_35_" gradientUnits="userSpaceOnUse" x1="275.8" y1="270.358" x2="315.5061" y2="270.358">
			<stop  offset="0" style="stop-color:#CCEDFF"/>
			<stop  offset="1" style="stop-color:#755CBB"/>
		</linearGradient>
		<path opacity="0.5" fill="url(#SVGID_35_)" d="M315.5,261.7c0,0-10.1,8.5-20.1,12.4c-10,3.9-19.6,4.3-19.6,4.3s5.7,1.7,19.9-0.6
			c14.1-2.3,18.9-9.9,18.9-9.9L315.5,261.7z"/>
		<linearGradient id="SVGID_36_" gradientUnits="userSpaceOnUse" x1="277.6388" y1="288.3118" x2="320.06" y2="288.3118">
			<stop  offset="0" style="stop-color:#CCEDFF"/>
			<stop  offset="1" style="stop-color:#755CBB"/>
		</linearGradient>
		<path opacity="0.5" fill="url(#SVGID_36_)" d="M320.1,294.3L320.1,294.3c-18.8,4.9-42.6-2.1-42.4-3c0.2-0.9,6.5,0.4,21.2-2.6
			c14.2-2.9,19.4-7.9,19.7-8.2c-0.1,0.9-2.1,2.8-2.6,4.8C315.5,286.8,318.2,291.1,320.1,294.3z"/>
		<linearGradient id="SVGID_37_" gradientUnits="userSpaceOnUse" x1="241.13" y1="243.86" x2="241.13" y2="196.25">
			<stop  offset="0" style="stop-color:#CCEDFF"/>
			<stop  offset="1" style="stop-color:#755CBB"/>
		</linearGradient>
		<path opacity="0.5" fill="url(#SVGID_37_)" d="M269,219.4c-16,1.6-20.4,6.1-20.4,6.1c-4.5,0.6-14.6-11-14.6-11l-1.3-1.5
			c0,0-8.1,18.6-15.5,27.7c-0.9,1.1-1.8,2.2-2.8,3.2l1.1-2.4c0,0,1.7-0.8,2.2-9.9c0.5-9-3.8-22.5-3.8-24.3s-0.7-11.1-0.7-11.1
			l13.7,8.2l-2.5-8l10,8c0,0,3.9,5.9,13.8,10.8C257.5,219.8,267.9,219.5,269,219.4z"/>
		<linearGradient id="SVGID_38_" gradientUnits="userSpaceOnUse" x1="244.9629" y1="247.8622" x2="244.9629" y2="211.7722">
			<stop  offset="0" style="stop-color:#CCEDFF"/>
			<stop  offset="1" style="stop-color:#755CBB"/>
		</linearGradient>
		<path opacity="0.5" fill="url(#SVGID_38_)" d="M232.7,213l9.6-1.2c0,0,3.8,2.5,11.5,5.7l-6.4,9.4c0,0,2.5,13.4,9.8,21
			c0,0-19.3-10.7-22-19.8L232.7,213z"/>
		<linearGradient id="SVGID_39_" gradientUnits="userSpaceOnUse" x1="187.925" y1="201.7273" x2="187.925" y2="174.46">
			<stop  offset="0" style="stop-color:#CCEDFF"/>
			<stop  offset="1" style="stop-color:#755CBB"/>
		</linearGradient>
		<path opacity="0.5" fill="url(#SVGID_39_)" d="M176.9,184.4l2.7,7.2c0,0,2.8,9.7,8.3,10.1c5.5,0.4,10.9-16.3,10.9-16.3v-11
			c0,0-5.9,12.6-12.2,14C180.3,189.9,176.9,184.4,176.9,184.4z"/>
		<linearGradient id="SVGID_40_" gradientUnits="userSpaceOnUse" x1="209.99" y1="177.7153" x2="220.9789" y2="177.7153">
			<stop  offset="0" style="stop-color:#CCEDFF"/>
			<stop  offset="1" style="stop-color:#755CBB"/>
		</linearGradient>
		<path opacity="0.5" fill="url(#SVGID_40_)" d="M210,178.7c0,0,4.9,9.8,11,12.9c0,0-7.2-17.5-5.7-27.8
			C215.3,163.8,212.6,165.5,210,178.7z"/>
		<linearGradient id="SVGID_41_" gradientUnits="userSpaceOnUse" x1="329.4473" y1="243.86" x2="329.4473" y2="193.32">
			<stop  offset="0" style="stop-color:#CCCCFF"/>
			<stop  offset="1" style="stop-color:#755CBB"/>
		</linearGradient>
		<path opacity="0.76" fill="url(#SVGID_41_)" d="M329.7,193.3l1.7,5.5l1.7,45.1c0,0-4.4-8.6-7.4-20.8l1.6-2.4
			C327.3,220.6,330,203.6,329.7,193.3z"/>
		<linearGradient id="SVGID_42_" gradientUnits="userSpaceOnUse" x1="386.2679" y1="232.99" x2="386.2679" y2="206.58">
			<stop  offset="0" style="stop-color:#CCCCFF"/>
			<stop  offset="1" style="stop-color:#755CBB"/>
		</linearGradient>
		<path opacity="0.5" fill="url(#SVGID_42_)" d="M382.1,206.6c0,0-1,22.1,8.4,24l0.5,2.4C391,233,378.8,232.5,382.1,206.6z"/>
		<linearGradient id="SVGID_43_" gradientUnits="userSpaceOnUse" x1="356.3158" y1="231.81" x2="356.3158" y2="211.62">
			<stop  offset="0" style="stop-color:#CCCCFF"/>
			<stop  offset="1" style="stop-color:#755CBB"/>
		</linearGradient>
		<path opacity="0.3" fill="url(#SVGID_43_)" d="M366.4,213.3c0,0-0.4,0.8-3.8-1.7c0,0-11.8,8.4-16.4,20.2c0,0,7.3-10.9,11.2-12
			c3.9-1.2,4.8,3.2,4.8,3.2S363.8,216.8,366.4,213.3z"/>
		<linearGradient id="SVGID_44_" gradientUnits="userSpaceOnUse" x1="182.2174" y1="203.4679" x2="182.2174" y2="195.97">
			<stop  offset="0" style="stop-color:#CCEDFF"/>
			<stop  offset="1" style="stop-color:#755CBB"/>
		</linearGradient>
		<path opacity="0.5" fill="url(#SVGID_44_)" d="M175.7,196c0,0,4.6,8.4,13.1,5.8c0,0-5.1,3.4-10.2,0.6
			C178.5,202.4,175.4,196.9,175.7,196z"/>
		<linearGradient id="SVGID_45_" gradientUnits="userSpaceOnUse" x1="202.2462" y1="226.3269" x2="202.2462" y2="185.35">
			<stop  offset="0" style="stop-color:#CCCCFF"/>
			<stop  offset="1" style="stop-color:#755CBB"/>
		</linearGradient>
		<path opacity="0.5" fill="url(#SVGID_45_)" d="M205.5,185.4c0,0,6.3,23.4-10.1,41c0,0,10.6-5.4,13-18
			C210.8,195.7,205.5,185.4,205.5,185.4z"/>
		<linearGradient id="SVGID_46_" gradientUnits="userSpaceOnUse" x1="307.6695" y1="197.4842" x2="307.6695" y2="166.6482">
			<stop  offset="0" style="stop-color:#CCEDFF"/>
			<stop  offset="1" style="stop-color:#755CBB"/>
		</linearGradient>
		<path opacity="0.5" fill="url(#SVGID_46_)" d="M317.6,166.6c0,0-0.7,10.6-5.8,18.1c-5.1,7.6-15.1,12.7-15.1,12.7
			s12.6-4.6,18.4-11.2C320.9,179.8,317.6,166.6,317.6,166.6z"/>
		<linearGradient id="SVGID_47_" gradientUnits="userSpaceOnUse" x1="267.2717" y1="193.3158" x2="267.2717" y2="150.7562">
			<stop  offset="0" style="stop-color:#CCEDFF"/>
			<stop  offset="1" style="stop-color:#755CBB"/>
		</linearGradient>
		<path opacity="0.5" fill="url(#SVGID_47_)" d="M253.2,150.8c0,0,0,8.8,2.8,17.8c2.8,9,27.5,24.7,27.5,24.7s-25.4-10.6-30.4-20.1
			C248.3,163.8,253.2,150.8,253.2,150.8z"/>
		<linearGradient id="SVGID_48_" gradientUnits="userSpaceOnUse" x1="252.901" y1="201.0999" x2="323.9855" y2="201.0999">
			<stop  offset="0" style="stop-color:#8642A0"/>
			<stop  offset="1" style="stop-color:#6456C0"/>
		</linearGradient>
		<path fill="url(#SVGID_48_)" d="M252.9,192.8v14.4c0,0,33.1-0.3,70.2,2.2l0.8-12.9C324,196.4,291.7,192.6,252.9,192.8z"/>
		<g>
			<path fill="#EBEFFF" d="M259,196.1c0-0.2,0.1-0.4,0.4-0.4l6.7,0.2c0.7,0,1.2,0.1,1.7,0.3c0.5,0.2,0.8,0.4,1.1,0.7
				s0.5,0.7,0.6,1.1c0.1,0.4,0.2,0.9,0.2,1.5l-0.1,1.8c0,0.5-0.1,1-0.2,1.5c-0.1,0.4-0.4,0.8-0.7,1.1c-0.3,0.3-0.7,0.5-1.2,0.7
				c-0.5,0.2-1,0.2-1.7,0.2l-3.6-0.1l-0.7-2.1l-0.1,0l-0.1,2.1l-2.5-0.1L259,196.1z M261.4,202.4l4.3,0.1c0.5,0,0.8-0.1,1-0.3
				c0.2-0.2,0.3-0.6,0.3-1.1l0-1.5c0-0.6-0.1-0.9-0.3-1.1c-0.2-0.2-0.5-0.3-1-0.3l-4.1-0.1c-0.1,0-0.1,0-0.1,0.1
				c0,0-0.1,0.1-0.1,0.1L261.4,202.4z"/>
			<path fill="#EBEFFF" d="M273.3,199.9L273.3,199.9l-0.2,2.7c0,0.1,0.1,0.2,0.2,0.2l7.5,0.2l-0.1,2.3l-9.9-0.3
				c-0.2,0-0.4-0.1-0.3-0.4l0.2-8.2c0-0.2,0.1-0.4,0.4-0.4l9.6,0.3c0.2,0,0.4,0.1,0.4,0.4l-0.1,2.3l-2.4,0.8l-0.1,0l0-1.2
				c0-0.1,0-0.1-0.1-0.1l-5.1-0.2c-0.1,0-0.1,0-0.1,0.1c0,0,0,0.1,0,0.1l0,1.1l4.2,0.1l-0.1,1.8l-3.5-0.1L273.3,199.9z"/>
			<path fill="#EBEFFF" d="M290,199.8L290,199.8l-0.1-1c0-0.1,0-0.1-0.1-0.2l-4.7-0.1c-0.2,0-0.3,0-0.4,0.1
				c-0.1,0.1-0.1,0.2-0.1,0.3l0,0.2c0,0.2,0,0.3,0.1,0.3c0.1,0.1,0.2,0.1,0.3,0.1l5.5,0.9c0.4,0.1,0.6,0.1,0.9,0.3
				c0.2,0.1,0.4,0.3,0.6,0.4c0.2,0.2,0.3,0.4,0.3,0.6c0.1,0.2,0.1,0.5,0.1,0.9l0,0.7c0,0.4-0.1,0.7-0.2,1c-0.1,0.3-0.3,0.5-0.5,0.7
				c-0.2,0.2-0.5,0.3-0.8,0.4c-0.3,0.1-0.8,0.1-1.2,0.1l-8-0.2l0.1-2.3l7.1,0.2c0.2,0,0.4,0,0.4-0.1c0.1-0.1,0.1-0.2,0.1-0.4l0-0.2
				c0-0.2,0-0.3-0.1-0.3c-0.1-0.1-0.2-0.1-0.3-0.1l-5.3-0.8c-0.4-0.1-0.7-0.1-0.9-0.2c-0.3-0.1-0.5-0.2-0.6-0.4
				c-0.2-0.2-0.3-0.4-0.3-0.6c-0.1-0.2-0.1-0.5-0.1-0.9l0-0.6c0-0.6,0.2-1.1,0.6-1.5c0.4-0.3,0.9-0.5,1.7-0.5l7.9,0.2
				c0.3,0,0.4,0.1,0.4,0.4l-0.1,1.8L290,199.8z"/>
			<path fill="#EBEFFF" d="M293.4,205.7l0.3-8.9l2.5,0.1l-0.3,8.9L293.4,205.7z"/>
			<path fill="#EBEFFF" d="M305.3,202.2c0-0.1,0-0.3,0-0.4c0-0.1,0-0.3,0-0.4l0-0.1l2.5,0.1l-0.1,4.4c0,0.2-0.1,0.3-0.3,0.3
				l-6.7-0.2c-0.7,0-1.2-0.1-1.7-0.3c-0.5-0.2-0.8-0.4-1.1-0.7c-0.3-0.3-0.5-0.7-0.6-1.1c-0.1-0.4-0.2-0.9-0.2-1.5l0.1-1.8
				c0-0.5,0.1-1,0.2-1.5c0.1-0.4,0.4-0.8,0.7-1.1c0.3-0.3,0.7-0.5,1.2-0.7c0.5-0.2,1-0.2,1.7-0.2l6.7,0.2c0.2,0,0.4,0.1,0.3,0.4
				l-0.1,1.9l-2.4,0.8l-0.1,0l0-0.9c0-0.1,0-0.1-0.1-0.1l-4.3-0.1c-0.2,0-0.5,0-0.6,0c-0.2,0-0.3,0.1-0.4,0.2
				c-0.1,0.1-0.2,0.3-0.2,0.4c-0.1,0.2-0.1,0.4-0.1,0.7l0,1.6c0,0.5,0.1,0.9,0.3,1.1c0.2,0.2,0.5,0.3,1,0.4l4.2,0.1
				c0.1,0,0.1,0,0.1-0.1L305.3,202.2z"/>
			<path fill="#EBEFFF" d="M313.1,197.4c0.2,0,0.3,0,0.4,0.1c0.1,0.1,0.1,0.2,0.2,0.3l3.2,6.5c0.1,0.1,0.1,0.2,0.2,0.2l0.1,0
				c0.1,0,0.2-0.1,0.2-0.2l0.2-6.7l2.3,0.1l-0.3,8.6c0,0.2-0.1,0.4-0.4,0.3l-3.6-0.1c-0.2,0-0.3,0-0.4-0.1c-0.1-0.1-0.2-0.1-0.2-0.3
				l-3.3-6.5c0-0.1-0.1-0.2-0.2-0.2l-0.1,0c-0.1,0-0.2,0.1-0.2,0.2l-0.2,6.7l-2.3-0.1l0.3-8.6c0-0.2,0.1-0.4,0.4-0.4L313.1,197.4z"
				/>
		</g>
		<linearGradient id="SVGID_49_" gradientUnits="userSpaceOnUse" x1="259.03" y1="160.08" x2="305.29" y2="160.08">
			<stop  offset="0" style="stop-color:#CCCCFF"/>
			<stop  offset="1" style="stop-color:#755CBB"/>
		</linearGradient>
		<path opacity="0.5" fill="url(#SVGID_49_)" d="M305.3,152.7c-0.8,9.3-3.6,15.8-6.6,20.2c-4.2,6-8.7,8-8.7,8
			c-4.5-2-8.4-4.4-11.8-7.1c-14.3-11.4-18.9-27.2-19.2-28.5c6,14.5,14.9,23.4,21.6,28.3c5.4,4,9.4,5.5,9.4,5.5v-4.6
			c-1.1-0.4-2.1-0.9-3.1-1.4c-11.8-6-18-18.4-20.9-26.4c0,0,0,0,0-0.1c-1.6-4.3-2.2-7.4-2.2-7.4h2.1l-0.7,1.5l0,0.1
			c0.3,1.5,0.7,3,1.2,4.4c0,0,0,0.1,0,0.1c6.6,20.8,23.6,27.5,23.6,27.5c11.8-8.7,11.6-22.5,11.6-22.5v-1.9l2.2,0.7L305.3,152.7z"/>
		<linearGradient id="SVGID_50_" gradientUnits="userSpaceOnUse" x1="377.9513" y1="229.9789" x2="377.9513" y2="203.2074">
			<stop  offset="0" style="stop-color:#CCCCFF"/>
			<stop  offset="1" style="stop-color:#755CBB"/>
		</linearGradient>
		<path opacity="0.3" fill="url(#SVGID_50_)" d="M375.3,203.2c0,0-3.2,10.5-0.2,26.8c0,0,1.5-20.7,2.7-22.5c1.1-1.8,4.3-0.9,4.3-0.9
			S377.1,203.8,375.3,203.2z"/>
		<linearGradient id="SVGID_51_" gradientUnits="userSpaceOnUse" x1="340.11" y1="260.18" x2="340.11" y2="179.11">
			<stop  offset="0" style="stop-color:#CCCCFF"/>
			<stop  offset="1" style="stop-color:#755CBB"/>
		</linearGradient>
		<path opacity="0.5" fill="url(#SVGID_51_)" d="M344.2,260.2c-2.8-2.4-6.2-6.5-9.5-13.2c-6.7-13.4-8.6-22.3-8.9-23.9l1.6-2.4
			l2.1-20.6l2-1.2c0,0,7.1-7.8,12.5-19.7c0.1,0.2,0.2,0.5,0.3,0.9v0c1.1,4.3,3.3,20.3,5.4,26c1.3,3.6,3.4,5.5,4.9,6.6
			c0,0-12.3,18.3-12.9,31.3C341,255.7,343.7,259.6,344.2,260.2z"/>
		<linearGradient id="SVGID_52_" gradientUnits="userSpaceOnUse" x1="252.95" y1="298.26" x2="252.95" y2="275.02">
			<stop  offset="0" style="stop-color:#CCCCFF"/>
			<stop  offset="1" style="stop-color:#755CBB"/>
		</linearGradient>
		<path opacity="0.5" fill="url(#SVGID_52_)" d="M271.1,298.3c0,0-22.2-3.6-31.2-9.5c0,0,0,0,0,0c0.1-0.5,0.1-1,0.1-1.5
			c-0.2-5-4.5-9.4-5.1-12.3c0.1,0.3,0.8,1.8,3.9,4.5c2,1.7,5,3.9,9.5,6.6c0.1,0.1,0.2,0.1,0.3,0.2c6.4,3.8,11.9,6.3,15.9,8.2
			c0,0,0,0,0.1,0C268.1,296.2,270.5,297.3,271.1,298.3C271.1,298.2,271.1,298.3,271.1,298.3z"/>
		<linearGradient id="SVGID_53_" gradientUnits="userSpaceOnUse" x1="298.095" y1="291.8761" x2="298.095" y2="280.59">
			<stop  offset="0" style="stop-color:#CCCCFF"/>
			<stop  offset="1" style="stop-color:#755CBB"/>
		</linearGradient>
		<path opacity="0.5" fill="url(#SVGID_53_)" d="M318.5,280.6c-0.1,0.9-2.1,2.8-2.6,4.8c0,0-8.1,8.6-38.3,6
			c0.2-0.9,6.5,0.4,21.2-2.6C313.1,286,318.2,280.9,318.5,280.6z"/>
		<path opacity="0.5" fill="#7A4AC0" d="M323.6,164l-19.3,6.2l-5.6,2.6l0,0l-3.7,0l-5,0l-3.1,0.2l-1.6,0.1l-4.7,0.4l-2.4,0.2
			l-23.1-8.4l-4.1-1.5l-19-6.9c0.6-0.2,1.1-0.4,1.7-0.7c12.8-5,25.3-11.2,25.3-11.2l4.8-5.9h2.1c1.9-4.2,3.2-8.1,4-11.2l1.3-5.7
			c0.1-0.6,0.1-0.9,0.1-0.9l6.8,3.6l22.9,18.3c0,1.2,0,2.4,0.1,3.3l0.3,2.3c0.1-0.4,0.1-0.7,0.1-0.7l2.2,0.7l1.5,3.6
			c0,0,2.6,4,12.7,8.4C319.7,161.9,321.6,162.9,323.6,164z"/>
		<g>
			<linearGradient id="SVGID_54_" gradientUnits="userSpaceOnUse" x1="297.5975" y1="146.8119" x2="297.5975" y2="69.6049">
				<stop  offset="1.598750e-02" style="stop-color:#FFC2A9"/>
				<stop  offset="1" style="stop-color:#FF9595"/>
			</linearGradient>
			<path fill="url(#SVGID_54_)" d="M308.9,146.4c0,0-9,2-18.9-2.8s-18.2-18.9-18.8-22.5c-0.5-3.5,3.8-12.8,3.8-20
				c0-7.2-3.5-19.6,2.4-26.3c5.9-6.7,33.2-7.7,42.1,0.9c0,0,2.7,6.9,2.7,10.8c0,0.9-0.2,2.3-0.4,3.9c-0.1,0.6-0.2,1.2-0.3,1.9
				c-0.8,4.7-1.9,10.5-1.4,13c0.2,0.9,0.5,1.7,0.8,2.5v0c1.1,2.5,2.7,4.5,3,6.7C324.3,117.3,320.5,137.6,308.9,146.4z"/>
			<linearGradient id="SVGID_55_" gradientUnits="userSpaceOnUse" x1="268.8155" y1="115.6572" x2="268.8155" y2="92.8947">
				<stop  offset="1.598750e-02" style="stop-color:#FFC2A9"/>
				<stop  offset="1" style="stop-color:#FF9595"/>
			</linearGradient>
			<path fill="url(#SVGID_55_)" d="M275,99.1c0,0-2.5-6.1-8.6-6.2c0,0-3.6,1.4-4.2,4.2c0,0,1.3,9.9,2.8,14.6c1.5,4.6,7.1,4,7.1,4
				S276.9,108.2,275,99.1z"/>
			<linearGradient id="SVGID_56_" gradientUnits="userSpaceOnUse" x1="308.3286" y1="124.2652" x2="309.283" y2="119.296">
				<stop  offset="0" style="stop-color:#E1616A"/>
				<stop  offset="1" style="stop-color:#FF8883"/>
			</linearGradient>
			<path fill="url(#SVGID_56_)" d="M298.6,119.4c0,0,2.1-0.2,2.9,0.5c0.9,0.7,4.1,3.8,8.2,4.6c4.1,0.9,6.8-2.6,7.7-2.8
				c0.9-0.2,1.8,1,1.8,1s-0.4-1.4-2.5-2.1c0,0-0.9,3.3-6.8,2.1c-5.9-1.1-8.4-3.7-8.4-3.7l-0.3-0.5
				C301.3,118.6,299.6,118.9,298.6,119.4z"/>
			<linearGradient id="SVGID_57_" gradientUnits="userSpaceOnUse" x1="299.7135" y1="120.4631" x2="299.7135" y2="70.7263">
				<stop  offset="0" style="stop-color:#FFEADB"/>
				<stop  offset="0.9944" style="stop-color:#C27CB6"/>
			</linearGradient>
			<path opacity="0.6" fill="url(#SVGID_57_)" d="M289.9,88.8l0.1-0.6c0,0,5.9-10.3,17.5-10.6c11.7-0.3,14.3,7,14.3,7l2.2-3.3
				l-4.9-10l-34.2-0.6l-8.3,6.7l-1.1,16.5l3.7,21.7l9,4.8l2.5-2.3c-0.9-7.3-6.4-13.9-6.4-13.9l3.9-2.7c0,0,10.1,4.9,16,3.4
				c0,0,4.4-12.9,4.2-22.4C308.5,82.6,293.4,84.8,289.9,88.8z"/>
			<path fill="#38368E" d="M289.4,89.6c0,0,0.6-3.7,6.9-5.2c7-1.7,12.7-3.1,12.7-3.1s-1.2,4.1-3.6,5.6c0,0-7.4-0.3-11.2,0.6
				C290.5,88.3,289.4,89.6,289.4,89.6z"/>
			<path fill="#38368E" d="M321.8,84.6c0,0-3.6,2.7-6,9.3c0,0,2.3-3,4.5-3c1.5,0,1.2,1.5,1.2,1.5S323,88.4,321.8,84.6z"/>
			<linearGradient id="SVGID_58_" gradientUnits="userSpaceOnUse" x1="297.2895" y1="100.0947" x2="297.2895" y2="90.2421">
				<stop  offset="0" style="stop-color:#CF6074"/>
				<stop  offset="1" style="stop-color:#F37270"/>
			</linearGradient>
			<path fill="url(#SVGID_58_)" d="M291.7,100.1c0,0,0.4-7.9,8.1-9.9c0,0,2.7,3.6,3,7.6C302.8,97.8,298.8,97.1,291.7,100.1z"/>
			<linearGradient id="SVGID_59_" gradientUnits="userSpaceOnUse" x1="316.9416" y1="103.2211" x2="316.9416" y2="94.6474">
				<stop  offset="0" style="stop-color:#CF6074"/>
				<stop  offset="1" style="stop-color:#FF817F"/>
			</linearGradient>
			<path fill="url(#SVGID_59_)" d="M313.7,103.2c0,0,0.6-6.3,4.2-8.6c0,0,2.5,1.8,2.2,7.1C320.1,101.7,318,100.9,313.7,103.2z"/>
			<path fill="#FFEBED" d="M291.7,100.1c0,0,2.5,3.1,9.5,3.7c0,0,1.3-2,1.2-6C302.4,97.8,296,97.2,291.7,100.1z"/>
			<path fill="#FFEBED" d="M313.7,103.2v0.9c0,0,1.1,2.2,4.9,2.6c0,0,1.2-1.9,1.3-5.1C320,101.7,317.5,101.1,313.7,103.2z"/>
			<path fill="#7F9EC9" d="M299.2,97.6c0,0-1.8,2.2-1.6,5.5c0,0,2.3,0.5,3.6,0.6c0,0,1.5-2.1,1.2-6
				C302.4,97.8,300.4,97.3,299.2,97.6z"/>
			<path fill="#7F9EC9" d="M317.4,101.8c0,0-1,1.1-1.2,4.4c0,0,1.4,0.6,2.5,0.6c0,0,1.4-2,1.3-5.1C320,101.7,319,101.3,317.4,101.8z
				"/>
			<path fill="#38368E" d="M298.6,103.4c0,0-0.6-4.2,1.8-5.9l2,0.3c0,0,0.7,3.4-1.2,6C301.2,103.8,299.2,103.5,298.6,103.4z"/>
			<path fill="#38368E" d="M318.3,101.6c0,0-0.9,1.9-1.3,4.8c0,0,0.7,0.3,1.7,0.3c0,0,1.4-1.7,1.3-5.1
				C320,101.7,319,101.4,318.3,101.6z"/>
			<path fill="#131163" d="M291.7,100.1c0,0,4.6-2.7,12.6-1.2l-1.5-1.1C302.8,97.8,297.2,96.1,291.7,100.1z"/>
			<path fill="#131163" d="M313.7,103.2c0,0,3.7-2,8.1-0.9L320,101C320,101,317.1,100.5,313.7,103.2z"/>
			<path fill="#FFFFFF" d="M296.8,100.1c0,0,1.3-0.3,2.4,0.9C299.2,101,297.6,101.4,296.8,100.1z"/>
			<path fill="#FFFFFF" d="M315.4,103.8c0,0,2-0.4,2.7,0.5C318.1,104.3,317,105,315.4,103.8z"/>
			<path fill="#C6659C" d="M292.2,100.6c0,0,3.6,3.6,9.4,4.4l0.1-2.1l-0.5,0.9C301.2,103.8,295.7,103.4,292.2,100.6z"/>
			<path fill="#C6659C" d="M313.7,104.1c0,0,0.6,2.3,5.3,3.3l-0.2-1.1l-0.3,0.4C318.7,106.8,315.3,106.3,313.7,104.1z"/>
			<path fill="#CB5F7D" d="M304.3,113.4c0,0,1.8-0.4,5,0c3.2,0.4,6.8,1.3,8.8,0c0,0-2.6,2.6-4.9,3c-2.3,0.4-5.7-1.6-5.7-1.6l-1.5,0
				C305.9,114.8,304.8,114.2,304.3,113.4z"/>
			<path fill="#9F4A8B" d="M306.1,114.8c0,0,0.8-0.5,1.5-0.4c0.7,0.1,1.3,1.1,1.3,1.1S307.5,114.8,306.1,114.8z"/>
			<path fill="#FFBCAF" d="M318.1,113.4c0.8-0.8-3.5-8.6-5.6-8.9c-2.1-0.3-4,8.7-4,8.7s2.9,0.4,5.7,0.8
				C317,114.3,318.1,113.4,318.1,113.4z"/>
			<linearGradient id="SVGID_60_" gradientUnits="userSpaceOnUse" x1="317.7484" y1="108.21" x2="317.7484" y2="88.9167">
				<stop  offset="0" style="stop-color:#FFEADB"/>
				<stop  offset="0.9944" style="stop-color:#C27CB6"/>
			</linearGradient>
			<path opacity="0.6" fill="url(#SVGID_60_)" d="M321.2,88.9c-1.2-0.2-5.4,4.9-5.4,4.9s-2.6,8.2-2.1,10.6c0.5,2.4,7,3.7,7,3.7
				l0.3-0.4v0c-0.3-0.8-0.6-1.6-0.8-2.5c-0.5-2.5,0.6-8.3,1.4-13c0,0,0.3-1,0.3-1.9C321.9,89.7,321.8,89,321.2,88.9z"/>
			<linearGradient id="SVGID_61_" gradientUnits="userSpaceOnUse" x1="298.6336" y1="147.7828" x2="298.6336" y2="54.15">
				<stop  offset="0" style="stop-color:#2E33A0"/>
				<stop  offset="1" style="stop-color:#0665A5"/>
			</linearGradient>
			<path fill="url(#SVGID_61_)" d="M321,122.3c-1.3-2.8-0.5-4.2-12.1-5.7c-16.4-2.1-17.8,2.8-20.5,2.1c-0.1,0-0.2-0.1-0.3-0.1
				c-3-1.2-10.1-8.1-10.3-17.5c-0.2-9.8,6.4-16.7,6.4-16.7c-2.4-2-3.3-7.8-0.8-10.2c2.6-2.5,6.9-1.9,17.6-0.8
				c10.7,1.1,10.7,0.5,10.7,0.5c3.4,0.9,5.4,4.1,5.9,5.1c0.1,0.2,0.2,0.3,0.2,0.3l1.3-1.2c3.6,5.2,2.9,10.9,2.9,10.9
				s5.9-11.9,5.2-13.6c-1.2-3.1-4.6-7.7-4.8-8l0,0c0,0-1-9.1-3.8-9.1s-15,2.7-15,2.7c1.3-3.1,1.1-6.7,1.1-6.7s0,0-0.1,0
				c-4,3.5-7.8,3.9-13.3,6.5c-2.8,1.3-4.1,2.5-5.1,3.7l-0.4,0.4l-0.4,0.5c-0.4,0.5-0.8,1-1.2,1.5c0,0,0,0.1-0.1,0.1c0,0,0,0,0,0
				c-0.4,0.5-1,1-1.6,1.5c-3.6,2.9-11.5,4.9-12.5,8c-0.9,3.1,1.2,7.3,2.3,11.7c1.1,4.4,0.6,8.2,0.6,8.2s3.8,4.9,2.5,12
				c-1.1,6.4-3.5,7.4-3.5,7.4c-1.7,3.5-0.9,6.8-0.9,6.8c3.5,13.9,18,22.2,18,22.2c12.9,4.8,21.4,2.7,21.4,2.7s0,0,0,0
				c9.4-6.1,12.6-26.3,12.7-27.3C323.1,120.3,321.4,123,321,122.3z M315.2,135.1c-2.3-0.4-2.8-6.1-3.5-6.9c-0.8-0.7-4.9-0.4-4.9-0.4
				s-3.8,4.3-5.3,4.4c-1.5,0.1-9.6-3.2-7.9-8.1c1.7-4.9,7.9-5.6,7.9-5.6s3.2,2.7,7.9,3c4.7,0.3,6.5-0.6,7-0.8
				c0.6-0.3,3.6,1.1,3.5,5.4C320,129.2,317.5,135.5,315.2,135.1z"/>
			<path fill="#D2726C" d="M314.7,106.2c0,0,4.1,5.1,3.7,7c-0.4,2.1-5.2,3.2-5.2,3.2s3.8-1.3,4.6-3.2
				C317.8,113.2,316.8,109.3,314.7,106.2z"/>
			<linearGradient id="SVGID_62_" gradientUnits="userSpaceOnUse" x1="323.2267" y1="88.82" x2="323.2267" y2="67.22">
				<stop  offset="0" style="stop-color:#FFEADB"/>
				<stop  offset="0.9944" style="stop-color:#8860C7"/>
			</linearGradient>
			<path opacity="0.6" fill="url(#SVGID_62_)" d="M322.1,88.8c0,0,0.7-5.7-2.9-10.9c2.9-5.2,3.3-10.7,3.3-10.7l0,0
				c1,2.4,1.5,7.1,1.5,7.1l3.3,0.9C327.9,76.9,322.1,88.8,322.1,88.8z"/>
			<linearGradient id="SVGID_63_" gradientUnits="userSpaceOnUse" x1="293.792" y1="147.7828" x2="293.792" y2="54.15">
				<stop  offset="0" style="stop-color:#CCC2DB"/>
				<stop  offset="0.9944" style="stop-color:#8860C7"/>
			</linearGradient>
			<path opacity="0.6" fill="url(#SVGID_63_)" d="M317.6,78.8c-0.6-1-2.5-4.2-5.9-5.1c0,0,0,0.7-10.7-0.5
				c-10.7-1.1-15.1-1.7-17.6,0.8c-2.6,2.5-1.6,8.2,0.8,10.2c0,0-6.5,6.9-6.4,16.7c0.2,9.4,7.3,16.4,10.3,17.5l-0.1,1
				c0,0,0.5,21.5,5.8,23.2c5.2,1.7,16.1,0.8,17.1,1.8c1,1-0.1,2.6-0.2,2.8c0,0,0,0,0,0s-8.5,2.1-21.4-2.7c0,0-14.5-8.3-18-22.2
				c0,0-0.8-3.3,0.9-6.8c0,0,2.4-1,3.5-7.4c1.2-7.1-2.5-12-2.5-12s0.5-3.8-0.6-8.2c-1.1-4.4-3.3-8.6-2.3-11.7c6.1,1,10-2.2,10-2.2
				s1.1-1.5,5.8-2.2c4.7-0.8,23.5,1.1,23.5,1.1s-1.9-1.6-5.9-2.6c-3.8-1-16.6,0.2-18,0.3c1.5-0.3,16-2.8,17.7-2.3
				c1.8,0.5,8.1,3.4,8.1,3.4c-0.6-2.9-6.2-9.9-6.2-9.9s-8,0.1-13.2,1.2c-4.6,1-7.2,3.1-7.7,3.5l1.2-1.5l0.4-0.5l0.4-0.4l1.8-0.3
				l9.1-3.7c3.1-1.6,7-5.7,7.5-6.2c0,0,0.1,0,0.1,0s0.2,3.6-1.1,6.7c7.7-1,10.3-0.5,10.3-0.5C317.5,65.4,317.6,78.8,317.6,78.8z"/>
			<linearGradient id="SVGID_64_" gradientUnits="userSpaceOnUse" x1="300.0704" y1="147.7607" x2="300.0704" y2="143.7378">
				<stop  offset="0" style="stop-color:#776D7E"/>
				<stop  offset="1" style="stop-color:#9D68C2"/>
			</linearGradient>
			<path opacity="0.5" fill="url(#SVGID_64_)" d="M289.2,144.6c0,0,4.7-1.1,11.9-0.8c7.1,0.3,11.2,0.3,9.5,3.5
				C310.5,147.3,301.6,149.4,289.2,144.6z"/>
			<linearGradient id="SVGID_65_" gradientUnits="userSpaceOnUse" x1="311.8728" y1="60.87" x2="311.8728" y2="57.8813">
				<stop  offset="0" style="stop-color:#1F77D1"/>
				<stop  offset="1" style="stop-color:#0686C9"/>
			</linearGradient>
			<path fill="url(#SVGID_65_)" d="M314,60.4c0,0,4.3-1.7,6.1-1.4c0,0-0.7-0.9-1.4-1.1c-0.7-0.2-15,3-15,3S312.6,59.8,314,60.4z"/>
			<linearGradient id="SVGID_66_" gradientUnits="userSpaceOnUse" x1="292.8336" y1="70.71" x2="292.8336" y2="61.8734">
				<stop  offset="0" style="stop-color:#1F77D1"/>
				<stop  offset="1" style="stop-color:#0686C9"/>
			</linearGradient>
			<path fill="url(#SVGID_66_)" d="M305.2,62c0,0-0.3,4.7-1.9,6.4l-17.7,2.3l-5.2-0.9c0,0,2-0.9,4.2-3.4
				C286.9,63.8,298.4,61.3,305.2,62z"/>
			<linearGradient id="SVGID_67_" gradientUnits="userSpaceOnUse" x1="324.855" y1="75.19" x2="324.855" y2="67.22">
				<stop  offset="0" style="stop-color:#1F77D1"/>
				<stop  offset="1" style="stop-color:#0686C9"/>
			</linearGradient>
			<path fill="url(#SVGID_67_)" d="M322.4,67.2c0,0,1.4,4.7,1.5,7.1l3.3,0.9C327.3,75.2,326.3,71.7,322.4,67.2z"/>
			<linearGradient id="SVGID_68_" gradientUnits="userSpaceOnUse" x1="272.1304" y1="110.2623" x2="261.9347" y2="97.7712">
				<stop  offset="0" style="stop-color:#FFEADB"/>
				<stop  offset="0.9944" style="stop-color:#B060F4"/>
			</linearGradient>
			<path opacity="0.8" fill="url(#SVGID_68_)" d="M274.2,107.5c0,0-1.2-6-4.3-8.9c-3-3-6.5-2-6.5-2s0.9,11.1,1.9,13.8
				c1,2.7,2.5,3.4,2.5,3.4s-2.1-1.9-2.4-5.5c-0.3-3.7-0.4-8.8,0.4-9.4c0.8-0.6,4.1,1.8,4.1,1.8s-1,1.3-1.6,4.5
				c-0.6,3.3,1.7,5.6,2.5,5.6c0.9,0,0-3.8,0.1-4.8C271,104.7,272.9,105,274.2,107.5z"/>
			<linearGradient id="SVGID_69_" gradientUnits="userSpaceOnUse" x1="273.1978" y1="108.6533" x2="268.1812" y2="102.5073">
				<stop  offset="0" style="stop-color:#FFEADB"/>
				<stop  offset="0.9944" style="stop-color:#B060F4"/>
			</linearGradient>
			<path opacity="0.8" fill="url(#SVGID_69_)" d="M271.2,100.1c0,0-3.3,2.2-3,6.7c0.4,4.5,2.9,4.3,2.9,3.3c0-0.9-0.5-3.4-0.2-4.7
				c0.3-1.4,2.5-0.8,2.5-0.8S271.9,101,271.2,100.1z"/>
			<path fill="#34C7FF" d="M323.3,120.1c0,0-4.1,18.9-12.7,27.3C310.5,147.3,320.3,143.5,323.3,120.1z"/>
			<path fill="#34C7FF" d="M318.7,57.9c0,0,2.2,1.7,2.6,7.6c0.4,5.9-2.1,12.4-2.1,12.4s3.3-4.9,3.6-10.3
				C323,62.3,320.4,58.6,318.7,57.9z"/>
		</g>
		<linearGradient id="SVGID_70_" gradientUnits="userSpaceOnUse" x1="292.2432" y1="71.5004" x2="309.51" y2="71.5004">
			<stop  offset="0" style="stop-color:#1F77D1"/>
			<stop  offset="1" style="stop-color:#0686C9"/>
		</linearGradient>
		<path fill="url(#SVGID_70_)" d="M292.2,70.2c0,0,5,1.7,10.6,2.2s6.7,0.6,6.7,0.6s-2.2-2.2-7-2.8C297.8,69.6,292.2,70.2,292.2,70.2
			z"/>
		<linearGradient id="SVGID_71_" gradientUnits="userSpaceOnUse" x1="316.5974" y1="123.1387" x2="321.8345" y2="123.1387">
			<stop  offset="0" style="stop-color:#1F77D1"/>
			<stop  offset="1" style="stop-color:#0686C9"/>
		</linearGradient>
		<path fill="url(#SVGID_71_)" d="M316.6,120.5c0,0,2.4,0,3.4,3c0.8,2.4,1,4.5,1,4.5l0.9-3.3c0,0-1.1-4.2-2.3-5.2
			c-0.8-0.7-2.3-1.4-3-1.2L316.6,120.5z"/>
		<linearGradient id="SVGID_72_" gradientUnits="userSpaceOnUse" x1="310.1316" y1="119.2445" x2="315.7802" y2="119.2445">
			<stop  offset="0" style="stop-color:#1F77D1"/>
			<stop  offset="1" style="stop-color:#0686C9"/>
		</linearGradient>
		<path fill="url(#SVGID_72_)" d="M310.1,117.4l0.4,3.6c0,0,2.9,0.2,4.9-0.6l0.3-2.2C315.8,118.3,312,117.3,310.1,117.4z"/>
		<path fill="#34C7FF" d="M323.6,164c0,0,17.2,12.6,19.5,16.9c2.2,4.3,3.1,17.9,6.2,23.8c0,0-2.1-9.6-3.5-17.1
			c-1.5-7.5-1.1-7.6-1.9-9.5C343,176.2,330.1,167.2,323.6,164z"/>
		<path fill="#34C7FF" d="M320.5,234c0,0-8.3,35.5-7.9,37.9c0.4,2.4,5.8,7.3,6,8.6c0,0-4.1,5.5-3.9,6.7s7.2,8.9,7,11.3
			c-0.1,0.7-4.6,8.2-4.6,8.2s5.1-7.4,5.4-8.5c0.3-1.2-6.3-11-6.5-12c-0.5-2.6,3.3-4.5,3.4-6.2c0.1-1.7-5.1-5.9-5.1-8.7
			C314.2,268.6,320.5,234,320.5,234z"/>
		<path fill="#34C7FF" d="M322.2,318.7c0,0,17.9,40.6,24.1,81.3C346.2,400,345.2,360.3,322.2,318.7z"/>
		<path fill="#FFBCAF" d="M208.4,155.8c0,0-4.6-1-6.6-5c-1.9-4.1-0.7-9.9-0.7-9.9s3.6,7,5.4,9.4
			C208.4,152.6,208.9,155.3,208.4,155.8z"/>
	</g>
	<g clip-path="url(#SVGID_2_)">
		<path opacity="0.6" fill="#36D1F7" d="M351.7,134.6l3.2,91.8c0.1,3.6,3.1,6.5,6.8,6.5h158.1c3.7,0,6.7-2.9,6.8-6.6l2.2-92.9
			c0.1-3.8-3-7-6.8-6.9l-163.6,1.1C354.6,127.6,351.5,130.8,351.7,134.6z"/>
		<g>
			<path fill="#744CA2" d="M519.8,233.2H361.6c-3.8,0-6.9-3-7-6.8l-3.2-91.8c-0.1-1.9,0.6-3.7,1.9-5.1c1.3-1.4,3.1-2.1,5-2.2
				l163.6-1.1c1.9,0,3.7,0.7,5,2.1c1.3,1.4,2.1,3.2,2,5.1l-2.2,92.9C526.7,230.2,523.6,233.2,519.8,233.2z M522,126.8
				C522,126.8,522,126.8,522,126.8l-163.6,1.1c-1.8,0-3.4,0.7-4.7,2c-1.2,1.3-1.9,3-1.8,4.7l3.2,91.8c0.1,3.5,3,6.3,6.5,6.3h158.1
				c3.5,0,6.4-2.9,6.5-6.4l2.2-92.9c0-1.8-0.6-3.5-1.9-4.7C525.4,127.5,523.7,126.8,522,126.8z"/>
		</g>
		<linearGradient id="SVGID_73_" gradientUnits="userSpaceOnUse" x1="351.7959" y1="132.9462" x2="528.8544" y2="132.9462">
			<stop  offset="0" style="stop-color:#9D68C2"/>
			<stop  offset="1" style="stop-color:#AEC2FF"/>
		</linearGradient>
		<path opacity="0.6" fill="url(#SVGID_73_)" d="M351.9,139.3h176.7l0.3-4.8c0.3-4.3-3.2-7.9-7.5-7.8l-163.5,1.3
			c-3.4,0-6.1,2.8-6.1,6.2L351.9,139.3z"/>
		<linearGradient id="SVGID_74_" gradientUnits="userSpaceOnUse" x1="387.814" y1="199.8196" x2="387.814" y2="146.4174">
			<stop  offset="0" style="stop-color:#CCEDFF"/>
			<stop  offset="1" style="stop-color:#9D68C2"/>
		</linearGradient>
		<polygon opacity="0.3" fill="url(#SVGID_74_)" points="360.8,146.7 360.8,199.8 414.9,199.8 414.9,146.4 		"/>
		<linearGradient id="SVGID_75_" gradientUnits="userSpaceOnUse" x1="478.8728" y1="173.7835" x2="478.8728" y2="150.2609">
			<stop  offset="0" style="stop-color:#CCEDFF"/>
			<stop  offset="1" style="stop-color:#9D68C2"/>
		</linearGradient>
		<rect x="467.1" y="150.3" opacity="0.3" fill="url(#SVGID_75_)" width="23.5" height="23.5"/>
		<linearGradient id="SVGID_76_" gradientUnits="userSpaceOnUse" x1="506.6263" y1="173.7835" x2="506.6263" y2="150.2609">
			<stop  offset="0" style="stop-color:#CCEDFF"/>
			<stop  offset="1" style="stop-color:#9D68C2"/>
		</linearGradient>
		<rect x="494.9" y="150.3" opacity="0.3" fill="url(#SVGID_76_)" width="23.5" height="23.5"/>
		<linearGradient id="SVGID_77_" gradientUnits="userSpaceOnUse" x1="450.6556" y1="173.7835" x2="450.6556" y2="150.2609">
			<stop  offset="0" style="stop-color:#CCEDFF"/>
			<stop  offset="1" style="stop-color:#9D68C2"/>
		</linearGradient>
		<rect x="438.9" y="150.3" opacity="0.3" fill="url(#SVGID_77_)" width="23.5" height="23.5"/>
		<rect x="458.2" y="187.5" fill="#D1D4FB" width="60.2" height="5.6"/>
		<rect x="443.2" y="196.1" fill="#D1D4FB" width="75.2" height="1.7"/>
		<rect x="443.9" y="176.8" fill="#D1D4FB" width="14.4" height="1.7"/>
		<rect x="471.7" y="176.8" fill="#D1D4FB" width="14.4" height="1.7"/>
		<rect x="499.4" y="176.8" fill="#D1D4FB" width="14.4" height="1.7"/>
		<rect x="438.9" y="198.9" fill="#D1D4FB" width="24.2" height="1.7"/>
		<rect x="443.2" y="201.7" fill="#D1D4FB" width="75.2" height="1.7"/>
		<rect x="438.9" y="204.5" fill="#D1D4FB" width="79.5" height="1.7"/>
		<rect x="438.9" y="207.3" fill="#D1D4FB" width="79.5" height="1.7"/>
		<rect x="443.2" y="218.6" fill="#D1D4FB" width="75.2" height="1.7"/>
		<rect x="438.9" y="221.4" fill="#D1D4FB" width="79.5" height="1.7"/>
		<rect x="438.9" y="224.2" fill="#D1D4FB" width="79.5" height="1.7"/>
		<rect x="438.9" y="210.1" fill="#D1D4FB" width="76.3" height="1.7"/>
		<rect x="443.2" y="212.9" fill="#D1D4FB" width="75.2" height="1.7"/>
		<rect x="438.9" y="215.7" fill="#D1D4FB" width="64.4" height="1.7"/>
		<g>
			<path fill="#E0FFFF" d="M375.9,189.2c-8.5,0-15.4-6.9-15.4-15.4c0-8.5,6.9-15.4,15.4-15.4c8.5,0,15.4,6.9,15.4,15.4
				C391.3,182.3,384.4,189.2,375.9,189.2z M375.9,159.4c-7.9,0-14.4,6.5-14.4,14.4c0,7.9,6.5,14.4,14.4,14.4
				c7.9,0,14.4-6.5,14.4-14.4C390.3,165.9,383.9,159.4,375.9,159.4z"/>
		</g>
		<circle fill="#FFFFFF" cx="375.9" cy="173.8" r="8.4"/>
		<g>
			<path fill="#E0FFFF" d="M414.9,161.8c-8.5,0-15.4-6.9-15.4-15.4c0-8.5,6.9-15.4,15.4-15.4c8.5,0,15.4,6.9,15.4,15.4
				C430.2,154.9,423.3,161.8,414.9,161.8z M414.9,132c-7.9,0-14.4,6.5-14.4,14.4c0,7.9,6.5,14.4,14.4,14.4c7.9,0,14.4-6.5,14.4-14.4
				C429.2,138.5,422.8,132,414.9,132z"/>
		</g>
		
			<ellipse transform="matrix(0.1554 -0.9878 0.9878 0.1554 205.7285 533.4673)" fill="#FFFFFF" cx="414.9" cy="146.4" rx="7.9" ry="7.9"/>
		<g>
			<polygon fill="#FFFFFF" points="358.1,132.1 359.2,130.4 365.3,135.7 364.4,137 			"/>
			<polygon fill="#FFFFFF" points="365.4,132.1 364.3,130.4 358.2,135.7 359.2,137 			"/>
		</g>
		<rect x="469.8" y="131.5" fill="#FFFFFF" width="54.4" height="2.7"/>
	</g>
	<g clip-path="url(#SVGID_2_)">
		<linearGradient id="SVGID_78_" gradientUnits="userSpaceOnUse" x1="197.668" y1="115.9874" x2="197.668" y2="91.3654">
			<stop  offset="0" style="stop-color:#D93DE3"/>
			<stop  offset="1" style="stop-color:#FF6DBA"/>
		</linearGradient>
		<polygon fill="url(#SVGID_78_)" points="183.3,92.1 183.3,115.7 211.6,116 212,91.4 		"/>
		<linearGradient id="SVGID_79_" gradientUnits="userSpaceOnUse" x1="212.7179" y1="115.9874" x2="212.7179" y2="91.3654">
			<stop  offset="0" style="stop-color:#A242EA"/>
			<stop  offset="1" style="stop-color:#FE117E"/>
		</linearGradient>
		<polygon fill="url(#SVGID_79_)" points="212,91.4 213.8,94.5 212.9,116 211.6,116 		"/>
		<polygon fill="#FFFFFF" points="188.4,100.1 191,96.3 205.1,108.2 203,111 		"/>
		<polygon fill="#FFFFFF" points="205.5,100.1 202.9,96.3 188.8,108.2 190.9,111 		"/>
	</g>
	<g clip-path="url(#SVGID_2_)">
		<linearGradient id="SVGID_80_" gradientUnits="userSpaceOnUse" x1="193.3956" y1="375.37" x2="206.7105" y2="269.3559">
			<stop  offset="0" style="stop-color:#067EFF"/>
			<stop  offset="1" style="stop-color:#3E37A0"/>
		</linearGradient>
		<path opacity="0.81" fill="url(#SVGID_80_)" d="M249.3,370.2h-96.7c-4.3,0-7.8-3.4-7.9-7.7l-1.8-79.3c-0.1-4.4,3.5-8.1,7.9-8.1
			h100.7c4.5,0,8,3.7,7.9,8.1l-2.2,79.3C257.1,366.8,253.6,370.2,249.3,370.2z"/>
		<g>
			<path fill="#473DA2" d="M249.3,370.4h-96.7c-4.4,0-8.1-3.6-8.2-8l-1.8-79.3c-0.1-2.2,0.8-4.3,2.3-5.9c1.5-1.6,3.6-2.5,5.8-2.5
				h100.7c2.2,0,4.3,0.9,5.9,2.5c1.6,1.6,2.4,3.7,2.3,5.9l-2.2,79.3C257.3,366.9,253.7,370.4,249.3,370.4z M150.8,275.3
				c-2.1,0-4,0.8-5.5,2.3c-1.5,1.5-2.2,3.5-2.2,5.5l1.8,79.3c0.1,4.1,3.5,7.5,7.7,7.5h96.7c4.2,0,7.6-3.3,7.7-7.5l2.2-79.3
				c0.1-2.1-0.7-4.1-2.2-5.6c-1.5-1.5-3.4-2.3-5.5-2.3H150.8z"/>
		</g>
		<g>
			<rect x="168.9" y="291.3" fill="#FFFFFF" width="50.8" height="2.2"/>
			<rect x="168.9" y="296.6" fill="#FFFFFF" width="25.4" height="2.2"/>
			<rect x="168.9" y="301" fill="#FFFFFF" width="25.4" height="2.2"/>
			<rect x="197.2" y="301" fill="#FFFFFF" width="20.2" height="2.2"/>
			<rect x="168.9" y="305.4" fill="#FFFFFF" width="41" height="2.2"/>
			<rect x="168.9" y="309.8" fill="#FFFFFF" width="14.6" height="2.2"/>
			<rect x="186.5" y="323.1" fill="#FFFFFF" width="25.2" height="2.2"/>
			<rect x="168.9" y="314.2" fill="#FFFFFF" width="45.7" height="2.2"/>
			<rect x="168.9" y="318.7" fill="#FFFFFF" width="35.2" height="2.2"/>
			<rect x="168.9" y="323.1" fill="#FFFFFF" width="16.5" height="2.2"/>
			<rect x="168.9" y="327.5" fill="#FFFFFF" width="25.4" height="2.2"/>
			<rect x="168.9" y="331.9" fill="#FFFFFF" width="7.3" height="2.2"/>
			<rect x="179.2" y="331.9" fill="#FFFFFF" width="26.5" height="2.2"/>
			<rect x="186.5" y="336.2" fill="#FFFFFF" width="25.2" height="2.2"/>
			<rect x="168.9" y="336.2" fill="#FFFFFF" width="16.5" height="2.2"/>
			<rect x="168.9" y="340.6" fill="#FFFFFF" width="25.4" height="2.2"/>
			<rect x="168.9" y="345.1" fill="#FFFFFF" width="7.3" height="2.2"/>
			<rect x="179.2" y="345.1" fill="#FFFFFF" width="26.5" height="2.2"/>
		</g>
	</g>
	<linearGradient id="SVGID_81_" gradientUnits="userSpaceOnUse" x1="504.249" y1="113.3083" x2="504.249" y2="104.3711">
		<stop  offset="0" style="stop-color:#459FFF"/>
		<stop  offset="1" style="stop-color:#A96DFF"/>
	</linearGradient>
	<path clip-path="url(#SVGID_2_)" fill="url(#SVGID_81_)" d="M508.7,108.8c0,2.5-2,4.5-4.5,4.5c-2.5,0-4.5-2-4.5-4.5s2-4.5,4.5-4.5
		C506.7,104.4,508.7,106.4,508.7,108.8z"/>
	<linearGradient id="SVGID_82_" gradientUnits="userSpaceOnUse" x1="84.2557" y1="218.0383" x2="84.2557" y2="206.915">
		<stop  offset="0" style="stop-color:#459FFF"/>
		<stop  offset="1" style="stop-color:#A96DFF"/>
	</linearGradient>
	<path clip-path="url(#SVGID_2_)" fill="url(#SVGID_82_)" d="M89.8,212.5c0,3.1-2.5,5.6-5.6,5.6s-5.6-2.5-5.6-5.6s2.5-5.6,5.6-5.6
		S89.8,209.4,89.8,212.5z"/>
	<linearGradient id="SVGID_83_" gradientUnits="userSpaceOnUse" x1="517.3742" y1="113.3083" x2="517.3742" y2="104.3711">
		<stop  offset="0" style="stop-color:#B31A8F"/>
		<stop  offset="1" style="stop-color:#FE117E"/>
	</linearGradient>
	<circle clip-path="url(#SVGID_2_)" fill="url(#SVGID_83_)" cx="517.4" cy="108.8" r="4.5"/>
	<linearGradient id="SVGID_84_" gradientUnits="userSpaceOnUse" x1="229.2033" y1="142.7256" x2="229.2033" y2="136.406">
		<stop  offset="0" style="stop-color:#B31A8F"/>
		<stop  offset="1" style="stop-color:#FE117E"/>
	</linearGradient>
	<circle clip-path="url(#SVGID_2_)" fill="url(#SVGID_84_)" cx="229.2" cy="139.6" r="3.2"/>
	<linearGradient id="SVGID_85_" gradientUnits="userSpaceOnUse" x1="440.8599" y1="282.1632" x2="440.8599" y2="275.8436">
		<stop  offset="0" style="stop-color:#8642A0"/>
		<stop  offset="1" style="stop-color:#6456C0"/>
	</linearGradient>
	<circle clip-path="url(#SVGID_2_)" fill="url(#SVGID_85_)" cx="440.9" cy="279" r="3.2"/>
	<linearGradient id="SVGID_86_" gradientUnits="userSpaceOnUse" x1="112.3383" y1="313.3327" x2="112.3383" y2="307.6831">
		<stop  offset="0" style="stop-color:#8642A0"/>
		<stop  offset="1" style="stop-color:#6456C0"/>
	</linearGradient>
	<circle clip-path="url(#SVGID_2_)" fill="url(#SVGID_86_)" cx="112.3" cy="310.5" r="2.8"/>
	<g clip-path="url(#SVGID_2_)">
		<linearGradient id="SVGID_87_" gradientUnits="userSpaceOnUse" x1="136.0431" y1="282.7714" x2="136.0431" y2="236.1088">
			<stop  offset="0" style="stop-color:#D906E3"/>
			<stop  offset="1" style="stop-color:#FF6DF9"/>
		</linearGradient>
		<path opacity="0.73" fill="url(#SVGID_87_)" d="M160.5,282.8h-48.8c-3.9,0-7.1-3.1-7.3-7l-1.1-32.1c-0.1-4.1,3.2-7.5,7.3-7.5h50.9
			c4.1,0,7.4,3.4,7.3,7.5l-1,32.1C167.7,279.6,164.4,282.8,160.5,282.8z"/>
		<g>
			<path fill="#953DA2" d="M160.5,283h-48.8c-4.1,0-7.4-3.2-7.5-7.3l-1.1-32.1c-0.1-2.1,0.7-4,2.1-5.5c1.4-1.5,3.4-2.3,5.4-2.3h50.9
				c2.1,0,4,0.8,5.4,2.3c1.4,1.5,2.2,3.4,2.1,5.5l-1,32.1C167.9,279.8,164.6,283,160.5,283z M110.6,236.4c-1.9,0-3.7,0.8-5.1,2.1
				s-2,3.2-2,5.1l1.1,32.1c0.1,3.8,3.2,6.8,7,6.8h48.8c3.8,0,6.9-3,7-6.8l1-32.1c0.1-1.9-0.6-3.7-2-5.1c-1.3-1.4-3.1-2.1-5-2.1
				H110.6z"/>
		</g>
		<g>
			<polygon fill="#FFFFFF" points="124.7,247.6 112.7,261.6 124.9,272 124.9,266.6 117.8,260.5 124.4,253 			"/>
		</g>
		<g>
			<polygon fill="#FFFFFF" points="145.9,248.3 157.9,262.2 145.6,272.6 145.6,267.2 152.7,261.1 144.8,252.8 			"/>
		</g>
		<g>
			<polygon fill="#FFFFFF" points="127.3,272 137.8,248.9 142.7,248.9 130.9,272 			"/>
		</g>
	</g>
	<g clip-path="url(#SVGID_2_)">
		<linearGradient id="SVGID_88_" gradientUnits="userSpaceOnUse" x1="458.2341" y1="348.8215" x2="458.2341" y2="290.4473">
			<stop  offset="0" style="stop-color:#D906E3"/>
			<stop  offset="1" style="stop-color:#FF6DF9"/>
		</linearGradient>
		<path opacity="0.73" fill="url(#SVGID_88_)" d="M488.8,348.8h-61c-4.9,0-8.9-3.9-9.1-8.8l-1.4-40.2c-0.2-5.1,4-9.4,9.1-9.4H490
			c5.1,0,9.3,4.3,9.1,9.4l-1.2,40.2C497.8,344.9,493.7,348.8,488.8,348.8z"/>
		<g>
			<path fill="#953DA2" d="M488.8,349.1h-61c-5.1,0-9.2-4-9.4-9l-1.4-40.2c-0.1-2.6,0.8-5,2.6-6.8c1.8-1.8,4.2-2.9,6.7-2.9H490
				c2.6,0,4.9,1,6.7,2.8c1.8,1.8,2.7,4.3,2.6,6.8l-1.2,40.2C498,345.1,493.9,349.1,488.8,349.1z M426.4,290.7c-2.4,0-4.7,1-6.4,2.7
				c-1.7,1.7-2.6,4-2.5,6.5l1.4,40.2c0.2,4.8,4.1,8.6,8.9,8.6h61c4.8,0,8.7-3.8,8.9-8.6l1.2-40.2c0.1-2.4-0.8-4.7-2.5-6.4
				c-1.7-1.7-3.9-2.7-6.4-2.7H426.4z"/>
		</g>
		<rect x="429.5" y="296.9" fill="#D1D4FB" width="55.9" height="33.2"/>
		<polygon fill="#FFFFFF" points="452.6,305.2 452.6,321.9 466.8,312.7 		"/>
		<rect x="429.5" y="336.2" fill="#D1D4FB" width="55.9" height="3"/>
		<rect x="429.5" y="336.2" fill="#FFFFFF" width="14.5" height="3"/>
	</g>
	<g clip-path="url(#SVGID_2_)">
		<g>
			
				<linearGradient id="SVGID_89_" gradientUnits="userSpaceOnUse" x1="404.3205" y1="275.2039" x2="399.3466" y2="232.5129" gradientTransform="matrix(0.9656 0.26 -0.26 0.9656 63.6333 -54.681)">
				<stop  offset="0" style="stop-color:#1852A0"/>
				<stop  offset="1" style="stop-color:#067ED3"/>
			</linearGradient>
			<path fill-rule="evenodd" clip-rule="evenodd" fill="url(#SVGID_89_)" d="M388.6,286.4l-2.9,8.3
				C387.3,290.1,389.6,287.2,388.6,286.4z M385.7,294.8l-2.9,8.3C383.5,302.9,384.1,299.4,385.7,294.8z M388.6,286.4l-2.9,8.3
				C387.3,290.1,389.6,287.2,388.6,286.4z M385.7,294.8l-2.9,8.3C383.5,302.9,384.1,299.4,385.7,294.8z M394.1,302l2.8,1.6l3.1-8.4
				l-3.3-0.5c0.1-0.3,0.1-0.6,0.2-0.9c0.2-1.4,0.3-2.8,0.3-4.2l3.4-2.2l-1.6-7.4l-3.3,3.1c-0.5-0.9-1-1.8-1.7-2.4
				c-0.2-0.2-0.4-0.4-0.6-0.6l2-4.6l-5.3-1.7l0,0l-1.3,4.7c-1.2,0-2.4,0.3-3.6,0.8l-0.6-4.4l-5.9,4.5l1.4,3.9
				c-1.1,1.2-2,2.6-2.9,4.2l-2.8-1.6l-3.1,8.4l3.3,0.5c-0.3,1.8-0.5,3.5-0.4,5.1l-3.4,2.2l1.6,7.4l3.3-3.1c0.6,1.2,1.3,2.2,2.3,3
				l-2,4.6l5.3,2.1l0.8-3l0.6-2c1.2,0,2.4-0.3,3.6-0.8l0.6,4.4l5.9-4.5l-1.4-3.9c0.8-1,1.6-2,2.3-3.2
				C393.7,302.7,393.9,302.3,394.1,302z M385.7,294.8c-1.6,4.6,0,9.4-2.9,8.3c-2.9-1-4-5.6-2.4-10.2c1.6-4.6,5.3-7.5,8.2-6.5
				C391.5,287.4,387.3,290.1,385.7,294.8z M388.6,286.4l-2.9,8.3C387.3,290.1,389.6,287.2,388.6,286.4z M385.7,294.8l-2.9,8.3
				C383.5,302.9,384.1,299.4,385.7,294.8z"/>
		</g>
		
			<linearGradient id="SVGID_90_" gradientUnits="userSpaceOnUse" x1="399.4991" y1="275.3656" x2="399.4991" y2="231.6211" gradientTransform="matrix(0.9656 0.26 -0.26 0.9656 63.6333 -54.681)">
			<stop  offset="0" style="stop-color:#1852A0"/>
			<stop  offset="1" style="stop-color:#067ED3"/>
		</linearGradient>
		<path fill-rule="evenodd" clip-rule="evenodd" fill="url(#SVGID_90_)" d="M396.9,303.6l3.1-8.4l-3.1-1.5l-0.5-0.2l0.3-4.6l3.5-1.7
			l-1.1-7.1l-7.5-2.5l1.4,3.3l2.6-5.4l-5.3-1.7l-2.2-0.7l-5.3-2.1l-1,3.6l-4.6-2.2l-5.9,4.5l1.8,4.8l-5.5,15.3l-2.7,9.9l5.2,0.6
			l-1.7,3.9l5.3,2.1l7.5,2.5l-1.2-2.4l-0.8-1.5l2.8,0.9l4.8,1.6l5.9-4.5l-3.6-4.3l4.6-2.8L396.9,303.6z M380.4,292.9
			c1.6-4.6,5.3-7.5,8.2-6.5l-2.9,8.3l-2.9,8.3C379.8,302.1,378.7,297.5,380.4,292.9z"/>
		<g>
			
				<linearGradient id="SVGID_91_" gradientUnits="userSpaceOnUse" x1="361.9373" y1="289.2716" x2="358.72" y2="261.6577" gradientTransform="matrix(0.9438 0.3306 -0.5202 1.4851 181.3359 -235.9143)">
				<stop  offset="0" style="stop-color:#188DC1"/>
				<stop  offset="1" style="stop-color:#06BFE7"/>
			</linearGradient>
			<path fill-rule="evenodd" clip-rule="evenodd" fill="url(#SVGID_91_)" d="M389.4,301.1l3.1-8.4l-3.3-0.5c0.3-1.8,0.5-3.5,0.4-5.1
				l3.4-2.2l-1.6-7.4l-3.3,3.1c-0.6-1.2-1.3-2.2-2.2-3l2-4.6l-5.3-2.1l-1.4,5c-1.2,0-2.4,0.3-3.6,0.8l-0.6-4.4l-5.9,4.5l1.4,3.9
				c-1.1,1.2-2,2.6-2.9,4.2l-2.8-1.6l-3.1,8.4l3.3,0.5c-0.3,1.8-0.5,3.5-0.4,5.1l-3.4,2.2l1.6,7.4l3.3-3.1c0.6,1.2,1.3,2.2,2.2,3
				l-2,4.6l5.3,2.1l1.4-5c1.2,0,2.4-0.3,3.6-0.8l0.6,4.4l5.9-4.5l-1.4-3.9c1.1-1.2,2-2.6,2.9-4.2L389.4,301.1z M375.2,300.6
				c-2.9-1-4-5.6-2.4-10.2c1.6-4.6,5.3-7.5,8.2-6.5c2.9,1,4,5.6,2.4,10.2C381.8,298.8,378.1,301.7,375.2,300.6z"/>
		</g>
		<polygon opacity="0.5" fill-rule="evenodd" clip-rule="evenodd" fill="#601734" points="400.6,287.5 393,285 389.6,287.2 
			397.1,289.6 		"/>
		<polygon fill-rule="evenodd" clip-rule="evenodd" fill="#B3D9FF" points="392.6,310.1 385,307.6 383.7,303.7 391.2,306.2 		"/>
		<polygon opacity="0.5" fill-rule="evenodd" clip-rule="evenodd" fill="#601734" points="385.9,277.8 390.1,279 391.5,277.6 
			394.2,278.5 395.5,275.6 387.9,273.1 		"/>
		<path opacity="0.5" fill-rule="evenodd" clip-rule="evenodd" fill="#601734" d="M374.9,308.5l4,1.6l-0.3-2.5
			C378.6,307.7,376.4,308.8,374.9,308.5z"/>
		<path opacity="0.5" fill-rule="evenodd" clip-rule="evenodd" fill="#601734" d="M375.5,285.9l6.7,3.5c0,0,1-1.3,1.7-1.8
			C383.9,287.6,382.2,280.3,375.5,285.9z"/>
	</g>
	<polygon clip-path="url(#SVGID_2_)" fill="#FF1D9C" points="222.8,37 229.2,49.8 224.9,51.8 218.9,40 	"/>
	<polygon clip-path="url(#SVGID_2_)" fill="#6877FF" points="78.3,336.3 84.3,342.8 86.6,340.1 81,334 	"/>
	<polygon clip-path="url(#SVGID_2_)" fill="#4F31E0" points="380.1,115.4 374.1,119 371.7,114.5 378.3,110.6 	"/>
	<polygon clip-path="url(#SVGID_2_)" fill="#4F31E0" points="409.6,345.1 401,351.2 398.6,346.6 406.9,341.8 	"/>
	<g clip-path="url(#SVGID_2_)">
		<linearGradient id="SVGID_92_" gradientUnits="userSpaceOnUse" x1="412.3512" y1="88.0975" x2="423.6827" y2="46.0142">
			<stop  offset="0" style="stop-color:#188DC1"/>
			<stop  offset="1" style="stop-color:#06BFE7"/>
		</linearGradient>
		<polygon fill-rule="evenodd" clip-rule="evenodd" fill="url(#SVGID_92_)" points="398.2,84.3 396.8,50.6 440.9,50.6 439,84.2 		
			"/>
		<linearGradient id="SVGID_93_" gradientUnits="userSpaceOnUse" x1="392.8735" y1="83.2426" x2="401.3237" y2="51.8603">
			<stop  offset="0" style="stop-color:#1852A0"/>
			<stop  offset="1" style="stop-color:#067ED3"/>
		</linearGradient>
		<polygon fill-rule="evenodd" clip-rule="evenodd" fill="url(#SVGID_93_)" points="396.8,50.6 395.5,52.6 396.8,84.3 398.2,84.3 		
			"/>
		<polygon fill="#FFFFFF" points="411.4,57.4 404.5,56.6 405.5,79.7 411.4,79.1 411.4,76.7 408,76.8 407.6,59 411.4,59.1 		"/>
		<polygon fill="#FFFFFF" points="425.6,57.4 432.5,56.6 431.6,79.7 425.6,79.1 425.6,76.7 429,76.8 429.4,59 425.6,59.1 		"/>
	</g>
	<g clip-path="url(#SVGID_2_)">
		
			<linearGradient id="SVGID_94_" gradientUnits="userSpaceOnUse" x1="121.9244" y1="160.5708" x2="129.6494" y2="131.8817" gradientTransform="matrix(-1 0 0 1 206.6559 0)">
			<stop  offset="0" style="stop-color:#188DC1"/>
			<stop  offset="1" style="stop-color:#06BFE7"/>
		</linearGradient>
		<polygon fill-rule="evenodd" clip-rule="evenodd" fill="url(#SVGID_94_)" points="94.4,158 95.3,135 65.3,135 66.5,157.9 		"/>
		
			<linearGradient id="SVGID_95_" gradientUnits="userSpaceOnUse" x1="108.646" y1="157.2612" x2="114.4067" y2="135.8671" gradientTransform="matrix(-1 0 0 1 206.6559 0)">
			<stop  offset="0" style="stop-color:#1852A0"/>
			<stop  offset="1" style="stop-color:#067ED3"/>
		</linearGradient>
		<polygon fill-rule="evenodd" clip-rule="evenodd" fill="url(#SVGID_95_)" points="95.3,135 96.2,136.4 95.3,158 94.4,158 		"/>
		<path fill="#FFFFFF" d="M83.8,139.7c0,0,3.3-0.1,3.9,0.1c0.6,0.3-0.2,5.6-0.2,5.6l1.3,1.2l-1.2,1.2c0,0,0.1,5.4-0.7,5.9
			c-0.8,0.5-3.4,0-3.4,0v-1.4c0,0,2.2,0.1,2.5-0.2c0.4-0.3,0.3-5,0.3-5l0.6-0.6l-0.6-0.7c0,0,0.1-3.4,0-4.3c0-0.6-2.6-0.7-2.6-0.7
			V139.7z"/>
		<path fill="#FFFFFF" d="M76.2,139.7c0,0-3.3-0.1-3.9,0.1c-0.6,0.3,0.2,5.6,0.2,5.6l-1.3,1.2l1.2,1.2c0,0-0.1,5.4,0.7,5.9
			c0.8,0.5,3.4,0,3.4,0v-1.4c0,0-2.2,0.1-2.5-0.2s-0.3-5-0.3-5l-0.6-0.6l0.6-0.7c0,0-0.1-3.4,0-4.3c0-0.6,2.6-0.7,2.6-0.7V139.7z"/>
	</g>
	<g clip-path="url(#SVGID_2_)">
		<g>
			<path fill="#744CA2" d="M347.9,87.3l-7.4-19.3l19.1,4L347.9,87.3z M341.3,68.7l6.7,17.6l10.7-13.9L341.3,68.7z"/>
		</g>
		<g>
			
				<rect x="398.2" y="355.7" transform="matrix(0.5912 -0.8065 0.8065 0.5912 -122.0756 471.0798)" fill="#744CA2" width="10.9" height="0.5"/>
		</g>
		<g>
			<polygon fill="none" points="339.9,279.2 333,270.5 333.4,270.2 340.3,278.8 			"/>
		</g>
		<g>
			<polygon fill="#744CA2" points="125.6,339.9 111.7,329.8 112,329.4 125.9,339.5 			"/>
		</g>
		<g>
			
				<rect x="110.2" y="334.4" transform="matrix(0.606 -0.7955 0.7955 0.606 -219.3983 226.3649)" fill="#744CA2" width="17.1" height="0.5"/>
		</g>
		<g>
			
				<rect x="98.6" y="184.7" transform="matrix(0.4651 -0.8852 0.8852 0.4651 -115.1451 189.0111)" fill="#744CA2" width="0.5" height="10.1"/>
		</g>
		<g>
			<polygon fill="#744CA2" points="448.1,71.4 447.7,71 458,59.2 458.4,59.5 			"/>
		</g>
		<g>
			
				<rect x="248.4" y="99.6" transform="matrix(0.8953 -0.4454 0.4454 0.8953 -20.6279 121.7271)" fill="#744CA2" width="0.5" height="10.4"/>
		</g>
		<g>
			
				<rect x="171.1" y="261.7" transform="matrix(0.767 -0.6416 0.6416 0.767 -126.4147 175.8215)" fill="#744CA2" width="15.5" height="0.5"/>
		</g>
	</g>
</g>
</svg>
