<?xml version="1.0" encoding="UTF-8"?> <!-- Generator: Adobe Illustrator 23.0.1, SVG Export Plug-In . SVG Version: 6.00 Build 0) --> <svg xmlns="http://www.w3.org/2000/svg" xmlns:xlink="http://www.w3.org/1999/xlink" id="Layer_1" x="0px" y="0px" viewBox="0 0 600.2 516.7" style="enable-background:new 0 0 600.2 516.7;" xml:space="preserve"> <style type="text/css"> .st0{fill:#2B66B1;} .st1{fill:#4D8DCA;} .st2{opacity:0.4;} .st3{fill:#8886C1;} .st4{fill:#FFFFFF;} .st5{fill:#525293;} .st6{fill:#77B8E5;} .st7{opacity:0.6;fill:#525293;enable-background:new ;} .st8{fill:#4B91CE;} .st9{fill:#16497F;} .st10{fill:#264B68;} .st11{fill:#698BA3;} .st12{fill:#B6C7D3;} .st13{fill:#FEF3F8;} .st14{fill:#95C8EC;} .st15{fill:#488FCC;} .st16{fill:#FFD9AF;} .st17{fill:#DCB793;} .st18{fill:#232323;} .st19{fill:#818285;} .st20{fill:#283349;} .st21{fill:#21272E;} .st22{fill:#392416;} .st23{fill:#425151;} .st24{fill:#566A6F;} .st25{fill:#A5A4A4;} .st26{fill:#CFD1D2;} .st27{fill:#9B9D9F;} </style> <title>pash-blue</title> <path class="st0" d="M523.2,222.6H513c-1.6-6.6-4.2-12.8-7.7-18.6l7.2-7.2c2.4-2.4,2.4-6.3,0-8.7c0,0,0,0,0,0l-14.9-14.9 c-2.4-2.4-6.3-2.4-8.7,0c0,0,0,0,0,0l-7.2,7.2c-5.8-3.5-12.1-6.1-18.6-7.7v-10.2c0-3.4-2.7-6.1-6.1-6.1c0,0,0,0,0,0h-21 c-3.4,0-6.1,2.7-6.1,6.1v0v10.2c-6.5,1.6-12.8,4.2-18.6,7.7l-7.2-7.2c-2.4-2.4-6.3-2.4-8.7,0c0,0,0,0,0,0l-14.9,14.9 c-2.4,2.4-2.4,6.3,0,8.7c0,0,0,0,0,0l7.2,7.2c-3.5,5.8-6.1,12.1-7.7,18.6h-10.3c-3.4,0-6.1,2.7-6.1,6.1v0v21c0,3.4,2.7,6.1,6.1,6.1 l0,0h10.2c1.6,6.5,4.2,12.8,7.7,18.6l-7.2,7.3c-2.4,2.4-2.4,6.3,0,8.7c0,0,0,0,0,0l14.9,14.9c2.4,2.4,6.3,2.4,8.7,0l7.2-7.2 c5.8,3.5,12.1,6.1,18.6,7.7V316c0,3.4,2.7,6.1,6.1,6.1l0,0h21c3.4,0,6.1-2.7,6.2-6.1c0,0,0,0,0,0v-10.3c6.5-1.6,12.8-4.2,18.6-7.7 l7.2,7.2c2.4,2.4,6.3,2.4,8.7,0l14.9-14.9c2.4-2.4,2.4-6.3,0-8.7c0,0,0,0,0,0l-7.2-7.2c3.5-5.8,6.1-12.1,7.7-18.6h10.2 c3.4,0,6.1-2.7,6.2-6.1c0,0,0,0,0,0v-21C529.3,225.3,526.6,222.6,523.2,222.6C523.2,222.6,523.2,222.6,523.2,222.6z M446.4,280.8 c-22.9,0-41.5-18.6-41.5-41.5c0-22.9,18.6-41.5,41.5-41.5c22.9,0,41.5,18.6,41.5,41.5C487.9,262.2,469.3,280.7,446.4,280.8 C446.4,280.8,446.4,280.8,446.4,280.8z"></path> <path class="st1" d="M328.2,214.1h-7.6c-1.2-4.9-3.2-9.5-5.7-13.9l5.4-5.4c1.8-1.8,1.8-4.7,0-6.5c0,0,0,0,0,0l-11.1-11.1 c-1.8-1.8-4.7-1.8-6.5,0l-5.4,5.4c-4.3-2.6-9-4.5-13.9-5.7v-7.6c0-2.5-2-4.6-4.6-4.6l0,0h-15.7c-2.5,0-4.6,2-4.6,4.6v7.6 c-4.9,1.2-9.6,3.1-13.9,5.7l-5.4-5.3c-1.8-1.8-4.7-1.8-6.5,0l-11.1,11.1c-1.8,1.8-1.8,4.7,0,6.5c0,0,0,0,0,0l5.4,5.4 c-2.6,4.3-4.5,9-5.7,13.8h-7.6c-2.5,0-4.6,2.1-4.6,4.6v15.7c0,2.5,2.1,4.6,4.6,4.6h7.6c1.2,4.9,3.2,9.5,5.7,13.9l-5.4,5.4 c-1.8,1.8-1.8,4.7,0,6.5c0,0,0,0,0,0l11.1,11.1c1.8,1.8,4.7,1.8,6.5,0l5.4-5.4c4.3,2.6,9,4.5,13.9,5.8v7.6c0,2.5,2,4.6,4.6,4.6h15.7 c2.5,0,4.6-2,4.6-4.6l0,0V276c4.9-1.2,9.6-3.1,13.9-5.7l5.4,5.4c1.8,1.8,4.7,1.8,6.5,0l11.1-11.1c1.8-1.8,1.8-4.7,0-6.5c0,0,0,0,0,0 l-5.4-5.4c2.6-4.3,4.5-9,5.7-13.9h7.6c2.5,0,4.6-2.1,4.6-4.6v-15.7C332.8,216.1,330.8,214.1,328.2,214.1 C328.3,214.1,328.2,214.1,328.2,214.1z M271,257.4c-17.1,0-30.9-13.8-30.9-30.9c0-17.1,13.8-30.9,30.9-30.9s30.9,13.8,30.9,30.9l0,0 C302,243.5,288.2,257.4,271,257.4C271.1,257.4,271.1,257.4,271,257.4L271,257.4z"></path> <g class="st2"> <path class="st3" d="M236.7,346.5v-79.8c0-2.4-1.9-4.3-4.3-4.3c0,0,0,0,0,0H110.9c-2.4,0-4.3,1.9-4.3,4.3c0,0,0,0,0,0v79.8 c0,3.5,2.8,6.3,6.3,6.3l0,0h117.6C233.9,352.8,236.7,350,236.7,346.5z"></path> <rect x="119.1" y="281.7" class="st4" width="104.7" height="62"></rect> <path class="st5" d="M120.5,269.2h5.2c0.6,0,1.1,0.5,1.1,1.1v3.3c0,0.6-0.5,1.1-1.1,1.1h-5.2c-0.6,0-1.1-0.5-1.1-1.1v-3.3 C119.4,269.7,119.9,269.2,120.5,269.2z"></path> <path class="st5" d="M131.3,269.2h5.2c0.6,0,1.1,0.5,1.1,1.1v3.3c0,0.6-0.5,1.1-1.1,1.1h-5.2c-0.6,0-1.1-0.5-1.1-1.1v-3.3 C130.2,269.7,130.7,269.2,131.3,269.2z"></path> <path class="st5" d="M142.1,269.2h5.2c0.6,0,1.1,0.5,1.1,1.1v3.3c0,0.6-0.5,1.1-1.1,1.1h-5.2c-0.6,0-1.1-0.5-1.1-1.1v-3.3 C141,269.7,141.5,269.2,142.1,269.2z"></path> <rect x="156" y="270.3" class="st5" width="67.8" height="2.8"></rect> <rect x="151.7" y="289.9" class="st5" width="58.5" height="6.4"></rect> <rect x="151.7" y="301.4" class="st5" width="58.5" height="6.4"></rect> <rect x="151.7" y="312.9" class="st5" width="58.5" height="6.4"></rect> <rect x="151.7" y="324.3" class="st5" width="58.5" height="6.4"></rect> <path class="st5" d="M139.7,296.3h-3.8c-1.8,0-3.2-1.4-3.2-3.2l0,0l0,0c0-1.8,1.4-3.2,3.2-3.2l0,0h3.8c1.8,0,3.2,1.4,3.2,3.2l0,0 l0,0C142.9,294.9,141.5,296.3,139.7,296.3C139.7,296.4,139.7,296.4,139.7,296.3L139.7,296.3z"></path> <path class="st5" d="M139.7,307.8h-3.8c-1.8,0-3.2-1.4-3.2-3.2l0,0l0,0c0-1.8,1.4-3.2,3.2-3.2l0,0h3.8c1.8,0,3.2,1.4,3.2,3.2l0,0 l0,0C142.9,306.4,141.5,307.8,139.7,307.8C139.7,307.8,139.7,307.8,139.7,307.8L139.7,307.8z"></path> <path class="st5" d="M139.7,319.3h-3.8c-1.8,0-3.2-1.4-3.2-3.2l0,0l0,0c0-1.8,1.4-3.2,3.2-3.2l0,0h3.8c1.8,0,3.2,1.4,3.2,3.2l0,0 l0,0C142.9,317.8,141.5,319.3,139.7,319.3C139.7,319.3,139.7,319.3,139.7,319.3L139.7,319.3z"></path> <path class="st5" d="M139.7,330.7h-3.8c-1.8,0-3.2-1.4-3.2-3.2l0,0l0,0c0-1.8,1.4-3.2,3.2-3.2c0,0,0,0,0,0h3.8 c1.8,0,3.2,1.4,3.2,3.2l0,0l0,0C142.9,329.3,141.5,330.7,139.7,330.7L139.7,330.7L139.7,330.7z"></path> </g> <path class="st6" d="M169.7,371.6c0.1-17.5,1.3-24.9,0-30.7c-9.5-7-20.2-12.1-31.6-15.3c8.9,19.6,6.7,33.5,6.7,33.5 c-0.5-14.2-7.4-27.9-11.3-34.7c-16.4-3.8-33.5-4.5-50.1-2.1c2.5,8.7,5.1,16.6,7.9,23.9c11.9,5.3,27.6,9.2,27.6,9.2 c-7.6,0-18.2-2.6-25.9-4.8c3.8,9.4,8.4,18.4,13.8,27c12.1,5.9,34.5,9.8,34.5,9.8c-9.1,0.6-22.8-2.1-30.3-3.8 c8.6,11.8,19.4,21.9,31.8,29.6c7.6,0.8,15.3,1.2,23,1.3c-5,1.3-11.6,1.8-17.8,1.9c13.7,8,29.1,14,46.1,20.9l15.8,1.3l-1-22.8 c-4.4-34.1-17.3-56.2-33.4-70.4C171.8,352.7,169.7,371.6,169.7,371.6z"></path> <path class="st1" d="M206.4,434.9c-2.9-5.1-6.3-9.9-10.2-14.3c-3.8-4.4-7.8-8.6-11.9-12.7c-8.2-8.1-16.7-15.9-25.3-23.5 s-17.3-15.1-25.6-23.2c-4.1-4-8.2-8.2-12.2-12.5s-7.8-8.7-11.4-13.4l0.2-0.2c8.2,8.1,16.6,16,25.1,23.8s16.8,15.8,25.2,23.7 s16.8,15.9,24.8,24.3c4,4.2,7.9,8.6,11.6,13.2c3.8,4.6,7.1,9.5,9.9,14.8L206.4,434.9z"></path> <g class="st2"> <path class="st3" d="M514,372c1.3-1.2,2.6-2.4,3.9-3.6L514,372z"></path> <path class="st3" d="M504.4,373.4l13.6-5c5.5-5.3,10.4-11.3,14.6-17.6c-5.3-2.5-17.3,0.5-17.3,0.5c12.1-4.1,16.2-4,20.2-5.3 c4.4-8.3,4.6-18.4,5.8-26.8c-13.1,8.1-16.7,9.2-16.7,9.2c8.1-4.1,12.8-9.4,17.2-12.8c2.3-21.1-3.8-29.4-3.8-29.4 c-5.9,2.4-18.3,9.5-23.2,12.1c-1.9,7.2-3.3,14.6-4.3,22c-0.6-5.9,0.3-14.3,1.3-20.4c-7,3.9-5.8,3.3-10.8,7.6 c-3.1,9.7-4.1,27.4-4.1,27.4c-1.2-7.1-0.4-17.9,0.2-23.8c-7.7,7.5-13.9,16.5-18.2,26.4c0,8.9,1,18,1,18c-1.4-4.5-2.3-9.1-2.8-13.8 c-4.5,11.1-7.5,23.4-11,37l0.3,12.3l15.9-2c12.2-2.8,22.9-9.4,31.6-17L504.4,373.4z"></path> </g> <path class="st7" d="M486.8,370c-2.6,3.4-5.4,6.6-8.3,9.7c-2.9,3.2-6.1,6-9.6,8.5l-0.1-0.2c3.4-2.6,6.5-5.5,9.2-8.8 c2.8-3.2,5.4-6.5,8-10c5.1-6.8,9.8-13.9,14.5-21s9.2-14.3,14.2-21.2c2.5-3.4,5.1-6.9,7.8-10.2s5.5-6.5,8.5-9.6l0.2,0.1 c-5.1,6.9-9.9,13.8-14.7,20.9s-9.7,14-14.6,21S492.1,363.3,486.8,370z"></path> <path class="st8" d="M500.6,407.3c11.6,3.8,16.2,6.1,20.3,6.4c6.9-5.7,12.8-12.5,17.5-20.1c-15.1,2.5-23.8-2-23.8-2 c9.5,2.6,20.2,0.4,25.6-1.1c6.4-11.4,10.8-23.7,13-36.5c-6.3,0-12.2,0.3-17.7,0.8c-4.6,5.9-8.8,12-12.5,18.4 c1.8-5.6,6-12.9,9.2-18.1c-7.2,0.8-14.2,2.4-21.1,4.6c-6.7,7.6-14.5,23.4-14.5,23.4c1.7-6.9,6.7-16.4,9.6-21.6 c-10,4-19.2,9.8-27,17.2c-3.5,8.1-6.2,16.7-6.2,16.7c0.5-4.6,1.5-9.1,2.9-13.5c-8.5,8.5-16,18.5-24.6,29.6l-4.5,11.4l15.3,4 c23.6,3.9,41.3-1.1,54.4-9.9C512.7,412.7,500.6,407.3,500.6,407.3z"></path> <path class="st9" d="M450.1,421c4.1-1.1,8.1-2.6,11.8-4.5c3.8-1.9,7.5-3.9,11.2-6.1c7.3-4.3,14.4-9,21.5-13.7s14-9.6,21.3-14 c3.7-2.2,7.3-4.4,11.1-6.4s7.6-3.9,11.5-5.6l0.1,0.2c-7.3,4.4-14.5,8.9-21.6,13.5s-14.3,9.1-21.5,13.6s-14.4,9.1-21.8,13.2 c-3.7,2.1-7.5,4-11.4,5.8c-3.9,1.8-7.9,3.2-12.1,4.2L450.1,421z"></path> <path class="st10" d="M209.8,250.1h256.1c7.8,0,14,6.3,14,14.1v164.7l0,0H195.8l0,0V264.2C195.8,256.4,202,250.1,209.8,250.1 L209.8,250.1z"></path> <rect x="209.2" y="263.2" class="st11" width="257.2" height="150.2"></rect> <polygon class="st12" points="532,473 143.6,473 195.8,428.9 479.9,428.9 "></polygon> <path class="st10" d="M143.6,473H532l0,0v2.9c0,7.7-6.2,13.9-13.9,13.9H157.5c-7.7,0-13.9-6.2-13.9-13.9L143.6,473L143.6,473z"></path> <path class="st13" d="M232.7,440.8H217c-0.3,0-0.5-0.2-0.5-0.5c0-0.1,0.1-0.3,0.2-0.4l4.9-4.6c0.1-0.1,0.2-0.1,0.4-0.1h15 c0.3,0,0.5,0.2,0.5,0.5c0,0.1,0,0.3-0.1,0.4l-4.2,4.6C233,440.8,232.9,440.8,232.7,440.8z"></path> <path class="st13" d="M257.7,440.8h-15.9c-0.3,0-0.5-0.2-0.5-0.5c0-0.1,0-0.2,0.1-0.3l3.9-4.6c0.1-0.1,0.3-0.2,0.4-0.2h15.2 c0.3,0,0.5,0.2,0.5,0.5c0,0.1,0,0.2-0.1,0.3l-3.2,4.6C258,440.8,257.8,440.8,257.7,440.8z"></path> <path class="st13" d="M282.5,440.8h-16c-0.3,0-0.5-0.2-0.5-0.5c0-0.1,0-0.2,0.1-0.3l2.9-4.6c0.1-0.2,0.3-0.3,0.5-0.2h15.3 c0.3,0,0.5,0.2,0.5,0.5c0,0.1,0,0.2-0.1,0.2l-2.2,4.6C283,440.7,282.8,440.8,282.5,440.8z"></path> <path class="st13" d="M307.4,440.8h-16.1c-0.3,0-0.5-0.2-0.5-0.5c0-0.1,0-0.1,0-0.2l1.9-4.6c0.1-0.2,0.3-0.3,0.5-0.3h15.4 c0.3,0,0.5,0.2,0.5,0.5c0,0,0,0.1,0,0.1l-1.2,4.6C307.9,440.7,307.7,440.9,307.4,440.8z"></path> <path class="st13" d="M332.3,440.8h-16.2c-0.3,0-0.5-0.2-0.5-0.5c0,0,0-0.1,0-0.1l0.9-4.6c0-0.3,0.3-0.4,0.5-0.4h15.4 c0.3,0,0.5,0.2,0.5,0.5c0,0,0,0,0,0l-0.1,4.6C332.8,440.6,332.5,440.8,332.3,440.8z"></path> <path class="st13" d="M357.1,440.8h-16.2c-0.3,0-0.5-0.2-0.5-0.5l-0.2-4.6c0-0.3,0.2-0.5,0.5-0.5c0,0,0,0,0,0h15.5 c0.3,0,0.5,0.2,0.5,0.4l0.9,4.6C357.7,440.5,357.5,440.8,357.1,440.8C357.2,440.8,357.1,440.8,357.1,440.8z"></path> <path class="st13" d="M381.9,440.8h-16.1c-0.2,0-0.5-0.2-0.5-0.4l-1.2-4.6c-0.1-0.3,0.1-0.6,0.4-0.7c0,0,0.1,0,0.1,0H380 c0.2,0,0.4,0.1,0.5,0.3l1.9,4.6c0.1,0.3,0,0.6-0.3,0.7C382,440.8,382,440.8,381.9,440.8z"></path> <path class="st13" d="M406.7,440.8h-16c-0.2,0-0.4-0.1-0.5-0.3l-2.2-4.6c-0.1-0.3,0-0.6,0.3-0.7c0.1,0,0.2-0.1,0.2-0.1h15.3 c0.2,0,0.4,0.1,0.5,0.2l2.9,4.6c0.2,0.2,0.1,0.6-0.2,0.7C406.9,440.8,406.8,440.8,406.7,440.8z"></path> <path class="st13" d="M431.4,440.8h-15.9c-0.2,0-0.3-0.1-0.4-0.2l-3.2-4.6c-0.2-0.2-0.1-0.6,0.1-0.7c0.1-0.1,0.2-0.1,0.3-0.1h15.2 c0.2,0,0.3,0.1,0.4,0.2l3.9,4.6c0.2,0.2,0.2,0.6,0,0.7C431.7,440.8,431.5,440.9,431.4,440.8z"></path> <path class="st13" d="M456.2,440.8h-15.7c-0.2,0-0.3-0.1-0.4-0.2l-4.2-4.6c-0.2-0.2-0.2-0.6,0-0.8c0.1-0.1,0.2-0.1,0.4-0.1h15 c0.1,0,0.3,0.1,0.4,0.1l4.9,4.6c0.2,0.2,0.2,0.6,0,0.8C456.4,440.8,456.3,440.8,456.2,440.8z"></path> <path class="st13" d="M224.9,449.5h-17.1c-0.3,0-0.5-0.3-0.5-0.6c0-0.1,0.1-0.3,0.2-0.4l5.8-5.5c0.1-0.1,0.2-0.2,0.4-0.1h16.2 c0.3,0,0.5,0.2,0.5,0.5c0,0.1,0,0.3-0.1,0.4l-5,5.5C225.2,449.5,225.1,449.5,224.9,449.5z"></path> <path class="st13" d="M251.7,449.5h-17.2c-0.3,0-0.5-0.2-0.5-0.5c0-0.1,0-0.3,0.1-0.3l4.6-5.5c0.1-0.1,0.3-0.2,0.4-0.2h16.4 c0.3,0,0.5,0.2,0.5,0.5c0,0.1,0,0.2-0.1,0.3l-3.8,5.5C252,449.4,251.9,449.5,251.7,449.5z"></path> <path class="st13" d="M278.5,449.5h-17.3c-0.3,0-0.5-0.2-0.5-0.5c0-0.1,0-0.2,0.1-0.3l3.4-5.5c0.1-0.2,0.3-0.3,0.5-0.3h16.5 c0.3,0,0.5,0.3,0.5,0.6c0,0.1,0,0.1,0,0.2l-2.6,5.5C278.9,449.4,278.7,449.5,278.5,449.5z"></path> <path class="st13" d="M215.7,459.6h-18.6c-0.3,0-0.5-0.2-0.5-0.5c0-0.1,0.1-0.3,0.2-0.4l7-6.6c0.1-0.1,0.2-0.2,0.4-0.1h17.6 c0.3,0,0.5,0.3,0.5,0.6c0,0.1-0.1,0.2-0.1,0.3l-6,6.6C216,459.6,215.9,459.6,215.7,459.6z"></path> <path class="st13" d="M244.7,459.6H226c-0.3,0-0.5-0.2-0.5-0.5c0-0.1,0-0.3,0.1-0.3l5.5-6.6c0.1-0.1,0.2-0.2,0.4-0.2h17.7 c0.3,0,0.5,0.2,0.5,0.5c0,0.1,0,0.2-0.1,0.3l-4.5,6.6C245.1,459.5,244.9,459.6,244.7,459.6z"></path> <path class="st13" d="M273.7,459.6h-18.8c-0.3,0-0.5-0.2-0.5-0.5c0-0.1,0-0.2,0.1-0.3l4.1-6.6c0.1-0.2,0.3-0.3,0.5-0.3h17.9 c0.3,0,0.5,0.2,0.5,0.5c0,0.1,0,0.2-0.1,0.2l-3.1,6.6C274.1,459.5,273.9,459.6,273.7,459.6z"></path> <path class="st13" d="M305.2,449.5h-17.4c-0.3,0-0.5-0.2-0.5-0.5c0-0.1,0-0.1,0-0.2l2.2-5.5c0.1-0.2,0.3-0.3,0.5-0.3h16.6 c0.3,0,0.5,0.2,0.5,0.5c0,0,0,0.1,0,0.1l-1.4,5.5C305.7,449.4,305.5,449.5,305.2,449.5z"></path> <path class="st13" d="M389.5,459.6H283.8c-0.3,0-0.5-0.2-0.5-0.5c0-0.1,0-0.1,0-0.2l2.7-6.6c0.1-0.2,0.3-0.3,0.5-0.3h100.4 c0.2,0,0.4,0.1,0.5,0.3l2.7,6.6c0.1,0.3,0,0.6-0.3,0.7C389.6,459.6,389.5,459.6,389.5,459.6z"></path> <path class="st13" d="M332,449.5h-17.5c-0.3,0-0.5-0.2-0.5-0.5c0,0,0-0.1,0-0.1l1-5.5c0-0.3,0.3-0.4,0.5-0.4h16.6 c0.3,0,0.5,0.2,0.5,0.5c0,0,0,0,0,0l-0.2,5.5C332.5,449.3,332.3,449.5,332,449.5z"></path> <path class="st13" d="M358.7,449.5h-17.5c-0.3,0-0.5-0.2-0.5-0.5l-0.2-5.5c0-0.3,0.2-0.5,0.5-0.6c0,0,0,0,0,0h16.6 c0.3,0,0.5,0.2,0.5,0.4l1,5.5C359.3,449.2,359.1,449.5,358.7,449.5C358.7,449.5,358.7,449.5,358.7,449.5z"></path> <path class="st13" d="M385.4,449.5H368c-0.2,0-0.5-0.2-0.5-0.4l-1.4-5.5c-0.1-0.3,0.1-0.6,0.4-0.7c0,0,0.1,0,0.1,0h16.6 c0.2,0,0.4,0.1,0.5,0.3l2.2,5.5c0.1,0.3,0,0.6-0.3,0.7C385.5,449.5,385.5,449.5,385.4,449.5z"></path> <path class="st13" d="M412,449.5h-17.3c-0.2,0-0.4-0.1-0.5-0.3l-2.6-5.5c-0.1-0.3,0-0.6,0.3-0.7c0.1,0,0.1,0,0.2,0h16.5 c0.2,0,0.4,0.1,0.5,0.3l3.4,5.5c0.2,0.3,0.1,0.6-0.2,0.7C412.3,449.5,412.2,449.5,412,449.5z"></path> <path class="st13" d="M438.7,449.5h-17.2c-0.2,0-0.3-0.1-0.5-0.2l-3.8-5.5c-0.2-0.2-0.1-0.6,0.1-0.8c0.1-0.1,0.2-0.1,0.3-0.1h16.4 c0.2,0,0.3,0.1,0.4,0.2l4.6,5.5c0.2,0.2,0.2,0.6-0.1,0.8C439,449.5,438.8,449.5,438.7,449.5z"></path> <path class="st13" d="M443.6,455.3h-18.1c-0.2,0-0.3-0.1-0.5-0.2l-1.6-2.3c-0.2-0.2-0.1-0.6,0.1-0.8c0.1-0.1,0.2-0.1,0.3-0.1h17.7 c0.2,0,0.3,0.1,0.4,0.2l1.9,2.3c0.2,0.2,0.1,0.6-0.1,0.8C443.8,455.3,443.7,455.3,443.6,455.3z"></path> <path class="st13" d="M447.2,459.6h-18.7c-0.2,0-0.3-0.1-0.4-0.2l-1.8-2.6c-0.2-0.2-0.1-0.6,0.1-0.8c0.1-0.1,0.2-0.1,0.3-0.1H445 c0.2,0,0.3,0.1,0.4,0.2l2.2,2.6c0.2,0.2,0.2,0.6-0.1,0.8C447.4,459.6,447.3,459.6,447.2,459.6z"></path> <path class="st13" d="M476,459.6h-18.6c-0.2,0-0.3-0.1-0.4-0.2l-2.3-2.6c-0.2-0.2-0.2-0.6,0-0.8c0.1-0.1,0.2-0.1,0.4-0.1h18.2 c0.1,0,0.3,0.1,0.4,0.1l2.7,2.6c0.2,0.2,0.2,0.5,0,0.8C476.3,459.6,476.2,459.6,476,459.6z"></path> <path class="st13" d="M418.3,459.6h-18.9c-0.2,0-0.4-0.1-0.5-0.3l-1.2-2.6c-0.1-0.3,0-0.6,0.3-0.7c0.1,0,0.2-0.1,0.2-0.1h18.5 c0.2,0,0.4,0.1,0.5,0.3l1.6,2.6c0.2,0.2,0.1,0.6-0.2,0.7C418.5,459.6,418.4,459.6,418.3,459.6z"></path> <path class="st13" d="M465.4,449.5h-17.1c-0.2,0-0.3-0.1-0.4-0.2l-5-5.5c-0.2-0.2-0.2-0.6,0-0.8c0.1-0.1,0.2-0.1,0.4-0.1h16.2 c0.1,0,0.3,0.1,0.4,0.1l5.8,5.5c0.2,0.2,0.2,0.6,0,0.8C465.6,449.5,465.5,449.5,465.4,449.5z"></path> <polygon class="st0" points="0,37 56.3,79.2 40.2,99.2 "></polygon> <polygon class="st8" points="0,37 43.4,79.9 40.2,99.2 "></polygon> <polygon class="st14" points="0,37 77.8,74.1 56.3,79.2 "></polygon> <polygon class="st14" points="0,37 43.4,79.9 17.2,84.2 "></polygon> <path class="st15" d="M246.2,209.7c-0.1,0-0.2-0.1-0.3-0.1c-1.7-1-3.5-2.1-5.1-3.2c-0.5-0.3-0.7-1-0.4-1.5c0.3-0.5,1-0.7,1.5-0.4 c0,0,0.1,0.1,0.1,0.1c1.6,1.1,3.3,2.1,5,3.1c0.5,0.3,0.6,1,0.3,1.5C247,209.5,246.6,209.7,246.2,209.7L246.2,209.7z M234.6,201.5 c-0.2,0-0.4-0.1-0.5-0.2c-2.1-1.8-4.1-3.7-6-5.8c-0.4-0.4-0.4-1.1,0-1.5c0,0,0,0,0,0c0.4-0.4,1.1-0.4,1.6,0c0,0,0,0,0,0 c1.9,2,3.8,3.8,5.9,5.6c0.5,0.4,0.5,1.1,0.1,1.6C235.4,201.4,235,201.6,234.6,201.5L234.6,201.5z M223.3,189.6 c-0.3-0.1-0.5-0.2-0.6-0.4c-1.7-2.1-3.3-4.4-4.9-6.8c-0.3-0.5-0.2-1.2,0.3-1.5c0.5-0.3,1.2-0.2,1.5,0.3c0,0,0,0,0,0 c1.5,2.3,3.1,4.5,4.7,6.6c0.4,0.5,0.3,1.2-0.2,1.5C224,189.6,223.6,189.7,223.3,189.6L223.3,189.6z M214.3,175.8 c-0.3-0.1-0.6-0.3-0.7-0.5c-1.3-2.4-2.6-4.9-3.8-7.4c-0.3-0.6,0-1.2,0.5-1.5c0.6-0.3,1.2,0,1.5,0.5l0,0c1.2,2.5,2.4,4.9,3.7,7.3 c0.3,0.5,0.1,1.2-0.4,1.5C214.8,175.8,214.6,175.9,214.3,175.8L214.3,175.8z M128.1,145.5L128.1,145.5c-2.7-0.6-5.4-1.3-8-2 c-0.6-0.2-0.9-0.8-0.8-1.4c0.2-0.6,0.8-0.9,1.3-0.8c0,0,0,0,0,0c2.6,0.7,5.3,1.4,8,2c0.6,0.1,0.9,0.7,0.8,1.3 c-0.1,0.6-0.7,0.9-1.3,0.8L128.1,145.5z M136.2,147.1c-0.6-0.2-0.9-0.8-0.7-1.4c0.1-0.5,0.6-0.8,1.2-0.8c2.6,0.5,5.4,0.9,8.1,1.3 c0.6,0.1,1,0.6,0.9,1.2s-0.6,1-1.2,0.9l0,0C141.6,148.1,138.9,147.6,136.2,147.1L136.2,147.1z M207.3,160.9 c-0.4-0.1-0.7-0.3-0.8-0.7c-1-2.5-1.9-5.2-2.8-7.8c-0.2-0.6,0.1-1.2,0.7-1.4c0.6-0.2,1.2,0.1,1.4,0.7l0,0c0.9,2.6,1.8,5.2,2.8,7.7 c0.2,0.6-0.1,1.2-0.6,1.4c0,0,0,0,0,0C207.8,160.9,207.5,161,207.3,160.9L207.3,160.9z M112.2,141.2h-0.1c-2.7-0.9-5.3-1.8-7.8-2.8 c-0.6-0.2-0.9-0.9-0.6-1.4c0.2-0.6,0.8-0.8,1.4-0.6c0,0,0,0,0,0c2.5,0.9,5.1,1.9,7.7,2.7c0.6,0.2,0.9,0.8,0.7,1.4 C113.3,141,112.7,141.3,112.2,141.2L112.2,141.2z M152.5,149.4c-0.6-0.1-1-0.7-0.8-1.3c0.1-0.5,0.6-0.9,1.2-0.9l3.2,0.3 c1.6,0.1,3.3,0.2,5,0.3c0.6,0,1.1,0.5,1.1,1.1s-0.5,1.1-1.1,1.1c-0.1,0-0.1,0-0.2,0c-1.7-0.1-3.4-0.2-5-0.3l-3.2-0.3L152.5,149.4z M168.9,150.1c-0.6-0.1-1-0.7-0.9-1.3c0.1-0.5,0.5-0.9,1.1-0.9c2.7-0.1,5.5-0.2,8.1-0.5c0.6,0,1.1,0.5,1.1,1.1c0,0.5-0.4,1-0.9,1.1 c-2.7,0.3-5.5,0.5-8.3,0.6L168.9,150.1z M96.8,135.2c-0.1,0-0.2,0-0.2-0.1c-2.6-1.2-5.1-2.4-7.5-3.7c-0.5-0.3-0.6-1-0.3-1.5 c0.3-0.4,0.8-0.6,1.3-0.4c2.3,1.3,4.8,2.5,7.3,3.6c0.6,0.2,0.8,0.9,0.6,1.4C97.9,135.1,97.3,135.4,96.8,135.2L96.8,135.2z M82.3,127.5c-0.1,0-0.3-0.1-0.4-0.1c-2.4-1.5-4.7-3.1-6.8-4.7c-0.5-0.3-0.6-1-0.3-1.5c0.3-0.5,1-0.6,1.5-0.3c0,0,0.1,0,0.1,0.1 c2.1,1.6,4.4,3.2,6.7,4.6c0.5,0.3,0.7,1,0.3,1.5C83.2,127.4,82.8,127.6,82.3,127.5z M185.3,148.4c-0.4-0.1-0.8-0.4-0.9-0.9 c-0.1-0.6,0.3-1.2,0.9-1.3c2.7-0.5,5.4-1.1,8-1.8c0.6-0.1,1.2,0.2,1.4,0.8c0.2,0.6-0.2,1.2-0.8,1.3c-2.7,0.7-5.4,1.3-8.1,1.8 C185.6,148.5,185.4,148.5,185.3,148.4L185.3,148.4z M202.2,145.3c-0.4-0.1-0.7-0.4-0.8-0.8l-0.1-0.2c-0.4,0-0.8-0.3-0.9-0.7 c-0.2-0.5,0-1,0.4-1.3c-0.5-2-0.9-3.9-1.3-5.8c-0.2-0.6,0.2-1.2,0.8-1.4c0.6-0.2,1.2,0.2,1.4,0.8c0,0.1,0,0.1,0,0.2 c0.4,1.8,0.8,3.6,1.2,5.5c1.9-0.7,3.9-1.5,5.8-2.4c0.5-0.3,1.2-0.1,1.5,0.4s0.1,1.2-0.4,1.5c-0.1,0-0.1,0.1-0.2,0.1 c-2,0.9-4,1.7-6.1,2.5l0.1,0.3c0.1,0.6-0.2,1.2-0.8,1.3C202.6,145.3,202.4,145.3,202.2,145.3z M69.2,117.5c-0.2,0-0.4-0.1-0.5-0.3 c-2-1.9-4-3.9-5.8-5.9c-0.4-0.4-0.4-1.1,0-1.6c0.4-0.4,1.1-0.4,1.6,0c0,0,0.1,0.1,0.1,0.1c1.8,2,3.7,4,5.7,5.8 c0.4,0.4,0.5,1.1,0.1,1.5c0,0,0,0,0,0C70,117.5,69.6,117.6,69.2,117.5L69.2,117.5z M58.4,105.2c-0.3-0.1-0.5-0.2-0.7-0.4 c-1.6-2.3-3.1-4.7-4.4-7.1c-0.3-0.5-0.2-1.2,0.3-1.5c0.5-0.3,1.2-0.2,1.5,0.3c0.1,0.1,0.1,0.2,0.1,0.2c1.3,2.4,2.7,4.7,4.2,6.9 c0.3,0.5,0.2,1.2-0.3,1.5C59,105.2,58.7,105.3,58.4,105.2z M216.2,137.5c-0.3-0.1-0.6-0.3-0.8-0.6c-0.3-0.5-0.1-1.2,0.4-1.5 c2.4-1.3,4.7-2.7,7-4.2c0.5-0.4,1.2-0.3,1.5,0.2c0.4,0.5,0.3,1.2-0.2,1.5c0,0-0.1,0.1-0.1,0.1c-2.3,1.5-4.7,3-7.1,4.3 C216.8,137.5,216.5,137.6,216.2,137.5L216.2,137.5z M199,129.1c-0.5-0.1-0.8-0.5-0.9-0.9c-0.4-2.8-0.6-5.6-0.7-8.3 c0-0.6,0.4-1.1,1-1.1c0.6,0,1.1,0.4,1.1,1.1c0.1,2.6,0.4,5.4,0.7,8.1c0.1,0.6-0.3,1.1-0.9,1.2c0,0,0,0,0,0 C199.2,129.1,199.1,129.1,199,129.1L199,129.1z M230,128.4c-0.3-0.1-0.5-0.2-0.6-0.4c-0.4-0.5-0.3-1.2,0.2-1.5 c2.1-1.7,4.2-3.4,6.2-5.3c0.4-0.4,1.1-0.4,1.6,0.1s0.4,1.1-0.1,1.6c-2,1.9-4.2,3.7-6.3,5.4C230.6,128.4,230.2,128.5,230,128.4 L230,128.4z M198.4,112.7c-0.5-0.1-0.9-0.6-0.9-1.1c0.1-2.8,0.4-5.6,0.9-8.3c0.1-0.6,0.6-1,1.2-0.9c0,0,0,0,0,0 c0.6,0.1,1,0.6,0.9,1.2c0,0,0,0,0,0.1c-0.4,2.7-0.7,5.4-0.9,8.1c-0.1,0.6-0.6,1-1.1,1L198.4,112.7z M242.1,117.3 c-0.2,0-0.4-0.1-0.5-0.3c-0.4-0.4-0.5-1.1-0.1-1.6c1.8-2,3.6-4.1,5.3-6.2c0.4-0.5,1.1-0.6,1.6-0.2c0.5,0.4,0.6,1.1,0.2,1.6l0,0 c-1.7,2.2-3.5,4.3-5.4,6.3C242.8,117.3,242.4,117.4,242.1,117.3L242.1,117.3z M201.1,96.5L201.1,96.5c-0.7-0.2-1-0.8-0.8-1.3 c0,0,0,0,0,0l0.1-0.3c0.8-2.6,1.7-5.1,2.8-7.6c0.2-0.6,0.8-0.9,1.4-0.7c0.6,0.2,0.9,0.8,0.7,1.4c0,0.1,0,0.1-0.1,0.2 c-1.1,2.4-2,4.8-2.7,7.3l-0.1,0.3C202.2,96.3,201.6,96.6,201.1,96.5C201,96.5,201,96.5,201.1,96.5L201.1,96.5z M252.3,104.4 c-0.1,0-0.3-0.1-0.4-0.2c-0.5-0.3-0.6-1-0.3-1.5c0,0,0,0,0,0c1.5-2.2,3-4.6,4.3-6.9c0.3-0.5,1-0.7,1.5-0.4c0.5,0.3,0.7,1,0.4,1.5 c-1.4,2.4-2.8,4.8-4.4,7.1C253.2,104.3,252.7,104.5,252.3,104.4L252.3,104.4z M207.8,81.5c-0.1,0-0.2-0.1-0.4-0.1 c-0.5-0.3-0.7-1-0.4-1.5c1.5-2.4,3.1-4.7,4.9-6.8c0.4-0.4,1.1-0.5,1.6-0.1c0.4,0.4,0.5,1,0.1,1.5c-1.7,2.1-3.3,4.3-4.7,6.6 C208.7,81.4,208.2,81.6,207.8,81.5L207.8,81.5z M260.4,90.1c-0.1,0-0.2-0.1-0.3-0.1c-0.5-0.3-0.8-0.9-0.5-1.5c0,0,0,0,0,0l0.6-1.2 c0.9-2,1.6-4.1,2.1-6.3c0.1-0.6,0.7-1,1.3-0.8l0,0c0.6,0.1,1,0.7,0.8,1.3c-0.5,2.3-1.3,4.6-2.3,6.7l-0.6,1.2 C261.4,89.9,260.9,90.1,260.4,90.1z M218.1,68.8c-0.2-0.1-0.4-0.2-0.6-0.3c-0.4-0.5-0.4-1.1,0.1-1.6c2.1-1.9,4.3-3.6,6.7-5.1 c0.5-0.3,1.2-0.2,1.5,0.3c0.3,0.5,0.2,1.2-0.3,1.5c0,0,0,0,0,0c-2.3,1.5-4.4,3.1-6.4,4.9C218.9,68.7,218.5,68.9,218.1,68.8 L218.1,68.8z M263.8,74.1c-0.5-0.1-0.8-0.5-0.9-1c-0.2-2.6-0.9-5.1-2.1-7.4c-0.3-0.5-0.2-1.2,0.3-1.5c0.5-0.3,1.2-0.2,1.5,0.3 c0,0,0.1,0.1,0.1,0.1c1.4,2.6,2.2,5.4,2.4,8.3c0.1,0.6-0.4,1.1-1,1.2C264,74.2,263.9,74.2,263.8,74.1L263.8,74.1z M232,60 c-0.4-0.1-0.7-0.3-0.8-0.7c-0.2-0.6,0.1-1.2,0.6-1.4c2.6-1,5.4-1.8,8.2-2.2c0.6-0.1,1.2,0.3,1.2,0.9c0.1,0.6-0.3,1.1-0.9,1.2 c0,0,0,0,0,0c-2.6,0.4-5.2,1-7.7,2C232.4,60,232.2,60.1,232,60z M255.8,60.5c-0.1,0-0.2-0.1-0.4-0.1c-2.2-1.3-4.7-2.2-7.3-2.6 c-0.6-0.1-1-0.7-0.8-1.3c0.1-0.5,0.6-0.9,1.1-0.9c2.9,0.4,5.6,1.4,8.1,2.8c0.5,0.3,0.7,1,0.4,1.5c0,0,0,0,0,0 C256.7,60.4,256.3,60.6,255.8,60.5L255.8,60.5z"></path> <polygon class="st16" points="381.8,231.6 342.7,264.6 300,234.1 310.2,206.2 312.3,195.6 316.5,174.6 359.3,173.4 361.1,180.9 366.1,201.1 "></polygon> <path class="st17" d="M361.1,180.9c-4.3,7.7-16.2,18-48.8,14.7l4.1-21l42.8-1.2L361.1,180.9z"></path> <path class="st16" d="M378.1,119.4c0,36.9-17.8,66.9-39.8,66.9c-22,0-39.8-29.9-39.8-66.9s17.8-47.9,39.8-47.9 C360.2,71.5,378.1,82.5,378.1,119.4z"></path> <path class="st17" d="M357.9,75.3c0,0,0.1,21.3-19.1,23.2c-19.3,1.9-36.8-9.7-41.2,15.5V91.4l21.3-12.6L357.9,75.3z"></path> <path class="st18" d="M382.2,87.8c3.6,12.6-6,68.9-11.4,80.3c-5.4,11.4-17.3,18-33.6,18.1c-20.8,0.2-27.9-10.1-32.1-16.1 s-4.6-17.5-10-60.8s28.9-49,41.5-49s18.6-0.2,21,8.2C375.6,67.6,378.6,75.2,382.2,87.8z M342.4,94.1c-11.5,5.4-31.8-5.4-39.6,3.3 c-7.8,8.8-3,36.7-0.4,48.4c0.5,2.3,16.9,3.9,33.8,4.3c17.4,0.4,35.3-0.4,36.6-3.1c3.6-7.6,1.6-42.8,1.6-42.8 c-4.9-1.5-16-15.1-16-25.3C354.8,85.6,349.2,90.9,342.4,94.1z"></path> <path class="st18" d="M324.6,117.1c0,3.1-1.7,5.7-3.9,5.7s-3.9-2.6-3.9-5.7s1.7-5.7,3.9-5.7S324.6,113.9,324.6,117.1z"></path> <path class="st18" d="M357.9,117.1c0,3.1-1.7,5.7-3.9,5.7s-3.9-2.6-3.9-5.7s1.8-5.7,3.9-5.7S357.9,113.9,357.9,117.1z"></path> <path class="st4" d="M326.3,156.3h22.9c0,0-2.5,9.9-10.5,9.9S327.3,160.4,326.3,156.3z"></path> <path class="st17" d="M337.8,122.7c0,0-14.6,23.4,0,23.4V122.7z"></path> <path class="st19" d="M292.7,120.6c-0.4-2.3-0.6-4.5-0.6-6.8c0-23,20.3-37.7,45.3-37.7c25,0,45.3,14.8,45.3,37.7 c0,2.3-0.2,4.6-0.6,6.8h5.2c1.2-4.1,2.4-8.4,1.9-12.8c-2.2-21.6-20.1-42.4-51.8-42.4c-28.6,0-51.2,22.5-51.2,45.2 c-0.2,3.4,0.3,6.8,1.4,10L292.7,120.6z"></path> <path class="st19" d="M294.7,145.5L290,146c-5.2,0.6-9.9-3-10.6-8.1l-2.6-22.2c-0.5-5.1,3.3-9.7,8.4-10.2c0,0,0.1,0,0.1,0l4.6-0.5 c2.8-0.4,5.3,1.6,5.7,4.4l3.5,30.7C299.5,142.8,297.5,145.2,294.7,145.5C294.7,145.5,294.7,145.5,294.7,145.5z"></path> <path class="st19" d="M380.9,145.5l4.6,0.5c5.2,0.7,9.9-3,10.7-8.1l2.6-22.2c0.5-5.1-3.3-9.7-8.4-10.2c0,0-0.1,0-0.1,0l-4.6-0.5 c-2.8-0.4-5.3,1.6-5.7,4.4l-3.6,30.7C376,142.8,378.1,145.2,380.9,145.5C380.8,145.5,380.9,145.5,380.9,145.5z"></path> <path class="st18" d="M349.2,63.5c0,0-3.1,10.2-21,10.2c-17.9,0-23.5,1.6-23.5,1.6S317.9,61,349.2,63.5z"></path> <path class="st20" d="M405.6,293.8c-1.2,0.4-2.3,0.8-3.3,1.1c0.6,5.2,1.2,17.5,1.8,28.9l0.1,1.3c0.2,3.2,0.4,6.3,0.6,9.1 c0.3,5.2,0.7,9.5,1.1,12c1.1,6,1.9,12.3,2.6,18.1c1.7,14.8,2.3,27.1,2.3,27.1c-2.9-0.1-141,0-141,0l0.7-23.9l0.5-15.7l0.5-14.9 l1.2-41.2c-2-0.6-4-1-6-1.3c-10.1-1.7-27.8-3.6-34.6-4.3l-2.8-0.3c0,0,15.3-63.8,24.7-73.9c17.1-10.8,34.8-14.9,58.2-20.2 c0,0-1.5,8.8,2.9,16.5c10.5,18.3,45.2,15,49.8-5.5c1.1-4.9-0.2-10.9-0.2-10.9s48,10,57.3,21.1c7.3,12.3,20.7,66.7,20.7,66.7 s-1.3,0.3-3.5,0.9C432,286.2,415.2,290.7,405.6,293.8z"></path> <polygon class="st21" points="392.6,256 402.3,294.9 404.3,325.1 392.6,293.5 "></polygon> <polygon class="st21" points="279.2,316.9 274,339.1 271,351.8 271.5,336.8 272.7,295.6 279.2,253.1 "></polygon> <path class="st22" d="M249.4,417.7c0,0-49,2.6-60.2,7.6s1.7,30.5,9.5,31.5c5.7,0.8,54.3-4.1,61.2-11.2L249.4,417.7z"></path> <path class="st16" d="M249.4,417.7c0,0-21.3,4.5-25.2,9.7s-4.6,19.2-1.7,19.8s6.7,5.2,37.5-1.5L249.4,417.7z"></path> <path class="st23" d="M248.8,417.5l10.9,28.7l201.9-37c19.7-4.4,53.8-22.4,49.4-37.9c-5.3-18.8-20.7-30.8-40.1-25.4L248.8,417.5z"></path> <path class="st16" d="M274,339.1l-2.5-2.3l-13-11.7l8.2-30.9c-10.1-1.7-27.9-3.6-34.7-4.3l-7.7,39.5c-1,4.9,1.2,10,5.5,12.6 l40.7,25.4l13.8,8.6l10.8-17.9L274,339.1z"></path> <path class="st16" d="M448.8,328.8l-9.5-44.5c-7.2,1.9-24.1,6.4-33.6,9.5l8.9,31.3l-9.7,9.1l-26.3,24.7l11.1,17.7l18.9-12.3l35-22.8 C447.7,338.8,449.8,333.7,448.8,328.8z"></path> <path class="st24" d="M432.6,417l-10.5,28.9l-208.9-36.7c-19.8-4.1-42.6-19.8-42.9-31.4c-0.5-16.1,22.8-36.6,42.3-31.5L432.6,417z"></path> <path class="st22" d="M432.6,417c0,0,51.6,3.4,63,8s-4.1,28.2-11.9,29.6c-5.7,1-54.5-1.9-61.6-8.8L432.6,417z"></path> <path class="st16" d="M432.6,417c0,0,20.3,4.1,24.5,9.1s5.4,19,2.5,19.7s-6.4,5.5-37.5,0L432.6,417z"></path> <path class="st25" d="M267.7,378.4h136.6c1.5,0,2.7,1.2,2.7,2.7v2.6c0,1.5-1.2,2.7-2.7,2.7H267.7c-1.5,0-2.7-1.2-2.7-2.7v-2.6 C265,379.6,266.2,378.4,267.7,378.4z"></path> <g id="surface1"> <path class="st4" d="M339.8,304.5l-24.4-14.1v-28.2l24.4-14.1l24.4,14.1v28.2L339.8,304.5z M318.8,288.5l21.1,12.2l21.1-12.2v-24.3 L339.8,252l-21.1,12.2V288.5z"></path> <path class="st4" d="M328.1,283.1l-6.8-6.8l6.8-6.8l2.3,2.3l-4.4,4.4l4.4,4.4L328.1,283.1z"></path> <path class="st4" d="M351.6,283.1l-2.3-2.3l4.4-4.4l-4.4-4.4l2.3-2.3l6.8,6.8L351.6,283.1z"></path> <path class="st4" d="M342.2,267.8l3,1.5l-7.8,15.5l-3-1.5L342.2,267.8z"></path> </g> <path class="st26" d="M415.2,293.5l-10.8,84.9H267.7l-1.6-12.6l-9.2-72.2c0-5.3,4.3-9.6,9.6-9.6c0,0,0,0,0,0h139.1 C410.9,283.9,415.1,288.2,415.2,293.5C415.2,293.5,415.2,293.5,415.2,293.5z"></path> <g id="surface1-2"> <path class="st27" d="M350.5,321h-0.9c-4.2,0.1-8.1,1.8-11.1,4.7c-1.2,1.3-2.4,2.7-3.4,4.1h-6.5l-4.5,7.7l1.8,1.8l5.3-1.8l3.6,3.6 l-1.8,5.3l1.8,1.8l7.7-4.5v-6.5c1.5-1,2.9-2.1,4.2-3.3c3.2-3.3,4.8-7.7,4.7-12.3v-0.5h-0.5L350.5,321z M345.5,325.2 c1,0,1.8,0.8,1.8,1.8s-0.8,1.8-1.8,1.8c-1,0-1.8-0.8-1.8-1.8c0-0.5,0.2-0.9,0.5-1.2C344.6,325.4,345,325.2,345.5,325.2L345.5,325.2 z"></path> </g> </svg> 